SplineFontDB: 1.0
FontName: ArundinaSerif-Bold
FullName: Arundina Serif Bold
FamilyName: Arundina Serif
Weight: Bold
Copyright: Copyright (c) 2003 by Bitstream, Inc. All Rights Reserved.\nCopyright (c) 2007 by Software Industry Promotion Agency (Public Organization). All Rights Reserved.
Version: 2.2
ItalicAngle: 0
UnderlinePosition: -75
UnderlineWidth: 50
Ascent: 800
Descent: 200
Order2: 1
XUID: [1021 375 425136265 5684599]
FSType: 0
OS2Version: 2
OS2_WeightWidthSlopeOnly: 0
OS2_UseTypoMetrics: 1
CreationTime: 1131289380
ModificationTime: 1171885222
PfmFamily: 17
TTFWeight: 700
TTFWidth: 5
LineGap: 15
VLineGap: 0
Panose: 2 11 3 0 2 2 2 2 2 4
OS2TypoAscent: 0
OS2TypoAOffset: 1
OS2TypoDescent: -200
OS2TypoDOffset: 1
OS2TypoLinegap: 0
OS2WinAscent: 0
OS2WinAOffset: 1
OS2WinDescent: 37
OS2WinDOffset: 1
HheadAscent: 0
HheadAOffset: 1
HheadDescent: -37
HheadDOffset: 1
OS2SubXSize: 700
OS2SubYSize: 650
OS2SubXOff: 0
OS2SubYOff: 140
OS2SupXSize: 700
OS2SupYSize: 650
OS2SupXOff: 0
OS2SupYOff: 477
OS2StrikeYSize: 50
OS2StrikeYPos: 250
OS2FamilyClass: 261
OS2Vendor: 'BLWK'
ScriptLang: 2
 1 latn 1 dflt 
 0 
ChainSub: coverage 0 0 'liga' 0 0 0 1
 1 1 0
  Coverage: 7 uni0E47
  BCoverage: 12 uni0E2C.alt1
 1
  SeqLookup: 0 'L019'
EndFPST
ChainSub: coverage 0 0 'liga' 0 0 0 1
 1 0 1
  Coverage: 7 uni0E2C
  FCoverage: 39 uni0E34 uni0E35 uni0E36 uni0E37 uni0E47
 1
  SeqLookup: 0 'L019'
EndFPST
ChainSub: coverage 0 0 'liga' 0 0 0 1
 1 0 1
  Coverage: 15 uni0E0E uni0E0F
  FCoverage: 38 uni0E38.alt1 uni0E39.alt1 uni0E3A.alt1
 1
  SeqLookup: 0 'L019'
EndFPST
ChainSub: coverage 0 0 'liga' 0 0 0 1
 1 1 0
  Coverage: 5 a b c
  BCoverage: 23 uni0E1B uni0E1D uni0E1F
 1
  SeqLookup: 0 'L019'
EndFPST
ChainSub: coverage 0 0 'liga' 0 0 0 1
 1 0 1
  Coverage: 5 a b c
  FCoverage: 64 uni0E48.alt1 uni0E49.alt1 uni0E4A.alt1 uni0E4B.alt1 uni0E4C.alt1
 1
  SeqLookup: 0 'L019'
EndFPST
ChainSub: coverage 0 0 'liga' 0 0 0 1
 1 1 0

StartChar: .notdef
Encoding: 65536 -1 0
Width: 339
Flags: W
Fore
0 467 m 1,0,-1
 339 467 l 1,1,-1
 339 0 l 1,2,-1
 0 0 l 1,3,-1
 0 467 l 1,0,-1
262 51 m 1,4,5
 250 69 250 69 238.5 85.5 c 128,-1,6
 227 102 227 102 216 118.5 c 128,-1,7
 205 135 205 135 193.5 152 c 128,-1,8
 182 169 182 169 170 188 c 1,9,10
 157 170 157 170 146 153.5 c 128,-1,11
 135 137 135 137 124.5 120.5 c 128,-1,12
 114 104 114 104 103 87 c 128,-1,13
 92 70 92 70 79 51 c 1,14,-1
 262 51 l 1,4,5
261 416 m 1,15,-1
 79 416 l 1,16,-1
 88 402 l 2,17,18
 98 386 98 386 108 371.5 c 128,-1,19
 118 357 118 357 127.5 342 c 128,-1,20
 137 327 137 327 147 312 c 128,-1,21
 157 297 157 297 169 280 c 1,22,-1
 261 416 l 1,15,-1
51 101 m 1,23,24
 73 134 73 134 94 166.5 c 128,-1,25
 115 199 115 199 139 234 c 1,26,27
 126 253 126 253 115.5 268.5 c 128,-1,28
 105 284 105 284 95 299.5 c 128,-1,29
 85 315 85 315 74.5 330.5 c 128,-1,30
 64 346 64 346 51 366 c 1,31,-1
 51 101 l 1,23,24
287 102 m 1,32,-1
 287 364 l 1,33,34
 276 347 276 347 265.5 331 c 128,-1,35
 255 315 255 315 244 299.5 c 128,-1,36
 233 284 233 284 222.5 267.5 c 128,-1,37
 212 251 212 251 200 234 c 1,38,-1
 287 102 l 1,32,-1
EndSplineSet
EndChar
StartChar: exclam
Encoding: 33 33 4
Width: 281
Flags: W
Fore
81 51 m 0,0,1
 81 75 81 75 98.5 92.5 c 128,-1,2
 116 110 116 110 140 110 c 256,3,4
 164 110 164 110 182 92.5 c 128,-1,5
 200 75 200 75 200 51 c 0,6,7
 200 26 200 26 182 8.5 c 128,-1,8
 164 -9 164 -9 140 -9 c 256,9,10
 116 -9 116 -9 98.5 8.5 c 128,-1,11
 81 26 81 26 81 51 c 0,0,1
82 467 m 1,12,-1
 199 467 l 1,13,-1
 162 204 l 1,14,-1
 162 144 l 1,15,-1
 118 144 l 1,16,-1
 118 204 l 1,17,-1
 82 467 l 1,12,-1
EndSplineSet
EndChar
StartChar: quotedbl
Encoding: 34 34 5
Width: 333
Flags: W
Fore
135 467 m 1,0,-1
 135 293 l 1,1,-1
 61 293 l 1,2,-1
 61 467 l 1,3,-1
 135 467 l 1,0,-1
273 467 m 1,4,-1
 273 293 l 1,5,-1
 198 293 l 1,6,-1
 198 467 l 1,7,-1
 273 467 l 1,4,-1
EndSplineSet
EndChar
StartChar: numbersign
Encoding: 35 35 6
Width: 536
Flags: W
Fore
320 273 m 1,0,-1
 237 273 l 1,1,-1
 216 187 l 1,2,-1
 298 187 l 1,3,-1
 320 273 l 1,0,-1
285 460 m 1,4,-1
 255 339 l 1,5,-1
 337 339 l 1,6,-1
 367 460 l 1,7,-1
 436 460 l 1,8,-1
 406 339 l 1,9,-1
 493 339 l 1,10,-1
 493 273 l 1,11,-1
 390 273 l 1,12,-1
 368 187 l 1,13,-1
 457 187 l 1,14,-1
 457 120 l 1,15,-1
 352 120 l 1,16,-1
 322 0 l 1,17,-1
 253 0 l 1,18,-1
 283 120 l 1,19,-1
 200 120 l 1,20,-1
 170 0 l 1,21,-1
 100 0 l 1,22,-1
 131 120 l 1,23,-1
 44 120 l 1,24,-1
 44 187 l 1,25,-1
 146 187 l 1,26,-1
 168 273 l 1,27,-1
 79 273 l 1,28,-1
 79 339 l 1,29,-1
 185 339 l 1,30,-1
 215 460 l 1,31,-1
 285 460 l 1,4,-1
EndSplineSet
EndChar
StartChar: dollar
Encoding: 36 36 7
Width: 445
Flags: W
Fore
61 19 m 1,0,-1
 61 109 l 1,1,-1
 99 109 l 1,2,3
 104 67 104 67 128.5 46.5 c 128,-1,4
 153 26 153 26 198 26 c 2,5,-1
 202 26 l 1,6,-1
 202 153 l 1,7,8
 124 170 124 170 90.5 199.5 c 128,-1,9
 57 229 57 229 57 280 c 0,10,11
 57 337 57 337 95 369 c 128,-1,12
 133 401 133 401 202 403 c 1,13,-1
 202 487 l 1,14,-1
 240 487 l 1,15,-1
 240 403 l 1,16,17
 275 401 275 401 307 394.5 c 128,-1,18
 339 388 339 388 369 376 c 1,19,-1
 369 291 l 1,20,-1
 332 291 l 1,21,22
 326 327 326 327 302.5 347 c 128,-1,23
 279 367 279 367 240 368 c 1,24,-1
 240 252 l 1,25,26
 324 233 324 233 358 202 c 128,-1,27
 392 171 392 171 392 115 c 0,28,29
 392 57 392 57 352.5 25 c 128,-1,30
 313 -7 313 -7 240 -9 c 1,31,-1
 240 -93 l 1,32,-1
 202 -93 l 1,33,-1
 202 -9 l 1,34,35
 168 -8 168 -8 132.5 -1.5 c 128,-1,36
 97 5 97 5 61 19 c 1,0,-1
202 368 m 1,37,38
 175 365 175 365 160 352 c 128,-1,39
 145 339 145 339 145 319 c 0,40,41
 145 298 145 298 158.5 284.5 c 128,-1,42
 172 271 172 271 202 262 c 1,43,-1
 202 368 l 1,37,38
240 26 m 1,44,45
 271 29 271 29 287.5 43 c 128,-1,46
 304 57 304 57 304 80 c 256,47,48
 304 103 304 103 289 118 c 128,-1,49
 274 133 274 133 240 143 c 1,50,-1
 240 26 l 1,44,45
EndSplineSet
EndChar
StartChar: percent
Encoding: 37 37 8
Width: 608
Flags: W
Fore
138 444 m 0,0,1
 118 444 118 444 109 422 c 128,-1,2
 100 400 100 400 100 348 c 256,3,4
 100 296 100 296 109 274 c 128,-1,5
 118 252 118 252 138 252 c 0,6,7
 159 252 159 252 167.5 274 c 128,-1,8
 176 296 176 296 176 348 c 256,9,10
 176 400 176 400 167.5 422 c 128,-1,11
 159 444 159 444 138 444 c 0,0,1
138 475 m 0,12,13
 198 475 198 475 229.5 442.5 c 128,-1,14
 261 410 261 410 261 348 c 0,15,16
 261 287 261 287 229.5 254 c 128,-1,17
 198 221 198 221 138 221 c 0,18,19
 79 221 79 221 47 254 c 128,-1,20
 15 287 15 287 15 348 c 0,21,22
 15 410 15 410 47 442.5 c 128,-1,23
 79 475 79 475 138 475 c 0,12,13
423 475 m 1,24,-1
 477 475 l 1,25,-1
 185 -9 l 1,26,-1
 131 -9 l 1,27,-1
 423 475 l 1,24,-1
470 245 m 0,28,29
 529 245 529 245 561 212.5 c 128,-1,30
 593 180 593 180 593 118 c 0,31,32
 593 57 593 57 561 24 c 128,-1,33
 529 -9 529 -9 470 -9 c 0,34,35
 410 -9 410 -9 378.5 24 c 128,-1,36
 347 57 347 57 347 118 c 0,37,38
 347 180 347 180 378.5 212.5 c 128,-1,39
 410 245 410 245 470 245 c 0,28,29
470 214 m 0,40,41
 449 214 449 214 440.5 192 c 128,-1,42
 432 170 432 170 432 118 c 0,43,44
 432 67 432 67 441 44.5 c 128,-1,45
 450 22 450 22 470 22 c 256,46,47
 490 22 490 22 499 44.5 c 128,-1,48
 508 67 508 67 508 118 c 0,49,50
 508 170 508 170 499 192 c 128,-1,51
 490 214 490 214 470 214 c 0,40,41
EndSplineSet
EndChar
StartChar: ampersand
Encoding: 38 38 9
Width: 578
Flags: W
Fore
566 0 m 1,0,-1
 417 0 l 1,1,-1
 377 41 l 1,2,3
 346 16 346 16 308 3.5 c 128,-1,4
 270 -9 270 -9 225 -9 c 0,5,6
 132 -9 132 -9 79 31 c 128,-1,7
 26 71 26 71 26 141 c 0,8,9
 26 192 26 192 53 228 c 128,-1,10
 80 264 80 264 138 290 c 1,11,12
 122 311 122 311 114 330 c 128,-1,13
 106 349 106 349 106 367 c 0,14,15
 106 418 106 418 148.5 446.5 c 128,-1,16
 191 475 191 475 269 475 c 0,17,18
 292 475 292 475 323 471 c 128,-1,19
 354 467 354 467 393 460 c 1,20,-1
 393 363 l 1,21,-1
 353 363 l 1,22,23
 347 401 347 401 328.5 419 c 128,-1,24
 310 437 310 437 277 437 c 0,25,26
 246 437 246 437 227.5 422 c 128,-1,27
 209 407 209 407 209 381 c 0,28,29
 209 353 209 353 266 296 c 0,30,31
 271 290 271 290 275 287 c 1,32,-1
 419 136 l 1,33,34
 437 157 437 157 447.5 185 c 128,-1,35
 458 213 458 213 461 248 c 1,36,-1
 404 248 l 1,37,-1
 404 286 l 1,38,-1
 561 286 l 1,39,-1
 561 248 l 1,40,-1
 506 248 l 1,41,42
 500 203 500 203 486 167.5 c 128,-1,43
 472 132 472 132 449 105 c 1,44,-1
 513 38 l 1,45,-1
 566 38 l 1,46,-1
 566 0 l 1,0,-1
348 72 m 1,47,-1
 171 255 l 1,48,49
 154 234 154 234 145 210.5 c 128,-1,50
 136 187 136 187 136 161 c 0,51,52
 136 108 136 108 169.5 74 c 128,-1,53
 203 40 203 40 254 40 c 0,54,55
 278 40 278 40 301 48 c 128,-1,56
 324 56 324 56 348 72 c 1,47,-1
EndSplineSet
EndChar
StartChar: quotesingle
Encoding: 39 39 10
Width: 196
Flags: W
Fore
135 467 m 1,0,-1
 135 293 l 1,1,-1
 61 293 l 1,2,-1
 61 467 l 1,3,-1
 135 467 l 1,0,-1
EndSplineSet
EndChar
StartChar: parenleft
Encoding: 40 40 11
Width: 303
Flags: W
Fore
269 -100 m 1,0,1
 164 -61 164 -61 112 12 c 128,-1,2
 60 85 60 85 60 193 c 256,3,4
 60 301 60 301 111.5 373 c 128,-1,5
 163 445 163 445 269 486 c 1,6,-1
 269 449 l 1,7,8
 220 419 220 419 198.5 360 c 128,-1,9
 177 301 177 301 177 193 c 0,10,11
 177 86 177 86 198.5 27 c 128,-1,12
 220 -32 220 -32 269 -62 c 1,13,-1
 269 -100 l 1,0,1
EndSplineSet
EndChar
StartChar: parenright
Encoding: 41 41 12
Width: 303
Flags: W
Fore
33 -100 m 1,0,-1
 33 -62 l 1,1,2
 82 -32 82 -32 103.5 27 c 128,-1,3
 125 86 125 86 125 193 c 0,4,5
 125 301 125 301 103.5 360 c 128,-1,6
 82 419 82 419 33 449 c 1,7,-1
 33 486 l 1,8,9
 139 445 139 445 190.5 373 c 128,-1,10
 242 301 242 301 242 193 c 256,11,12
 242 85 242 85 190 12 c 128,-1,13
 138 -61 138 -61 33 -100 c 1,0,-1
EndSplineSet
EndChar
StartChar: asterisk
Encoding: 42 42 13
Width: 335
Flags: W
Fore
321 379 m 1,0,-1
 208 326 l 1,1,-1
 321 273 l 1,2,-1
 290 225 l 1,3,-1
 188 300 l 1,4,-1
 196 178 l 1,5,-1
 139 178 l 1,6,-1
 147 300 l 1,7,-1
 45 225 l 1,8,-1
 14 273 l 1,9,-1
 127 326 l 1,10,-1
 14 379 l 1,11,-1
 45 428 l 1,12,-1
 147 353 l 1,13,-1
 139 475 l 1,14,-1
 196 475 l 1,15,-1
 188 353 l 1,16,-1
 290 428 l 1,17,-1
 321 379 l 1,0,-1
EndSplineSet
EndChar
StartChar: plus
Encoding: 43 43 14
Width: 536
Flags: W
Fore
304 401 m 1,0,-1
 304 237 l 1,1,-1
 468 237 l 1,2,-1
 468 165 l 1,3,-1
 304 165 l 1,4,-1
 304 1 l 1,5,-1
 232 1 l 1,6,-1
 232 165 l 1,7,-1
 68 165 l 1,8,-1
 68 237 l 1,9,-1
 232 237 l 1,10,-1
 232 401 l 1,11,-1
 304 401 l 1,0,-1
EndSplineSet
EndChar
StartChar: comma
Encoding: 44 44 15
Width: 223
Flags: W
Fore
8 -61 m 1,0,1
 41 -35 41 -35 56.5 -3 c 128,-1,2
 72 29 72 29 72 73 c 2,3,-1
 72 100 l 1,4,-1
 161 100 l 1,5,-1
 161 97 l 2,6,7
 161 28 161 28 132 -22 c 128,-1,8
 103 -72 103 -72 43 -106 c 1,9,-1
 8 -61 l 1,0,1
EndSplineSet
EndChar
StartChar: hyphen
Encoding: 45 45 16
Width: 266
Flags: W
Fore
35 214 m 1,0,-1
 231 214 l 1,1,-1
 231 129 l 1,2,-1
 35 129 l 1,3,-1
 35 214 l 1,0,-1
EndSplineSet
EndChar
StartChar: period
Encoding: 46 46 17
Width: 223
Flags: W
Fore
52 51 m 0,0,1
 52 75 52 75 69.5 92.5 c 128,-1,2
 87 110 87 110 111 110 c 0,3,4
 136 110 136 110 153.5 92.5 c 128,-1,5
 171 75 171 75 171 51 c 0,6,7
 171 26 171 26 153.5 8.5 c 128,-1,8
 136 -9 136 -9 111 -9 c 0,9,10
 87 -9 87 -9 69.5 8.5 c 128,-1,11
 52 26 52 26 52 51 c 0,0,1
EndSplineSet
EndChar
StartChar: slash
Encoding: 47 47 18
Width: 234
Flags: W
Fore
164 467 m 1,0,-1
 234 467 l 1,1,-1
 69 -60 l 1,2,-1
 0 -60 l 1,3,-1
 164 467 l 1,0,-1
EndSplineSet
EndChar
StartChar: zero
Encoding: 48 48 19
Width: 445
Flags: W
Fore
223 28 m 256,0,1
 260 28 260 28 274 61.5 c 128,-1,2
 288 95 288 95 288 233 c 0,3,4
 288 369 288 369 274 403.5 c 128,-1,5
 260 438 260 438 223 438 c 256,6,7
 186 438 186 438 171.5 404.5 c 128,-1,8
 157 371 157 371 157 233 c 256,9,10
 157 95 157 95 171.5 61.5 c 128,-1,11
 186 28 186 28 223 28 c 256,0,1
223 -9 m 0,12,13
 129 -9 129 -9 79.5 53.5 c 128,-1,14
 30 116 30 116 30 233 c 256,15,16
 30 350 30 350 79.5 412.5 c 128,-1,17
 129 475 129 475 223 475 c 0,18,19
 316 475 316 475 365.5 412.5 c 128,-1,20
 415 350 415 350 415 233 c 256,21,22
 415 116 415 116 365.5 53.5 c 128,-1,23
 316 -9 316 -9 223 -9 c 0,12,13
EndSplineSet
EndChar
StartChar: one
Encoding: 49 49 20
Width: 445
Flags: W
Fore
88 0 m 1,0,-1
 88 38 l 1,1,-1
 175 38 l 1,2,-1
 175 415 l 1,3,-1
 78 358 l 1,4,-1
 78 404 l 1,5,-1
 195 475 l 1,6,-1
 294 475 l 1,7,-1
 294 38 l 1,8,-1
 381 38 l 1,9,-1
 381 0 l 1,10,-1
 88 0 l 1,0,-1
EndSplineSet
EndChar
StartChar: two
Encoding: 50 50 21
Width: 445
Flags: W
Fore
84 351 m 1,0,-1
 47 351 l 1,1,-1
 47 452 l 1,2,3
 85 463 85 463 122.5 469 c 128,-1,4
 160 475 160 475 198 475 c 0,5,6
 287 475 287 475 337 438.5 c 128,-1,7
 387 402 387 402 387 337 c 0,8,9
 387 291 387 291 359.5 254.5 c 128,-1,10
 332 218 332 218 254 167 c 2,11,-1
 124 82 l 1,12,-1
 345 82 l 1,13,-1
 345 137 l 1,14,-1
 388 137 l 1,15,-1
 388 0 l 1,16,-1
 43 0 l 1,17,-1
 43 76 l 1,18,-1
 112 124 l 2,19,20
 200 185 200 185 229.5 228 c 128,-1,21
 259 271 259 271 259 328 c 0,22,23
 259 382 259 382 236.5 410 c 128,-1,24
 214 438 214 438 172 438 c 0,25,26
 134 438 134 438 112 416 c 128,-1,27
 90 394 90 394 84 351 c 1,0,-1
EndSplineSet
EndChar
StartChar: three
Encoding: 51 51 22
Width: 445
Flags: W
Fore
55 453 m 1,0,1
 96 464 96 464 134.5 469.5 c 128,-1,2
 173 475 173 475 211 475 c 0,3,4
 295 475 295 475 340 445 c 128,-1,5
 385 415 385 415 385 358 c 0,6,7
 385 316 385 316 359 290 c 128,-1,8
 333 264 333 264 284 255 c 1,9,10
 344 245 344 245 374 213 c 128,-1,11
 404 181 404 181 404 126 c 0,12,13
 404 61 404 61 352.5 26 c 128,-1,14
 301 -9 301 -9 203 -9 c 0,15,16
 166 -9 166 -9 127 -3 c 128,-1,17
 88 3 88 3 45 16 c 1,18,-1
 45 118 l 1,19,-1
 83 118 l 1,20,21
 86 74 86 74 110 51 c 128,-1,22
 134 28 134 28 178 28 c 0,23,24
 225 28 225 28 251 54 c 128,-1,25
 277 80 277 80 277 129 c 0,26,27
 277 179 277 179 250 206.5 c 128,-1,28
 223 234 223 234 173 234 c 2,29,-1
 153 234 l 1,30,-1
 153 272 l 1,31,-1
 169 272 l 2,32,33
 215 272 215 272 238 293 c 128,-1,34
 261 314 261 314 261 356 c 0,35,36
 261 396 261 396 239.5 417 c 128,-1,37
 218 438 218 438 177 438 c 0,38,39
 140 438 140 438 118.5 418 c 128,-1,40
 97 398 97 398 93 360 c 1,41,-1
 55 360 l 1,42,-1
 55 453 l 1,0,1
EndSplineSet
EndChar
StartChar: four
Encoding: 52 52 23
Width: 445
Flags: W
Fore
408 0 m 1,0,-1
 152 0 l 1,1,-1
 152 38 l 1,2,-1
 221 38 l 1,3,-1
 221 123 l 1,4,-1
 26 123 l 1,5,-1
 26 159 l 1,6,-1
 221 475 l 1,7,-1
 339 475 l 1,8,-1
 339 163 l 1,9,-1
 419 163 l 1,10,-1
 419 123 l 1,11,-1
 339 123 l 1,12,-1
 339 38 l 1,13,-1
 408 38 l 1,14,-1
 408 0 l 1,0,-1
221 163 m 1,15,-1
 221 390 l 1,16,-1
 82 163 l 1,17,-1
 221 163 l 1,15,-1
EndSplineSet
EndChar
StartChar: five
Encoding: 53 53 24
Width: 445
Flags: W
Fore
361 467 m 1,0,-1
 361 385 l 1,1,-1
 111 385 l 1,2,-1
 111 282 l 1,3,4
 132 298 132 298 157 306 c 128,-1,5
 182 314 182 314 211 314 c 0,6,7
 297 314 297 314 347 270.5 c 128,-1,8
 397 227 397 227 397 152 c 0,9,10
 397 76 397 76 347 33.5 c 128,-1,11
 297 -9 297 -9 207 -9 c 0,12,13
 169 -9 169 -9 131 -3 c 128,-1,14
 93 3 93 3 52 17 c 1,15,-1
 52 118 l 1,16,-1
 90 118 l 1,17,18
 92 72 92 72 114 50 c 128,-1,19
 136 28 136 28 179 28 c 0,20,21
 225 28 225 28 247 58.5 c 128,-1,22
 269 89 269 89 269 152 c 0,23,24
 269 214 269 214 247.5 245 c 128,-1,25
 226 276 226 276 182 276 c 0,26,27
 158 276 158 276 139.5 266 c 128,-1,28
 121 256 121 256 105 236 c 1,29,-1
 74 236 l 1,30,-1
 74 467 l 1,31,-1
 361 467 l 1,0,-1
EndSplineSet
EndChar
StartChar: six
Encoding: 54 54 25
Width: 445
Flags: W
Fore
157 276 m 1,0,1
 178 293 178 293 203 301 c 128,-1,2
 228 309 228 309 258 309 c 0,3,4
 330 309 330 309 370.5 267 c 128,-1,5
 411 225 411 225 411 152 c 0,6,7
 411 75 411 75 365 33 c 128,-1,8
 319 -9 319 -9 234 -9 c 0,9,10
 139 -9 139 -9 89.5 48.5 c 128,-1,11
 40 106 40 106 40 218 c 0,12,13
 40 346 40 346 95 410.5 c 128,-1,14
 150 475 150 475 257 475 c 0,15,16
 285 475 285 475 317 470.5 c 128,-1,17
 349 466 349 466 387 456 c 1,18,-1
 387 374 l 1,19,-1
 349 374 l 1,20,21
 341 406 341 406 319.5 422 c 128,-1,22
 298 438 298 438 263 438 c 0,23,24
 207 438 207 438 182.5 400 c 128,-1,25
 158 362 158 362 157 276 c 1,0,1
227 28 m 256,26,27
 259 28 259 28 273 55 c 128,-1,28
 287 82 287 82 287 150 c 0,29,30
 287 217 287 217 273 244.5 c 128,-1,31
 259 272 259 272 227 272 c 256,32,33
 195 272 195 272 181.5 244.5 c 128,-1,34
 168 217 168 217 168 150 c 0,35,36
 168 82 168 82 181.5 55 c 128,-1,37
 195 28 195 28 227 28 c 256,26,27
EndSplineSet
EndChar
StartChar: seven
Encoding: 55 55 26
Width: 445
Flags: W
Fore
392 387 m 1,0,-1
 200 0 l 1,1,-1
 136 0 l 1,2,-1
 324 378 l 1,3,-1
 93 378 l 1,4,-1
 93 315 l 1,5,-1
 51 315 l 1,6,-1
 51 467 l 1,7,-1
 392 467 l 1,8,-1
 392 387 l 1,0,-1
EndSplineSet
EndChar
StartChar: eight
Encoding: 56 56 27
Width: 445
Flags: W
Fore
298 248 m 1,0,1
 353 239 353 239 382 207 c 128,-1,2
 411 175 411 175 411 124 c 0,3,4
 411 60 411 60 362.5 25.5 c 128,-1,5
 314 -9 314 -9 222 -9 c 0,6,7
 131 -9 131 -9 82 25.5 c 128,-1,8
 33 60 33 60 33 124 c 0,9,10
 33 175 33 175 62.5 207 c 128,-1,11
 92 239 92 239 147 248 c 1,12,13
 97 260 97 260 73 286 c 128,-1,14
 49 312 49 312 49 353 c 0,15,16
 49 413 49 413 93.5 444 c 128,-1,17
 138 475 138 475 222 475 c 0,18,19
 307 475 307 475 351.5 444 c 128,-1,20
 396 413 396 413 396 353 c 0,21,22
 396 312 396 312 371.5 286 c 128,-1,23
 347 260 347 260 298 248 c 1,0,1
275 352 m 256,24,25
 275 401 275 401 263 419.5 c 128,-1,26
 251 438 251 438 222 438 c 256,27,28
 193 438 193 438 181.5 419.5 c 128,-1,29
 170 401 170 401 170 352 c 256,30,31
 170 303 170 303 181.5 284.5 c 128,-1,32
 193 266 193 266 222 266 c 0,33,34
 252 266 252 266 263.5 284.5 c 128,-1,35
 275 303 275 303 275 352 c 256,24,25
287 129 m 0,36,37
 287 187 287 187 272.5 208.5 c 128,-1,38
 258 230 258 230 222 230 c 256,39,40
 186 230 186 230 171.5 208.5 c 128,-1,41
 157 187 157 187 157 129 c 0,42,43
 157 72 157 72 172 50 c 128,-1,44
 187 28 187 28 222 28 c 256,45,46
 257 28 257 28 272 50 c 128,-1,47
 287 72 287 72 287 129 c 0,36,37
EndSplineSet
EndChar
StartChar: nine
Encoding: 57 57 28
Width: 445
Flags: W
Fore
218 438 m 256,0,1
 186 438 186 438 172.5 411 c 128,-1,2
 159 384 159 384 159 316 c 0,3,4
 159 249 159 249 172.5 221.5 c 128,-1,5
 186 194 186 194 218 194 c 256,6,7
 250 194 250 194 264 221.5 c 128,-1,8
 278 249 278 249 278 316 c 0,9,10
 278 384 278 384 264 411 c 128,-1,11
 250 438 250 438 218 438 c 256,0,1
288 190 m 1,12,13
 267 173 267 173 242 165 c 128,-1,14
 217 157 217 157 188 157 c 0,15,16
 116 157 116 157 75.5 198.5 c 128,-1,17
 35 240 35 240 35 314 c 0,18,19
 35 391 35 391 80.5 433 c 128,-1,20
 126 475 126 475 211 475 c 0,21,22
 307 475 307 475 356 417.5 c 128,-1,23
 405 360 405 360 405 248 c 0,24,25
 405 120 405 120 350.5 55.5 c 128,-1,26
 296 -9 296 -9 188 -9 c 0,27,28
 160 -9 160 -9 127.5 -4.5 c 128,-1,29
 95 0 95 0 59 10 c 1,30,-1
 59 92 l 1,31,-1
 97 92 l 1,32,33
 104 60 104 60 126 44 c 128,-1,34
 148 28 148 28 182 28 c 0,35,36
 237 28 237 28 262 66 c 128,-1,37
 287 104 287 104 288 190 c 1,12,13
EndSplineSet
EndChar
StartChar: colon
Encoding: 58 58 29
Width: 236
Flags: W
Fore
59 254 m 0,0,1
 59 279 59 279 76 296.5 c 128,-1,2
 93 314 93 314 118 314 c 0,3,4
 142 314 142 314 159.5 296 c 128,-1,5
 177 278 177 278 177 254 c 256,6,7
 177 230 177 230 160 212.5 c 128,-1,8
 143 195 143 195 118 195 c 256,9,10
 93 195 93 195 76 212.5 c 128,-1,11
 59 230 59 230 59 254 c 0,0,1
59 51 m 0,12,13
 59 75 59 75 76 92.5 c 128,-1,14
 93 110 93 110 118 110 c 0,15,16
 142 110 142 110 159.5 92.5 c 128,-1,17
 177 75 177 75 177 51 c 0,18,19
 177 26 177 26 159.5 8.5 c 128,-1,20
 142 -9 142 -9 118 -9 c 0,21,22
 93 -9 93 -9 76 8.5 c 128,-1,23
 59 26 59 26 59 51 c 0,12,13
EndSplineSet
EndChar
StartChar: semicolon
Encoding: 59 59 30
Width: 236
Flags: W
Fore
59 254 m 0,0,1
 59 279 59 279 76 296.5 c 128,-1,2
 93 314 93 314 118 314 c 0,3,4
 142 314 142 314 159.5 296 c 128,-1,5
 177 278 177 278 177 254 c 256,6,7
 177 230 177 230 160 212.5 c 128,-1,8
 143 195 143 195 118 195 c 256,9,10
 93 195 93 195 76 212.5 c 128,-1,11
 59 230 59 230 59 254 c 0,0,1
17 -59 m 1,12,13
 49 -33 49 -33 64.5 -0.5 c 128,-1,14
 80 32 80 32 80 75 c 2,15,-1
 80 102 l 1,16,-1
 169 102 l 1,17,18
 169 32 169 32 140 -18.5 c 128,-1,19
 111 -69 111 -69 51 -103 c 1,20,-1
 17 -59 l 1,12,13
EndSplineSet
EndChar
StartChar: less
Encoding: 60 60 31
Width: 536
Flags: W
Fore
468 306 m 1,0,-1
 163 200 l 1,1,-1
 468 95 l 1,2,-1
 468 20 l 1,3,-1
 68 166 l 1,4,-1
 68 236 l 1,5,-1
 468 381 l 1,6,-1
 468 306 l 1,0,-1
EndSplineSet
EndChar
StartChar: equal
Encoding: 61 61 32
Width: 536
Flags: W
Fore
68 165 m 1,0,-1
 468 165 l 1,1,-1
 468 94 l 1,2,-1
 68 94 l 1,3,-1
 68 165 l 1,0,-1
68 307 m 1,4,-1
 468 307 l 1,5,-1
 468 236 l 1,6,-1
 68 236 l 1,7,-1
 68 307 l 1,4,-1
EndSplineSet
EndChar
StartChar: greater
Encoding: 62 62 33
Width: 536
Flags: W
Fore
68 306 m 1,0,-1
 68 381 l 1,1,-1
 468 236 l 1,2,-1
 468 166 l 1,3,-1
 68 20 l 1,4,-1
 68 95 l 1,5,-1
 374 200 l 1,6,-1
 68 306 l 1,0,-1
EndSplineSet
EndChar
StartChar: question
Encoding: 63 63 34
Width: 375
Flags: W
Fore
107 51 m 0,0,1
 107 75 107 75 124.5 92.5 c 128,-1,2
 142 110 142 110 166 110 c 0,3,4
 191 110 191 110 208.5 92.5 c 128,-1,5
 226 75 226 75 226 51 c 0,6,7
 226 26 226 26 208.5 8.5 c 128,-1,8
 191 -9 191 -9 166 -9 c 0,9,10
 142 -9 142 -9 124.5 8.5 c 128,-1,11
 107 26 107 26 107 51 c 0,0,1
42 454 m 1,12,13
 80 465 80 465 115 470 c 128,-1,14
 150 475 150 475 183 475 c 0,15,16
 262 475 262 475 304 440.5 c 128,-1,17
 346 406 346 406 346 342 c 0,18,19
 346 279 346 279 305.5 242.5 c 128,-1,20
 265 206 265 206 188 200 c 1,21,-1
 188 136 l 1,22,-1
 145 136 l 1,23,-1
 145 230 l 1,24,25
 188 243 188 243 208.5 272 c 128,-1,26
 229 301 229 301 229 349 c 0,27,28
 229 394 229 394 210 417 c 128,-1,29
 191 440 191 440 154 440 c 0,30,31
 120 440 120 440 101 419.5 c 128,-1,32
 82 399 82 399 79 358 c 1,33,-1
 42 358 l 1,34,-1
 42 454 l 1,12,13
EndSplineSet
EndChar
StartChar: at
Encoding: 64 64 35
Width: 640
Flags: W
Fore
397 157 m 2,0,-1
 397 181 l 2,1,2
 397 221 397 221 378 246 c 128,-1,3
 359 271 359 271 327 271 c 0,4,5
 296 271 296 271 277.5 243.5 c 128,-1,6
 259 216 259 216 259 170 c 256,7,8
 259 124 259 124 277.5 96 c 128,-1,9
 296 68 296 68 327 68 c 0,10,11
 359 68 359 68 378 92.5 c 128,-1,12
 397 117 397 117 397 157 c 2,0,-1
397 75 m 1,13,14
 384 52 384 52 361.5 40.5 c 128,-1,15
 339 29 339 29 311 29 c 0,16,17
 252 29 252 29 217.5 66.5 c 128,-1,18
 183 104 183 104 183 170 c 256,19,20
 183 236 183 236 217.5 273 c 128,-1,21
 252 310 252 310 311 310 c 0,22,23
 339 310 339 310 361.5 298.5 c 128,-1,24
 384 287 384 287 397 264 c 1,25,-1
 397 303 l 1,26,-1
 466 303 l 1,27,-1
 466 72 l 1,28,29
 511 84 511 84 535 120.5 c 128,-1,30
 559 157 559 157 559 212 c 0,31,32
 559 257 559 257 542 293.5 c 128,-1,33
 525 330 525 330 490 360 c 0,34,35
 461 384 461 384 422 397 c 128,-1,36
 383 410 383 410 340 410 c 0,37,38
 299 410 299 410 263.5 399 c 128,-1,39
 228 388 228 388 199 367 c 0,40,41
 155 333 155 333 131 282 c 128,-1,42
 107 231 107 231 107 170 c 0,43,44
 107 121 107 121 122 78 c 128,-1,45
 137 35 137 35 165 4 c 0,46,47
 198 -33 198 -33 241.5 -52.5 c 128,-1,48
 285 -72 285 -72 337 -72 c 0,49,50
 374 -72 374 -72 410 -61.5 c 128,-1,51
 446 -51 446 -51 478 -29 c 1,52,-1
 496 -59 l 1,53,54
 456 -85 456 -85 412.5 -98 c 128,-1,55
 369 -111 369 -111 324 -111 c 0,56,57
 264 -111 264 -111 213.5 -91.5 c 128,-1,58
 163 -72 163 -72 123 -33 c 256,59,60
 83 6 83 6 62.5 57.5 c 128,-1,61
 42 109 42 109 42 170 c 0,62,63
 42 230 42 230 62.5 281.5 c 128,-1,64
 83 333 83 333 123 372 c 0,65,66
 163 412 163 412 214 431 c 128,-1,67
 265 450 265 450 329 450 c 0,68,69
 385 450 385 450 430.5 435 c 128,-1,70
 476 420 476 420 512 389 c 0,71,72
 554 355 554 355 574.5 310.5 c 128,-1,73
 595 266 595 266 595 211 c 0,74,75
 595 125 595 125 545.5 77 c 128,-1,76
 496 29 496 29 407 29 c 2,77,-1
 397 29 l 1,78,-1
 397 75 l 1,13,14
EndSplineSet
EndChar
StartChar: A
Encoding: 65 65 36
Width: 497
Flags: W
Fore
-5 0 m 1,0,-1
 -5 38 l 1,1,-1
 33 38 l 1,2,-1
 209 467 l 1,3,-1
 284 467 l 1,4,-1
 460 38 l 1,5,-1
 504 38 l 1,6,-1
 504 0 l 1,7,-1
 285 0 l 1,8,-1
 285 38 l 1,9,-1
 331 38 l 1,10,-1
 292 133 l 1,11,-1
 117 133 l 1,12,-1
 78 38 l 1,13,-1
 134 38 l 1,14,-1
 134 0 l 1,15,-1
 -5 0 l 1,0,-1
132 171 m 1,16,-1
 277 171 l 1,17,-1
 205 349 l 1,18,-1
 132 171 l 1,16,-1
EndSplineSet
KernsSLIFO: 57 -50 0 0
EndChar
StartChar: B
Encoding: 66 66 37
Width: 541
Flags: W
Fore
30 0 m 1,0,-1
 30 38 l 1,1,-1
 90 38 l 1,2,-1
 90 429 l 1,3,-1
 30 429 l 1,4,-1
 30 467 l 1,5,-1
 307 467 l 2,6,7
 392 467 392 467 434.5 438 c 128,-1,8
 477 409 477 409 477 351 c 0,9,10
 477 310 477 310 448 285.5 c 128,-1,11
 419 261 419 261 360 255 c 1,12,13
 431 248 431 248 468.5 217 c 128,-1,14
 506 186 506 186 506 135 c 0,15,16
 506 66 506 66 453.5 33 c 128,-1,17
 401 0 401 0 289 0 c 2,18,-1
 30 0 l 1,0,-1
210 272 m 1,19,-1
 251 272 l 2,20,21
 305 272 305 272 330.5 291.5 c 128,-1,22
 356 311 356 311 356 351 c 0,23,24
 356 392 356 392 331.5 410.5 c 128,-1,25
 307 429 307 429 251 429 c 2,26,-1
 210 429 l 1,27,-1
 210 272 l 1,19,-1
210 38 m 1,28,-1
 255 38 l 2,29,30
 314 38 314 38 343 61.5 c 128,-1,31
 372 85 372 85 372 135 c 256,32,33
 372 185 372 185 343 209.5 c 128,-1,34
 314 234 314 234 255 234 c 2,35,-1
 210 234 l 1,36,-1
 210 38 l 1,28,-1
EndSplineSet
EndChar
StartChar: C
Encoding: 67 67 38
Width: 509
Flags: W
Fore
477 133 m 1,0,1
 458 61 458 61 410.5 26 c 128,-1,2
 363 -9 363 -9 282 -9 c 0,3,4
 164 -9 164 -9 95.5 56 c 128,-1,5
 27 121 27 121 27 233 c 256,6,7
 27 345 27 345 95.5 410 c 128,-1,8
 164 475 164 475 282 475 c 0,9,10
 324 475 324 475 368.5 465 c 128,-1,11
 413 455 413 455 464 435 c 1,12,-1
 464 320 l 1,13,-1
 424 320 l 1,14,15
 412 379 412 379 380 408 c 128,-1,16
 348 437 348 437 295 437 c 0,17,18
 227 437 227 437 194 387 c 128,-1,19
 161 337 161 337 161 233 c 256,20,21
 161 129 161 129 194 79 c 128,-1,22
 227 29 227 29 296 29 c 0,23,24
 342 29 342 29 371.5 55 c 128,-1,25
 401 81 401 81 415 133 c 1,26,-1
 477 133 l 1,0,1
EndSplineSet
EndChar
StartChar: D
Encoding: 68 68 39
Width: 555
Flags: W
Fore
210 38 m 1,0,-1
 253 38 l 2,1,2
 326 38 326 38 360 85 c 128,-1,3
 394 132 394 132 394 234 c 0,4,5
 394 335 394 335 360.5 382 c 128,-1,6
 327 429 327 429 253 429 c 2,7,-1
 210 429 l 1,8,-1
 210 38 l 1,0,-1
30 0 m 1,9,-1
 30 38 l 1,10,-1
 90 38 l 1,11,-1
 90 429 l 1,12,-1
 30 429 l 1,13,-1
 30 467 l 1,14,-1
 269 467 l 2,15,16
 395 467 395 467 461.5 407 c 128,-1,17
 528 347 528 347 528 234 c 0,18,19
 528 120 528 120 461.5 60 c 128,-1,20
 395 0 395 0 269 0 c 2,21,-1
 30 0 l 1,9,-1
EndSplineSet
EndChar
StartChar: E
Encoding: 69 69 40
Width: 488
Flags: W
Fore
30 0 m 1,0,-1
 30 38 l 1,1,-1
 90 38 l 1,2,-1
 90 429 l 1,3,-1
 30 429 l 1,4,-1
 30 467 l 1,5,-1
 449 467 l 1,6,-1
 449 356 l 1,7,-1
 406 356 l 1,8,-1
 406 424 l 1,9,-1
 210 424 l 1,10,-1
 210 274 l 1,11,-1
 332 274 l 1,12,-1
 332 333 l 1,13,-1
 375 333 l 1,14,-1
 375 172 l 1,15,-1
 332 172 l 1,16,-1
 332 232 l 1,17,-1
 210 232 l 1,18,-1
 210 43 l 1,19,-1
 412 43 l 1,20,-1
 412 110 l 1,21,-1
 455 110 l 1,22,-1
 455 0 l 1,23,-1
 30 0 l 1,0,-1
EndSplineSet
EndChar
StartChar: F
Encoding: 70 70 41
Width: 454
Flags: W
Fore
30 0 m 1,0,-1
 30 38 l 1,1,-1
 90 38 l 1,2,-1
 90 429 l 1,3,-1
 30 429 l 1,4,-1
 30 467 l 1,5,-1
 446 467 l 1,6,-1
 446 356 l 1,7,-1
 403 356 l 1,8,-1
 403 424 l 1,9,-1
 211 424 l 1,10,-1
 211 274 l 1,11,-1
 329 274 l 1,12,-1
 329 333 l 1,13,-1
 372 333 l 1,14,-1
 372 172 l 1,15,-1
 329 172 l 1,16,-1
 329 232 l 1,17,-1
 211 232 l 1,18,-1
 211 38 l 1,19,-1
 284 38 l 1,20,-1
 284 0 l 1,21,-1
 30 0 l 1,0,-1
EndSplineSet
EndChar
StartChar: G
Encoding: 71 71 42
Width: 547
Flags: W
Fore
440 320 m 1,0,1
 426 382 426 382 393 409.5 c 128,-1,2
 360 437 360 437 301 437 c 0,3,4
 228 437 228 437 194.5 388 c 128,-1,5
 161 339 161 339 161 233 c 0,6,7
 161 128 161 128 193.5 78.5 c 128,-1,8
 226 29 226 29 294 29 c 0,9,10
 321 29 321 29 343 34.5 c 128,-1,11
 365 40 365 40 384 52 c 1,12,-1
 384 180 l 1,13,-1
 328 180 l 1,14,-1
 328 218 l 1,15,-1
 496 218 l 1,16,-1
 496 39 l 1,17,18
 444 15 444 15 391.5 3 c 128,-1,19
 339 -9 339 -9 284 -9 c 0,20,21
 164 -9 164 -9 95.5 55.5 c 128,-1,22
 27 120 27 120 27 233 c 256,23,24
 27 346 27 346 95.5 410.5 c 128,-1,25
 164 475 164 475 284 475 c 0,26,27
 334 475 334 475 382.5 465 c 128,-1,28
 431 455 431 455 480 435 c 1,29,-1
 480 320 l 1,30,-1
 440 320 l 1,0,1
EndSplineSet
EndChar
StartChar: H
Encoding: 72 72 43
Width: 605
Flags: W
Fore
30 0 m 1,0,-1
 30 38 l 1,1,-1
 90 38 l 1,2,-1
 90 429 l 1,3,-1
 30 429 l 1,4,-1
 30 467 l 1,5,-1
 270 467 l 1,6,-1
 270 429 l 1,7,-1
 210 429 l 1,8,-1
 210 272 l 1,9,-1
 396 272 l 1,10,-1
 396 429 l 1,11,-1
 336 429 l 1,12,-1
 336 467 l 1,13,-1
 576 467 l 1,14,-1
 576 429 l 1,15,-1
 516 429 l 1,16,-1
 516 38 l 1,17,-1
 576 38 l 1,18,-1
 576 0 l 1,19,-1
 336 0 l 1,20,-1
 336 38 l 1,21,-1
 396 38 l 1,22,-1
 396 229 l 1,23,-1
 210 229 l 1,24,-1
 210 38 l 1,25,-1
 270 38 l 1,26,-1
 270 0 l 1,27,-1
 30 0 l 1,0,-1
EndSplineSet
EndChar
StartChar: I
Encoding: 73 73 44
Width: 300
Flags: W
Fore
30 0 m 1,0,-1
 30 38 l 1,1,-1
 90 38 l 1,2,-1
 90 429 l 1,3,-1
 30 429 l 1,4,-1
 30 467 l 1,5,-1
 270 467 l 1,6,-1
 270 429 l 1,7,-1
 210 429 l 1,8,-1
 210 38 l 1,9,-1
 270 38 l 1,10,-1
 270 0 l 1,11,-1
 30 0 l 1,0,-1
EndSplineSet
EndChar
StartChar: J
Encoding: 74 74 45
Width: 303
Flags: W
Fore
-47 -112 m 1,0,-1
 -47 -38 l 1,1,-1
 -6 -38 l 1,2,3
 -4 -68 -4 -68 8 -81.5 c 128,-1,4
 20 -95 20 -95 44 -95 c 0,5,6
 74 -95 74 -95 86 -72 c 128,-1,7
 98 -49 98 -49 98 15 c 2,8,-1
 98 429 l 1,9,-1
 30 429 l 1,10,-1
 30 467 l 1,11,-1
 278 467 l 1,12,-1
 278 429 l 1,13,-1
 219 429 l 1,14,-1
 219 13 l 2,15,16
 219 -63 219 -63 180.5 -98 c 128,-1,17
 142 -133 142 -133 59 -133 c 0,18,19
 33 -133 33 -133 6.5 -127.5 c 128,-1,20
 -20 -122 -20 -122 -47 -112 c 1,0,-1
EndSplineSet
EndChar
StartChar: K
Encoding: 75 75 46
Width: 556
Flags: W
Fore
30 0 m 1,0,-1
 30 38 l 1,1,-1
 90 38 l 1,2,-1
 90 429 l 1,3,-1
 30 429 l 1,4,-1
 30 467 l 1,5,-1
 270 467 l 1,6,-1
 270 429 l 1,7,-1
 210 429 l 1,8,-1
 210 259 l 1,9,-1
 408 429 l 1,10,-1
 358 429 l 1,11,-1
 358 467 l 1,12,-1
 532 467 l 1,13,-1
 532 429 l 1,14,-1
 470 429 l 1,15,-1
 302 285 l 1,16,-1
 530 38 l 1,17,-1
 576 38 l 1,18,-1
 576 0 l 1,19,-1
 418 0 l 1,20,-1
 210 227 l 1,21,-1
 210 38 l 1,22,-1
 270 38 l 1,23,-1
 270 0 l 1,24,-1
 30 0 l 1,0,-1
EndSplineSet
EndChar
StartChar: L
Encoding: 76 76 47
Width: 450
Flags: W
Fore
30 0 m 1,0,-1
 30 38 l 1,1,-1
 90 38 l 1,2,-1
 90 429 l 1,3,-1
 30 429 l 1,4,-1
 30 467 l 1,5,-1
 270 467 l 1,6,-1
 270 429 l 1,7,-1
 210 429 l 1,8,-1
 210 43 l 1,9,-1
 394 43 l 1,10,-1
 394 116 l 1,11,-1
 436 116 l 1,12,-1
 436 0 l 1,13,-1
 30 0 l 1,0,-1
EndSplineSet
EndChar
StartChar: M
Encoding: 77 77 48
Width: 708
Flags: W
Fore
27 0 m 1,0,-1
 27 38 l 1,1,-1
 86 38 l 1,2,-1
 86 429 l 1,3,-1
 27 429 l 1,4,-1
 27 467 l 1,5,-1
 220 467 l 1,6,-1
 353 167 l 1,7,-1
 486 467 l 1,8,-1
 678 467 l 1,9,-1
 678 429 l 1,10,-1
 619 429 l 1,11,-1
 619 38 l 1,12,-1
 678 38 l 1,13,-1
 678 0 l 1,14,-1
 438 0 l 1,15,-1
 438 38 l 1,16,-1
 498 38 l 1,17,-1
 498 394 l 1,18,-1
 353 68 l 1,19,-1
 274 68 l 1,20,-1
 130 394 l 1,21,-1
 130 38 l 1,22,-1
 189 38 l 1,23,-1
 189 0 l 1,24,-1
 27 0 l 1,0,-1
EndSplineSet
EndChar
StartChar: N
Encoding: 78 78 49
Width: 585
Flags: W
Fore
28 0 m 1,0,-1
 28 38 l 1,1,-1
 88 38 l 1,2,-1
 88 429 l 1,3,-1
 28 429 l 1,4,-1
 28 467 l 1,5,-1
 174 467 l 1,6,-1
 456 136 l 1,7,-1
 456 429 l 1,8,-1
 396 429 l 1,9,-1
 396 467 l 1,10,-1
 559 467 l 1,11,-1
 559 429 l 1,12,-1
 500 429 l 1,13,-1
 500 0 l 1,14,-1
 418 0 l 1,15,-1
 132 337 l 1,16,-1
 132 38 l 1,17,-1
 191 38 l 1,18,-1
 191 0 l 1,19,-1
 28 0 l 1,0,-1
EndSplineSet
EndChar
StartChar: O
Encoding: 79 79 50
Width: 557
Flags: W
Fore
278 29 m 0,0,1
 338 29 338 29 367 79 c 128,-1,2
 396 129 396 129 396 233 c 256,3,4
 396 337 396 337 367 387 c 128,-1,5
 338 437 338 437 278 437 c 0,6,7
 219 437 219 437 190 386 c 128,-1,8
 161 335 161 335 161 233 c 256,9,10
 161 131 161 131 190 80 c 128,-1,11
 219 29 219 29 278 29 c 0,0,1
278 -9 m 0,12,13
 161 -9 161 -9 94 55.5 c 128,-1,14
 27 120 27 120 27 233 c 256,15,16
 27 346 27 346 94 410.5 c 128,-1,17
 161 475 161 475 278 475 c 0,18,19
 396 475 396 475 463 410.5 c 128,-1,20
 530 346 530 346 530 233 c 256,21,22
 530 120 530 120 463 55.5 c 128,-1,23
 396 -9 396 -9 278 -9 c 0,12,13
EndSplineSet
EndChar
StartChar: P
Encoding: 80 80 51
Width: 481
Flags: W
Fore
30 0 m 1,0,-1
 30 38 l 1,1,-1
 90 38 l 1,2,-1
 90 429 l 1,3,-1
 30 429 l 1,4,-1
 30 467 l 1,5,-1
 296 467 l 2,6,7
 373 467 373 467 419 429.5 c 128,-1,8
 465 392 465 392 465 330 c 256,9,10
 465 268 465 268 419 230.5 c 128,-1,11
 373 193 373 193 296 193 c 2,12,-1
 210 193 l 1,13,-1
 210 38 l 1,14,-1
 285 38 l 1,15,-1
 285 0 l 1,16,-1
 30 0 l 1,0,-1
210 231 m 1,17,-1
 245 231 l 2,18,19
 285 231 285 231 309.5 258 c 128,-1,20
 334 285 334 285 334 330 c 256,21,22
 334 375 334 375 310 402 c 128,-1,23
 286 429 286 429 245 429 c 2,24,-1
 210 429 l 1,25,-1
 210 231 l 1,17,-1
EndSplineSet
EndChar
StartChar: Q
Encoding: 81 81 52
Width: 557
Flags: W
Fore
276 -9 m 1,0,1
 159 -7 159 -7 93 56.5 c 128,-1,2
 27 120 27 120 27 233 c 256,3,4
 27 346 27 346 94 410.5 c 128,-1,5
 161 475 161 475 278 475 c 0,6,7
 396 475 396 475 463 410.5 c 128,-1,8
 530 346 530 346 530 233 c 0,9,10
 530 133 530 133 478.5 71.5 c 128,-1,11
 427 10 427 10 332 -5 c 1,12,13
 349 -23 349 -23 372.5 -30.5 c 128,-1,14
 396 -38 396 -38 434 -38 c 2,15,-1
 450 -38 l 1,16,-1
 450 -115 l 1,17,-1
 441 -115 l 2,18,19
 381 -115 381 -115 341.5 -89.5 c 128,-1,20
 302 -64 302 -64 276 -9 c 1,0,1
278 29 m 0,21,22
 338 29 338 29 367 79 c 128,-1,23
 396 129 396 129 396 233 c 256,24,25
 396 337 396 337 367 387 c 128,-1,26
 338 437 338 437 278 437 c 0,27,28
 219 437 219 437 190 386 c 128,-1,29
 161 335 161 335 161 233 c 256,30,31
 161 131 161 131 190 80 c 128,-1,32
 219 29 219 29 278 29 c 0,21,22
EndSplineSet
EndChar
StartChar: R
Encoding: 82 82 53
Width: 532
Flags: W
Fore
340 228 m 1,0,1
 367 224 367 224 386.5 209.5 c 128,-1,2
 406 195 406 195 420 168 c 2,3,-1
 488 38 l 1,4,-1
 536 38 l 1,5,-1
 536 0 l 1,6,-1
 382 0 l 1,7,-1
 308 141 l 2,8,9
 286 185 286 185 271 197 c 128,-1,10
 256 209 256 209 229 209 c 2,11,-1
 210 209 l 1,12,-1
 210 38 l 1,13,-1
 270 38 l 1,14,-1
 270 0 l 1,15,-1
 30 0 l 1,16,-1
 30 38 l 1,17,-1
 90 38 l 1,18,-1
 90 429 l 1,19,-1
 30 429 l 1,20,-1
 30 467 l 1,21,-1
 296 467 l 2,22,23
 378 467 378 467 422 434 c 128,-1,24
 466 401 466 401 466 341 c 0,25,26
 466 292 466 292 434.5 264 c 128,-1,27
 403 236 403 236 340 228 c 1,0,1
210 246 m 1,28,-1
 251 246 l 2,29,30
 294 246 294 246 318 270 c 128,-1,31
 342 294 342 294 342 338 c 256,32,33
 342 382 342 382 318 405.5 c 128,-1,34
 294 429 294 429 251 429 c 2,35,-1
 210 429 l 1,36,-1
 210 246 l 1,28,-1
EndSplineSet
EndChar
StartChar: S
Encoding: 83 83 54
Width: 462
Flags: W
Fore
49 22 m 1,0,-1
 49 133 l 1,1,-1
 89 133 l 1,2,3
 98 81 98 81 132 55 c 128,-1,4
 166 29 166 29 225 29 c 0,5,6
 274 29 274 29 299 47.5 c 128,-1,7
 324 66 324 66 324 101 c 0,8,9
 324 129 324 129 307 145 c 128,-1,10
 290 161 290 161 236 174 c 2,11,-1
 166 191 l 2,12,13
 98 209 98 209 70 240 c 128,-1,14
 42 271 42 271 42 328 c 0,15,16
 42 398 42 398 88 436.5 c 128,-1,17
 134 475 134 475 218 475 c 0,18,19
 259 475 259 475 303 468 c 128,-1,20
 347 461 347 461 394 447 c 1,21,-1
 394 344 l 1,22,-1
 355 344 l 1,23,24
 346 392 346 392 315 414.5 c 128,-1,25
 284 437 284 437 228 437 c 0,26,27
 182 437 182 437 158 421 c 128,-1,28
 134 405 134 405 134 373 c 0,29,30
 134 344 134 344 150.5 329 c 128,-1,31
 167 314 167 314 230 298 c 2,32,-1
 300 280 l 2,33,34
 365 264 365 264 394.5 229.5 c 128,-1,35
 424 195 424 195 424 135 c 0,36,37
 424 65 424 65 375 28 c 128,-1,38
 326 -9 326 -9 232 -9 c 0,39,40
 186 -9 186 -9 141 -1.5 c 128,-1,41
 96 6 96 6 49 22 c 1,0,-1
EndSplineSet
EndChar
StartChar: T
Encoding: 84 84 55
Width: 476
Flags: W
Fore
116 0 m 1,0,-1
 116 38 l 1,1,-1
 178 38 l 1,2,-1
 178 424 l 1,3,-1
 50 424 l 1,4,-1
 50 350 l 1,5,-1
 7 350 l 1,6,-1
 7 467 l 1,7,-1
 470 467 l 1,8,-1
 470 350 l 1,9,-1
 428 350 l 1,10,-1
 428 424 l 1,11,-1
 299 424 l 1,12,-1
 299 38 l 1,13,-1
 361 38 l 1,14,-1
 361 0 l 1,15,-1
 116 0 l 1,0,-1
EndSplineSet
EndChar
StartChar: U
Encoding: 85 85 56
Width: 558
Flags: W
Fore
81 429 m 1,0,-1
 22 429 l 1,1,-1
 22 467 l 1,2,-1
 262 467 l 1,3,-1
 262 429 l 1,4,-1
 202 429 l 1,5,-1
 202 195 l 2,6,7
 202 108 202 108 229.5 73 c 128,-1,8
 257 38 257 38 323 38 c 0,9,10
 387 38 387 38 414 73.5 c 128,-1,11
 441 109 441 109 441 195 c 2,12,-1
 441 429 l 1,13,-1
 381 429 l 1,14,-1
 381 467 l 1,15,-1
 544 467 l 1,16,-1
 544 429 l 1,17,-1
 484 429 l 1,18,-1
 484 189 l 2,19,20
 484 82 484 82 438 36.5 c 128,-1,21
 392 -9 392 -9 283 -9 c 256,22,23
 174 -9 174 -9 127.5 37 c 128,-1,24
 81 83 81 83 81 189 c 2,25,-1
 81 429 l 1,0,-1
EndSplineSet
EndChar
StartChar: V
Encoding: 86 86 57
Width: 497
Flags: W
Fore
506 467 m 1,0,-1
 506 429 l 1,1,-1
 467 429 l 1,2,-1
 291 0 l 1,3,-1
 216 0 l 1,4,-1
 40 429 l 1,5,-1
 -4 429 l 1,6,-1
 -4 467 l 1,7,-1
 215 467 l 1,8,-1
 215 429 l 1,9,-1
 170 429 l 1,10,-1
 296 120 l 1,11,-1
 422 429 l 1,12,-1
 367 429 l 1,13,-1
 367 467 l 1,14,-1
 506 467 l 1,0,-1
EndSplineSet
KernsSLIFO: 36 -50 0 0
EndChar
StartChar: W
Encoding: 87 87 58
Width: 719
Flags: W
Fore
545 0 m 1,0,-1
 465 0 l 1,1,-1
 359 340 l 1,2,-1
 253 0 l 1,3,-1
 173 0 l 1,4,-1
 40 429 l 1,5,-1
 -6 429 l 1,6,-1
 -6 467 l 1,7,-1
 216 467 l 1,8,-1
 216 429 l 1,9,-1
 166 429 l 1,10,-1
 255 142 l 1,11,-1
 355 467 l 1,12,-1
 444 467 l 1,13,-1
 547 137 l 1,14,-1
 637 429 l 1,15,-1
 582 429 l 1,16,-1
 582 467 l 1,17,-1
 726 467 l 1,18,-1
 726 429 l 1,19,-1
 678 429 l 1,20,-1
 545 0 l 1,0,-1
EndSplineSet
EndChar
StartChar: X
Encoding: 88 88 59
Width: 497
Flags: W
Fore
217 180 m 1,0,-1
 120 38 l 1,1,-1
 177 38 l 1,2,-1
 177 0 l 1,3,-1
 12 0 l 1,4,-1
 12 38 l 1,5,-1
 69 38 l 1,6,-1
 192 216 l 1,7,-1
 46 429 l 1,8,-1
 3 429 l 1,9,-1
 3 467 l 1,10,-1
 235 467 l 1,11,-1
 235 429 l 1,12,-1
 184 429 l 1,13,-1
 274 298 l 1,14,-1
 364 429 l 1,15,-1
 309 429 l 1,16,-1
 309 467 l 1,17,-1
 472 467 l 1,18,-1
 472 429 l 1,19,-1
 414 429 l 1,20,-1
 299 261 l 1,21,-1
 452 38 l 1,22,-1
 496 38 l 1,23,-1
 496 0 l 1,24,-1
 263 0 l 1,25,-1
 263 38 l 1,26,-1
 315 38 l 1,27,-1
 217 180 l 1,0,-1
EndSplineSet
EndChar
StartChar: Y
Encoding: 89 89 60
Width: 457
Flags: W
Fore
110 0 m 1,0,-1
 110 38 l 1,1,-1
 173 38 l 1,2,-1
 173 193 l 1,3,-1
 34 429 l 1,4,-1
 -6 429 l 1,5,-1
 -6 467 l 1,6,-1
 218 467 l 1,7,-1
 218 429 l 1,8,-1
 166 429 l 1,9,-1
 271 251 l 1,10,-1
 376 429 l 1,11,-1
 329 429 l 1,12,-1
 329 467 l 1,13,-1
 463 467 l 1,14,-1
 463 429 l 1,15,-1
 423 429 l 1,16,-1
 294 209 l 1,17,-1
 294 38 l 1,18,-1
 356 38 l 1,19,-1
 356 0 l 1,20,-1
 110 0 l 1,0,-1
EndSplineSet
EndChar
StartChar: Z
Encoding: 90 90 61
Width: 467
Flags: W
Fore
24 0 m 1,0,-1
 24 44 l 1,1,-1
 302 424 l 1,2,-1
 79 424 l 1,3,-1
 79 354 l 1,4,-1
 36 354 l 1,5,-1
 36 467 l 1,6,-1
 441 467 l 1,7,-1
 441 422 l 1,8,-1
 166 43 l 1,9,-1
 401 43 l 1,10,-1
 401 108 l 1,11,-1
 444 108 l 1,12,-1
 444 0 l 1,13,-1
 24 0 l 1,0,-1
EndSplineSet
EndChar
StartChar: bracketleft
Encoding: 91 91 62
Width: 303
Flags: W
Fore
80 486 m 1,0,-1
 257 486 l 1,1,-1
 257 449 l 1,2,-1
 191 449 l 1,3,-1
 191 -47 l 1,4,-1
 257 -47 l 1,5,-1
 257 -84 l 1,6,-1
 80 -84 l 1,7,-1
 80 486 l 1,0,-1
EndSplineSet
EndChar
StartChar: backslash
Encoding: 92 92 63
Width: 234
Flags: W
Fore
69 467 m 1,0,-1
 234 -60 l 1,1,-1
 164 -60 l 1,2,-1
 0 467 l 1,3,-1
 69 467 l 1,0,-1
EndSplineSet
EndChar
StartChar: bracketright
Encoding: 93 93 64
Width: 303
Flags: W
Fore
223 486 m 1,0,-1
 223 -84 l 1,1,-1
 45 -84 l 1,2,-1
 45 -47 l 1,3,-1
 112 -47 l 1,4,-1
 112 449 l 1,5,-1
 45 449 l 1,6,-1
 45 486 l 1,7,-1
 223 486 l 1,0,-1
EndSplineSet
EndChar
StartChar: asciicircum
Encoding: 94 94 65
Width: 536
Flags: W
Fore
304 467 m 1,0,-1
 472 292 l 1,1,-1
 405 292 l 1,2,-1
 268 391 l 1,3,-1
 131 292 l 1,4,-1
 65 292 l 1,5,-1
 234 467 l 1,6,-1
 304 467 l 1,0,-1
EndSplineSet
EndChar
StartChar: underscore
Encoding: 95 95 66
Width: 320
Flags: W
Fore
320 -92 m 1,0,-1
 320 -151 l 1,1,-1
 0 -151 l 1,2,-1
 0 -92 l 1,3,-1
 320 -92 l 1,0,-1
EndSplineSet
EndChar
StartChar: grave
Encoding: 96 96 67
Width: 320
Flags: W
Fore
131 512 m 1,0,-1
 212 394 l 1,1,-1
 161 394 l 1,2,-1
 44 512 l 1,3,-1
 131 512 l 1,0,-1
EndSplineSet
EndChar
StartChar: a
Encoding: 97 97 68
Width: 415
Flags: W
Fore
353 204 m 2,0,-1
 353 38 l 1,1,-1
 400 38 l 1,2,-1
 400 0 l 1,3,-1
 242 0 l 1,4,-1
 242 42 l 1,5,6
 220 16 220 16 193 3.5 c 128,-1,7
 166 -9 166 -9 132 -9 c 0,8,9
 81 -9 81 -9 53.5 18 c 128,-1,10
 26 45 26 45 26 97 c 0,11,12
 26 152 26 152 65.5 180 c 128,-1,13
 105 208 105 208 184 208 c 2,14,-1
 242 208 l 1,15,-1
 242 228 l 2,16,17
 242 268 242 268 223 287.5 c 128,-1,18
 204 307 204 307 164 307 c 0,19,20
 131 307 131 307 113 293.5 c 128,-1,21
 95 280 95 280 87 248 c 1,22,-1
 52 248 l 1,23,-1
 52 320 l 1,24,25
 81 331 81 331 113 336 c 128,-1,26
 145 341 145 341 180 341 c 0,27,28
 269 341 269 341 311 308 c 128,-1,29
 353 275 353 275 353 204 c 2,0,-1
242 104 m 2,30,-1
 242 171 l 1,31,-1
 200 171 l 2,32,33
 170 171 170 171 153 154 c 128,-1,34
 136 137 136 137 136 106 c 0,35,36
 136 74 136 74 148 58.5 c 128,-1,37
 160 43 160 43 185 43 c 0,38,39
 211 43 211 43 226.5 60 c 128,-1,40
 242 77 242 77 242 104 c 2,30,-1
EndSplineSet
Substitution: 0 65534 'L019' uni0E38
Substitution: 0 65534 'L019' uni0E38
EndChar
StartChar: b
Encoding: 98 98 69
Width: 447
Flags: W
Fore
62 38 m 1,0,-1
 62 449 l 1,1,-1
 15 449 l 1,2,-1
 15 486 l 1,3,-1
 173 486 l 1,4,-1
 173 290 l 1,5,6
 187 316 187 316 210.5 328.5 c 128,-1,7
 234 341 234 341 269 341 c 0,8,9
 340 341 340 341 381 294.5 c 128,-1,10
 422 248 422 248 422 166 c 256,11,12
 422 84 422 84 381 37.5 c 128,-1,13
 340 -9 340 -9 269 -9 c 0,14,15
 234 -9 234 -9 210.5 3.5 c 128,-1,16
 187 16 187 16 173 42 c 1,17,-1
 173 0 l 1,18,-1
 15 0 l 1,19,-1
 15 38 l 1,20,-1
 62 38 l 1,0,-1
173 150 m 2,21,22
 173 92 173 92 187.5 66 c 128,-1,23
 202 40 202 40 236 40 c 0,24,25
 269 40 269 40 283.5 67.5 c 128,-1,26
 298 95 298 95 298 166 c 0,27,28
 298 238 298 238 283.5 265 c 128,-1,29
 269 292 269 292 236 292 c 0,30,31
 202 292 202 292 187.5 266.5 c 128,-1,32
 173 241 173 241 173 182 c 2,33,-1
 173 150 l 2,21,22
EndSplineSet
Substitution: 0 65534 'L019' uni0E39
Substitution: 0 65534 'L019' uni0E39
EndChar
StartChar: c
Encoding: 99 99 70
Width: 390
Flags: W
Fore
361 104 m 1,0,1
 349 47 349 47 312.5 19 c 128,-1,2
 276 -9 276 -9 212 -9 c 0,3,4
 124 -9 124 -9 75 37 c 128,-1,5
 26 83 26 83 26 166 c 256,6,7
 26 249 26 249 74 295 c 128,-1,8
 122 341 122 341 208 341 c 0,9,10
 243 341 243 341 278.5 334.5 c 128,-1,11
 314 328 314 328 350 315 c 1,12,-1
 350 223 l 1,13,-1
 315 223 l 1,14,15
 310 265 310 265 290.5 285.5 c 128,-1,16
 271 306 271 306 235 306 c 0,17,18
 189 306 189 306 169.5 274.5 c 128,-1,19
 150 243 150 243 150 166 c 0,20,21
 150 91 150 91 169 58.5 c 128,-1,22
 188 26 188 26 231 26 c 0,23,24
 264 26 264 26 284.5 46.5 c 128,-1,25
 305 67 305 67 309 104 c 1,26,-1
 361 104 l 1,0,1
EndSplineSet
Substitution: 0 65534 'L019' uni0E3A
Substitution: 0 65534 'L019' uni0E3A
EndChar
StartChar: d
Encoding: 100 100 71
Width: 447
Flags: W
Fore
275 150 m 2,0,-1
 275 182 l 2,1,2
 275 241 275 241 259.5 266.5 c 128,-1,3
 244 292 244 292 212 292 c 0,4,5
 177 292 177 292 163.5 265 c 128,-1,6
 150 238 150 238 150 166 c 0,7,8
 150 95 150 95 164 67.5 c 128,-1,9
 178 40 178 40 212 40 c 0,10,11
 244 40 244 40 259.5 66 c 128,-1,12
 275 92 275 92 275 150 c 2,0,-1
385 38 m 1,13,-1
 433 38 l 1,14,-1
 433 0 l 1,15,-1
 275 0 l 1,16,-1
 275 42 l 1,17,18
 260 16 260 16 236.5 3.5 c 128,-1,19
 213 -9 213 -9 178 -9 c 0,20,21
 107 -9 107 -9 66.5 37.5 c 128,-1,22
 26 84 26 84 26 166 c 256,23,24
 26 248 26 248 66.5 294.5 c 128,-1,25
 107 341 107 341 178 341 c 0,26,27
 213 341 213 341 236.5 328.5 c 128,-1,28
 260 316 260 316 275 290 c 1,29,-1
 275 449 l 1,30,-1
 227 449 l 1,31,-1
 227 486 l 1,32,-1
 385 486 l 1,33,-1
 385 38 l 1,13,-1
EndSplineSet
EndChar
StartChar: e
Encoding: 101 101 72
Width: 407
Flags: W
Fore
257 188 m 1,0,1
 257 253 257 253 244.5 279.5 c 128,-1,2
 232 306 232 306 203 306 c 256,3,4
 174 306 174 306 162 280 c 128,-1,5
 150 254 150 254 150 193 c 2,6,-1
 150 188 l 1,7,-1
 257 188 l 1,0,1
378 150 m 1,8,-1
 150 150 l 1,9,-1
 150 148 l 2,10,11
 150 83 150 83 169 54.5 c 128,-1,12
 188 26 188 26 232 26 c 0,13,14
 268 26 268 26 290 45.5 c 128,-1,15
 312 65 312 65 318 100 c 1,16,-1
 370 100 l 1,17,18
 356 44 356 44 316 17.5 c 128,-1,19
 276 -9 276 -9 205 -9 c 0,20,21
 118 -9 118 -9 72 36.5 c 128,-1,22
 26 82 26 82 26 166 c 0,23,24
 26 249 26 249 73 295 c 128,-1,25
 120 341 120 341 205 341 c 0,26,27
 287 341 287 341 331 292.5 c 128,-1,28
 375 244 375 244 378 150 c 1,8,-1
EndSplineSet
EndChar
StartChar: f
Encoding: 102 102 73
Width: 275
Flags: W
Fore
310 403 m 1,0,-1
 275 403 l 1,1,2
 272 428 272 428 260.5 439.5 c 128,-1,3
 249 451 249 451 227 451 c 0,4,5
 202 451 202 451 191 433 c 128,-1,6
 180 415 180 415 180 375 c 2,7,-1
 180 332 l 1,8,-1
 263 332 l 1,9,-1
 263 294 l 1,10,-1
 180 294 l 1,11,-1
 180 38 l 1,12,-1
 244 38 l 1,13,-1
 244 0 l 1,14,-1
 22 0 l 1,15,-1
 22 38 l 1,16,-1
 69 38 l 1,17,-1
 69 294 l 1,18,-1
 20 294 l 1,19,-1
 20 332 l 1,20,-1
 69 332 l 1,21,-1
 69 374 l 2,22,23
 69 429 69 429 104.5 457.5 c 128,-1,24
 140 486 140 486 208 486 c 0,25,26
 235 486 235 486 260 483 c 128,-1,27
 285 480 285 480 310 474 c 1,28,-1
 310 403 l 1,0,-1
EndSplineSet
EndChar
StartChar: g
Encoding: 103 103 74
Width: 447
Flags: W
Fore
385 294 m 1,0,-1
 385 4 l 2,1,2
 385 -66 385 -66 335 -104 c 128,-1,3
 285 -142 285 -142 195 -142 c 0,4,5
 161 -142 161 -142 127 -137 c 128,-1,6
 93 -132 93 -132 58 -122 c 1,7,-1
 58 -42 l 1,8,-1
 93 -42 l 1,9,10
 97 -75 97 -75 119 -91 c 128,-1,11
 141 -107 141 -107 181 -107 c 0,12,13
 232 -107 232 -107 253.5 -82.5 c 128,-1,14
 275 -58 275 -58 275 4 c 2,15,-1
 275 42 l 1,16,17
 260 16 260 16 236.5 3.5 c 128,-1,18
 213 -9 213 -9 178 -9 c 0,19,20
 107 -9 107 -9 66.5 37.5 c 128,-1,21
 26 84 26 84 26 166 c 256,22,23
 26 248 26 248 66.5 294.5 c 128,-1,24
 107 341 107 341 178 341 c 0,25,26
 213 341 213 341 236.5 328.5 c 128,-1,27
 260 316 260 316 275 290 c 1,28,-1
 275 332 l 1,29,-1
 433 332 l 1,30,-1
 433 294 l 1,31,-1
 385 294 l 1,0,-1
275 182 m 2,32,33
 275 241 275 241 259.5 266.5 c 128,-1,34
 244 292 244 292 212 292 c 0,35,36
 177 292 177 292 163.5 265 c 128,-1,37
 150 238 150 238 150 166 c 0,38,39
 150 95 150 95 164 67.5 c 128,-1,40
 178 40 178 40 212 40 c 0,41,42
 244 40 244 40 259.5 66 c 128,-1,43
 275 92 275 92 275 150 c 2,44,-1
 275 182 l 2,32,33
EndSplineSet
EndChar
StartChar: h
Encoding: 104 104 75
Width: 465
Flags: W
Fore
22 0 m 1,0,-1
 22 38 l 1,1,-1
 69 38 l 1,2,-1
 69 449 l 1,3,-1
 20 449 l 1,4,-1
 20 486 l 1,5,-1
 180 486 l 1,6,-1
 180 285 l 1,7,8
 200 315 200 315 225.5 328 c 128,-1,9
 251 341 251 341 290 341 c 0,10,11
 346 341 346 341 374.5 308 c 128,-1,12
 403 275 403 275 403 211 c 2,13,-1
 403 38 l 1,14,-1
 451 38 l 1,15,-1
 451 0 l 1,16,-1
 252 0 l 1,17,-1
 252 38 l 1,18,-1
 292 38 l 1,19,-1
 292 214 l 2,20,21
 292 257 292 257 281.5 273 c 128,-1,22
 271 289 271 289 244 289 c 0,23,24
 211 289 211 289 195.5 264.5 c 128,-1,25
 180 240 180 240 180 187 c 2,26,-1
 180 38 l 1,27,-1
 220 38 l 1,28,-1
 220 0 l 1,29,-1
 22 0 l 1,0,-1
EndSplineSet
EndChar
StartChar: i
Encoding: 105 105 76
Width: 243
Flags: W
Fore
59 426 m 0,0,1
 59 452 59 452 76 469 c 128,-1,2
 93 486 93 486 119 486 c 0,3,4
 144 486 144 486 161.5 469 c 128,-1,5
 179 452 179 452 179 426 c 0,6,7
 179 401 179 401 161.5 384 c 128,-1,8
 144 367 144 367 119 367 c 0,9,10
 93 367 93 367 76 384 c 128,-1,11
 59 401 59 401 59 426 c 0,0,1
180 38 m 1,12,-1
 227 38 l 1,13,-1
 227 0 l 1,14,-1
 22 0 l 1,15,-1
 22 38 l 1,16,-1
 69 38 l 1,17,-1
 69 294 l 1,18,-1
 22 294 l 1,19,-1
 22 332 l 1,20,-1
 180 332 l 1,21,-1
 180 38 l 1,12,-1
EndSplineSet
EndChar
StartChar: j
Encoding: 106 106 77
Width: 232
Flags: W
Fore
56 426 m 0,0,1
 56 452 56 452 73 469 c 128,-1,2
 90 486 90 486 116 486 c 0,3,4
 140 486 140 486 157.5 468.5 c 128,-1,5
 175 451 175 451 175 426 c 256,6,7
 175 401 175 401 158 384 c 128,-1,8
 141 367 141 367 116 367 c 256,9,10
 91 367 91 367 73.5 384 c 128,-1,11
 56 401 56 401 56 426 c 0,0,1
68 294 m 1,12,-1
 21 294 l 1,13,-1
 21 332 l 1,14,-1
 179 332 l 1,15,-1
 179 -39 l 2,16,17
 179 -90 179 -90 143 -116 c 128,-1,18
 107 -142 107 -142 36 -142 c 0,19,20
 18 -142 18 -142 -3.5 -139 c 128,-1,21
 -25 -136 -25 -136 -47 -130 c 1,22,-1
 -47 -60 l 1,23,-1
 -12 -60 l 1,24,25
 -12 -84 -12 -84 -2.5 -95.5 c 128,-1,26
 7 -107 7 -107 28 -107 c 0,27,28
 51 -107 51 -107 59.5 -92 c 128,-1,29
 68 -77 68 -77 68 -39 c 2,30,-1
 68 294 l 1,12,-1
EndSplineSet
EndChar
StartChar: k
Encoding: 107 107 78
Width: 444
Flags: W
Fore
221 0 m 1,0,-1
 22 0 l 1,1,-1
 22 38 l 1,2,-1
 69 38 l 1,3,-1
 69 449 l 1,4,-1
 22 449 l 1,5,-1
 22 486 l 1,6,-1
 180 486 l 1,7,-1
 180 174 l 1,8,-1
 314 294 l 1,9,-1
 274 294 l 1,10,-1
 274 332 l 1,11,-1
 426 332 l 1,12,-1
 426 294 l 1,13,-1
 364 294 l 1,14,-1
 278 218 l 1,15,-1
 419 38 l 1,16,-1
 454 38 l 1,17,-1
 454 0 l 1,18,-1
 264 0 l 1,19,-1
 264 38 l 1,20,-1
 303 38 l 1,21,-1
 211 156 l 1,22,-1
 180 129 l 1,23,-1
 180 38 l 1,24,-1
 221 38 l 1,25,-1
 221 0 l 1,0,-1
EndSplineSet
EndChar
StartChar: l
Encoding: 108 108 79
Width: 243
Flags: W
Fore
180 38 m 1,0,-1
 227 38 l 1,1,-1
 227 0 l 1,2,-1
 22 0 l 1,3,-1
 22 38 l 1,4,-1
 69 38 l 1,5,-1
 69 449 l 1,6,-1
 22 449 l 1,7,-1
 22 486 l 1,8,-1
 180 486 l 1,9,-1
 180 38 l 1,0,-1
EndSplineSet
EndChar
StartChar: m
Encoding: 109 109 80
Width: 677
Flags: W
Fore
388 278 m 1,0,1
 412 311 412 311 438.5 326 c 128,-1,2
 465 341 465 341 501 341 c 0,3,4
 559 341 559 341 587 308.5 c 128,-1,5
 615 276 615 276 615 211 c 2,6,-1
 615 38 l 1,7,-1
 662 38 l 1,8,-1
 662 0 l 1,9,-1
 465 0 l 1,10,-1
 465 38 l 1,11,-1
 504 38 l 1,12,-1
 504 195 l 2,13,14
 504 257 504 257 494.5 273 c 128,-1,15
 485 289 485 289 460 289 c 0,16,17
 430 289 430 289 413.5 266.5 c 128,-1,18
 397 244 397 244 397 202 c 2,19,-1
 397 38 l 1,20,-1
 437 38 l 1,21,-1
 437 0 l 1,22,-1
 247 0 l 1,23,-1
 247 38 l 1,24,-1
 287 38 l 1,25,-1
 287 195 l 2,26,27
 287 257 287 257 277.5 273 c 128,-1,28
 268 289 268 289 242 289 c 0,29,30
 212 289 212 289 196 266.5 c 128,-1,31
 180 244 180 244 180 202 c 2,32,-1
 180 38 l 1,33,-1
 220 38 l 1,34,-1
 220 0 l 1,35,-1
 22 0 l 1,36,-1
 22 38 l 1,37,-1
 69 38 l 1,38,-1
 69 294 l 1,39,-1
 22 294 l 1,40,-1
 22 332 l 1,41,-1
 180 332 l 1,42,-1
 180 285 l 1,43,44
 199 314 199 314 224 327.5 c 128,-1,45
 249 341 249 341 284 341 c 0,46,47
 324 341 324 341 349 325.5 c 128,-1,48
 374 310 374 310 388 278 c 1,0,1
EndSplineSet
EndChar
StartChar: n
Encoding: 110 110 81
Width: 465
Flags: W
Fore
22 0 m 1,0,-1
 22 38 l 1,1,-1
 69 38 l 1,2,-1
 69 294 l 1,3,-1
 22 294 l 1,4,-1
 22 332 l 1,5,-1
 180 332 l 1,6,-1
 180 285 l 1,7,8
 200 315 200 315 225.5 328 c 128,-1,9
 251 341 251 341 290 341 c 0,10,11
 346 341 346 341 374.5 308 c 128,-1,12
 403 275 403 275 403 211 c 2,13,-1
 403 38 l 1,14,-1
 451 38 l 1,15,-1
 451 0 l 1,16,-1
 252 0 l 1,17,-1
 252 38 l 1,18,-1
 292 38 l 1,19,-1
 292 214 l 2,20,21
 292 257 292 257 281.5 273 c 128,-1,22
 271 289 271 289 244 289 c 0,23,24
 211 289 211 289 195.5 264.5 c 128,-1,25
 180 240 180 240 180 187 c 2,26,-1
 180 38 l 1,27,-1
 220 38 l 1,28,-1
 220 0 l 1,29,-1
 22 0 l 1,0,-1
EndSplineSet
EndChar
StartChar: o
Encoding: 111 111 82
Width: 427
Flags: W
Fore
214 26 m 256,0,1
 249 26 249 26 263 56 c 128,-1,2
 277 86 277 86 277 166 c 256,3,4
 277 246 277 246 263 276 c 128,-1,5
 249 306 249 306 214 306 c 256,6,7
 179 306 179 306 164.5 276 c 128,-1,8
 150 246 150 246 150 166 c 0,9,10
 150 87 150 87 164.5 56.5 c 128,-1,11
 179 26 179 26 214 26 c 256,0,1
214 -9 m 0,12,13
 126 -9 126 -9 76 37.5 c 128,-1,14
 26 84 26 84 26 166 c 256,15,16
 26 248 26 248 76 294.5 c 128,-1,17
 126 341 126 341 214 341 c 256,18,19
 302 341 302 341 351.5 294.5 c 128,-1,20
 401 248 401 248 401 166 c 256,21,22
 401 84 401 84 351 37.5 c 128,-1,23
 301 -9 301 -9 214 -9 c 0,12,13
EndSplineSet
EndChar
StartChar: p
Encoding: 112 112 83
Width: 447
Flags: W
Fore
173 182 m 2,0,-1
 173 150 l 2,1,2
 173 92 173 92 187.5 66 c 128,-1,3
 202 40 202 40 236 40 c 0,4,5
 269 40 269 40 283.5 67.5 c 128,-1,6
 298 95 298 95 298 166 c 0,7,8
 298 238 298 238 283.5 265 c 128,-1,9
 269 292 269 292 236 292 c 0,10,11
 202 292 202 292 187.5 266.5 c 128,-1,12
 173 241 173 241 173 182 c 2,0,-1
62 294 m 1,13,-1
 15 294 l 1,14,-1
 15 332 l 1,15,-1
 173 332 l 1,16,-1
 173 290 l 1,17,18
 187 316 187 316 210.5 328.5 c 128,-1,19
 234 341 234 341 269 341 c 0,20,21
 340 341 340 341 381 294.5 c 128,-1,22
 422 248 422 248 422 166 c 256,23,24
 422 84 422 84 381 37.5 c 128,-1,25
 340 -9 340 -9 269 -9 c 0,26,27
 234 -9 234 -9 210.5 3.5 c 128,-1,28
 187 16 187 16 173 42 c 1,29,-1
 173 -95 l 1,30,-1
 224 -95 l 1,31,-1
 224 -133 l 1,32,-1
 15 -133 l 1,33,-1
 15 -95 l 1,34,-1
 62 -95 l 1,35,-1
 62 294 l 1,13,-1
EndSplineSet
EndChar
StartChar: q
Encoding: 113 113 84
Width: 447
Flags: W
Fore
385 294 m 1,0,-1
 385 -95 l 1,1,-1
 433 -95 l 1,2,-1
 433 -133 l 1,3,-1
 223 -133 l 1,4,-1
 223 -95 l 1,5,-1
 275 -95 l 1,6,-1
 275 42 l 1,7,8
 260 16 260 16 236.5 3.5 c 128,-1,9
 213 -9 213 -9 178 -9 c 0,10,11
 107 -9 107 -9 66.5 37.5 c 128,-1,12
 26 84 26 84 26 166 c 256,13,14
 26 248 26 248 66.5 294.5 c 128,-1,15
 107 341 107 341 178 341 c 0,16,17
 213 341 213 341 236.5 328.5 c 128,-1,18
 260 316 260 316 275 290 c 1,19,-1
 275 332 l 1,20,-1
 433 332 l 1,21,-1
 433 294 l 1,22,-1
 385 294 l 1,0,-1
275 182 m 2,23,24
 275 241 275 241 259.5 266.5 c 128,-1,25
 244 292 244 292 212 292 c 0,26,27
 177 292 177 292 163.5 265 c 128,-1,28
 150 238 150 238 150 166 c 0,29,30
 150 95 150 95 164 67.5 c 128,-1,31
 178 40 178 40 212 40 c 0,32,33
 244 40 244 40 259.5 66 c 128,-1,34
 275 92 275 92 275 150 c 2,35,-1
 275 182 l 2,23,24
EndSplineSet
EndChar
StartChar: r
Encoding: 114 114 85
Width: 337
Flags: W
Fore
344 336 m 1,0,-1
 344 237 l 1,1,-1
 308 237 l 1,2,3
 307 264 307 264 294.5 276.5 c 128,-1,4
 282 289 282 289 258 289 c 0,5,6
 221 289 221 289 200.5 257.5 c 128,-1,7
 180 226 180 226 180 169 c 2,8,-1
 180 38 l 1,9,-1
 240 38 l 1,10,-1
 240 0 l 1,11,-1
 22 0 l 1,12,-1
 22 38 l 1,13,-1
 69 38 l 1,14,-1
 69 294 l 1,15,-1
 19 294 l 1,16,-1
 19 332 l 1,17,-1
 180 332 l 1,18,-1
 180 273 l 1,19,20
 196 308 196 308 223 324.5 c 128,-1,21
 250 341 250 341 288 341 c 0,22,23
 298 341 298 341 312 340 c 128,-1,24
 326 339 326 339 344 336 c 1,0,-1
EndSplineSet
EndChar
StartChar: s
Encoding: 115 115 86
Width: 360
Flags: W
Fore
30 10 m 1,0,-1
 30 102 l 1,1,-1
 65 102 l 1,2,3
 70 65 70 65 93 45.5 c 128,-1,4
 116 26 116 26 157 26 c 0,5,6
 191 26 191 26 209 38 c 128,-1,7
 227 50 227 50 227 72 c 0,8,9
 227 92 227 92 215.5 102.5 c 128,-1,10
 204 113 204 113 171 122 c 2,11,-1
 125 133 l 2,12,13
 74 146 74 146 51 170 c 128,-1,14
 28 194 28 194 28 234 c 0,15,16
 28 289 28 289 65 315 c 128,-1,17
 102 341 102 341 180 341 c 0,18,19
 210 341 210 341 243 336.5 c 128,-1,20
 276 332 276 332 317 321 c 1,21,-1
 317 237 l 1,22,-1
 282 237 l 1,23,24
 279 271 279 271 257.5 288.5 c 128,-1,25
 236 306 236 306 196 306 c 0,26,27
 162 306 162 306 144.5 295 c 128,-1,28
 127 284 127 284 127 264 c 0,29,30
 127 247 127 247 137 237 c 128,-1,31
 147 227 147 227 173 221 c 2,32,-1
 219 209 l 2,33,34
 284 193 284 193 309 168.5 c 128,-1,35
 334 144 334 144 334 100 c 0,36,37
 334 44 334 44 293.5 17.5 c 128,-1,38
 253 -9 253 -9 169 -9 c 0,39,40
 138 -9 138 -9 103 -4.5 c 128,-1,41
 68 0 68 0 30 10 c 1,0,-1
EndSplineSet
EndChar
StartChar: t
Encoding: 116 116 87
Width: 296
Flags: W
Fore
63 294 m 1,0,-1
 15 294 l 1,1,-1
 15 332 l 1,2,-1
 63 332 l 1,3,-1
 63 435 l 1,4,-1
 174 435 l 1,5,-1
 174 332 l 1,6,-1
 266 332 l 1,7,-1
 266 294 l 1,8,-1
 174 294 l 1,9,-1
 174 91 l 2,10,11
 174 47 174 47 181 36.5 c 128,-1,12
 188 26 188 26 206 26 c 0,13,14
 226 26 226 26 235.5 39.5 c 128,-1,15
 245 53 245 53 246 81 c 1,16,-1
 292 81 l 1,17,18
 290 31 290 31 265.5 11 c 128,-1,19
 241 -9 241 -9 180 -9 c 0,20,21
 112 -9 112 -9 87.5 12.5 c 128,-1,22
 63 34 63 34 63 91 c 2,23,-1
 63 294 l 1,0,-1
EndSplineSet
EndChar
StartChar: u
Encoding: 117 117 88
Width: 465
Flags: W
Fore
396 332 m 1,0,-1
 396 38 l 1,1,-1
 444 38 l 1,2,-1
 444 0 l 1,3,-1
 285 0 l 1,4,-1
 285 47 l 1,5,6
 266 17 266 17 240 4 c 128,-1,7
 214 -9 214 -9 175 -9 c 0,8,9
 120 -9 120 -9 91 24 c 128,-1,10
 62 57 62 57 62 121 c 2,11,-1
 62 294 l 1,12,-1
 15 294 l 1,13,-1
 15 332 l 1,14,-1
 173 332 l 1,15,-1
 173 138 l 2,16,17
 173 76 173 76 183 59.5 c 128,-1,18
 193 43 193 43 221 43 c 0,19,20
 254 43 254 43 269.5 67.5 c 128,-1,21
 285 92 285 92 285 146 c 2,22,-1
 285 294 l 1,23,-1
 245 294 l 1,24,-1
 245 332 l 1,25,-1
 396 332 l 1,0,-1
EndSplineSet
EndChar
StartChar: v
Encoding: 118 118 89
Width: 372
Flags: W
Fore
143 0 m 1,0,-1
 25 294 l 1,1,-1
 -12 294 l 1,2,-1
 -12 332 l 1,3,-1
 179 332 l 1,4,-1
 179 294 l 1,5,-1
 139 294 l 1,6,-1
 223 84 l 1,7,-1
 307 294 l 1,8,-1
 263 294 l 1,9,-1
 263 332 l 1,10,-1
 388 332 l 1,11,-1
 388 294 l 1,12,-1
 349 294 l 1,13,-1
 232 0 l 1,14,-1
 143 0 l 1,0,-1
EndSplineSet
EndChar
StartChar: w
Encoding: 119 119 90
Width: 551
Flags: W
Fore
345 332 m 1,0,-1
 420 111 l 1,1,-1
 483 294 l 1,2,-1
 440 294 l 1,3,-1
 440 332 l 1,4,-1
 564 332 l 1,5,-1
 564 294 l 1,6,-1
 525 294 l 1,7,-1
 424 0 l 1,8,-1
 348 0 l 1,9,-1
 278 208 l 1,10,-1
 207 0 l 1,11,-1
 131 0 l 1,12,-1
 31 294 l 1,13,-1
 -6 294 l 1,14,-1
 -6 332 l 1,15,-1
 182 332 l 1,16,-1
 182 294 l 1,17,-1
 143 294 l 1,18,-1
 205 115 l 1,19,-1
 279 332 l 1,20,-1
 345 332 l 1,0,-1
EndSplineSet
EndChar
StartChar: x
Encoding: 120 120 91
Width: 381
Flags: W
Fore
225 212 m 1,0,-1
 284 294 l 1,1,-1
 243 294 l 1,2,-1
 243 332 l 1,3,-1
 372 332 l 1,4,-1
 372 294 l 1,5,-1
 328 294 l 1,6,-1
 243 176 l 1,7,-1
 342 38 l 1,8,-1
 386 38 l 1,9,-1
 386 0 l 1,10,-1
 175 0 l 1,11,-1
 175 38 l 1,12,-1
 218 38 l 1,13,-1
 155 125 l 1,14,-1
 92 38 l 1,15,-1
 137 38 l 1,16,-1
 137 0 l 1,17,-1
 0 0 l 1,18,-1
 0 38 l 1,19,-1
 47 38 l 1,20,-1
 136 162 l 1,21,-1
 40 294 l 1,22,-1
 3 294 l 1,23,-1
 3 332 l 1,24,-1
 206 332 l 1,25,-1
 206 294 l 1,26,-1
 166 294 l 1,27,-1
 225 212 l 1,0,-1
EndSplineSet
EndChar
StartChar: y
Encoding: 121 121 92
Width: 372
Flags: W
Fore
200 -75 m 2,0,1
 185 -111 185 -111 163.5 -126.5 c 128,-1,2
 142 -142 142 -142 106 -142 c 0,3,4
 91 -142 91 -142 72 -138.5 c 128,-1,5
 53 -135 53 -135 31 -129 c 1,6,-1
 31 -60 l 1,7,-1
 67 -60 l 1,8,9
 67 -84 67 -84 77.5 -95.5 c 128,-1,10
 88 -107 88 -107 109 -107 c 256,11,12
 130 -107 130 -107 142.5 -95.5 c 128,-1,13
 155 -84 155 -84 167 -54 c 2,14,-1
 172 -42 l 1,15,-1
 28 294 l 1,16,-1
 -8 294 l 1,17,-1
 -8 332 l 1,18,-1
 183 332 l 1,19,-1
 183 294 l 1,20,-1
 143 294 l 1,21,-1
 228 98 l 1,22,-1
 307 294 l 1,23,-1
 262 294 l 1,24,-1
 262 332 l 1,25,-1
 387 332 l 1,26,-1
 387 294 l 1,27,-1
 347 294 l 1,28,-1
 200 -75 l 2,0,1
EndSplineSet
EndChar
StartChar: z
Encoding: 122 122 93
Width: 364
Flags: W
Fore
22 0 m 1,0,-1
 22 38 l 1,1,-1
 213 296 l 1,2,-1
 70 296 l 1,3,-1
 70 239 l 1,4,-1
 33 239 l 1,5,-1
 33 332 l 1,6,-1
 342 332 l 1,7,-1
 342 295 l 1,8,-1
 151 37 l 1,9,-1
 305 37 l 1,10,-1
 305 97 l 1,11,-1
 342 97 l 1,12,-1
 342 0 l 1,13,-1
 22 0 l 1,0,-1
EndSplineSet
EndChar
StartChar: braceleft
Encoding: 123 123 94
Width: 412
Flags: W
Fore
354 -67 m 1,0,-1
 354 -104 l 1,1,-1
 308 -104 l 2,2,3
 234 -104 234 -104 208.5 -96.5 c 128,-1,4
 183 -89 183 -89 167 -70 c 0,5,6
 158 -58 158 -58 154 -41 c 128,-1,7
 150 -24 150 -24 150 11 c 2,8,-1
 150 89 l 2,9,10
 150 136 150 136 133.5 154 c 128,-1,11
 117 172 117 172 73 172 c 2,12,-1
 54 172 l 1,13,-1
 54 210 l 1,14,-1
 73 210 l 2,15,16
 117 210 117 210 133.5 228 c 128,-1,17
 150 246 150 246 150 293 c 2,18,-1
 150 371 l 2,19,20
 150 406 150 406 154 423 c 128,-1,21
 158 440 158 440 167 452 c 0,22,23
 183 471 183 471 208.5 478.5 c 128,-1,24
 234 486 234 486 308 486 c 2,25,-1
 354 486 l 1,26,-1
 354 449 l 1,27,-1
 322 449 l 2,28,29
 287 449 287 449 274 434 c 128,-1,30
 261 419 261 419 261 377 c 2,31,-1
 261 292 l 2,32,33
 261 243 261 243 245.5 221.5 c 128,-1,34
 230 200 230 200 190 191 c 1,35,36
 231 180 231 180 246 160 c 128,-1,37
 261 140 261 140 261 90 c 2,38,-1
 261 5 l 2,39,40
 261 -37 261 -37 274 -52 c 128,-1,41
 287 -67 287 -67 322 -67 c 2,42,-1
 354 -67 l 1,0,-1
EndSplineSet
EndChar
StartChar: bar
Encoding: 124 124 95
Width: 233
Flags: W
Fore
150 489 m 1,0,-1
 150 -151 l 1,1,-1
 83 -151 l 1,2,-1
 83 489 l 1,3,-1
 150 489 l 1,0,-1
EndSplineSet
EndChar
StartChar: braceright
Encoding: 125 125 96
Width: 412
Flags: W
Fore
58 -67 m 1,0,-1
 90 -67 l 2,1,2
 124 -67 124 -67 137 -52 c 128,-1,3
 150 -37 150 -37 150 5 c 2,4,-1
 150 90 l 2,5,6
 150 139 150 139 165.5 159.5 c 128,-1,7
 181 180 181 180 222 191 c 1,8,9
 182 200 182 200 166 221.5 c 128,-1,10
 150 243 150 243 150 292 c 2,11,-1
 150 377 l 2,12,13
 150 419 150 419 137 434 c 128,-1,14
 124 449 124 449 90 449 c 2,15,-1
 58 449 l 1,16,-1
 58 486 l 1,17,-1
 104 486 l 2,18,19
 177 486 177 486 202.5 478.5 c 128,-1,20
 228 471 228 471 244 452 c 0,21,22
 253 440 253 440 257 423 c 128,-1,23
 261 406 261 406 261 371 c 2,24,-1
 261 293 l 2,25,26
 261 246 261 246 277.5 228 c 128,-1,27
 294 210 294 210 339 210 c 2,28,-1
 358 210 l 1,29,-1
 358 172 l 1,30,-1
 339 172 l 2,31,32
 294 172 294 172 277.5 154 c 128,-1,33
 261 136 261 136 261 89 c 2,34,-1
 261 11 l 2,35,36
 261 -24 261 -24 257 -41 c 128,-1,37
 253 -58 253 -58 244 -70 c 0,38,39
 228 -89 228 -89 202.5 -96.5 c 128,-1,40
 177 -104 177 -104 104 -104 c 2,41,-1
 58 -104 l 1,42,-1
 58 -67 l 1,0,-1
EndSplineSet
EndChar
StartChar: asciitilde
Encoding: 126 126 97
Width: 536
Flags: W
Fore
468 260 m 1,0,-1
 468 195 l 1,1,2
 440 168 440 168 410.5 155.5 c 128,-1,3
 381 143 381 143 349 143 c 0,4,5
 320 143 320 143 272 161 c 0,6,7
 267 163 267 163 264 164 c 1,8,9
 262 164 262 164 258 166 c 0,10,11
 204 187 204 187 174 187 c 0,12,13
 150 187 150 187 124 175.5 c 128,-1,14
 98 164 98 164 68 141 c 1,15,-1
 68 206 l 1,16,17
 98 233 98 233 127 246 c 128,-1,18
 156 259 156 259 187 259 c 0,19,20
 216 259 216 259 264 241 c 0,21,22
 269 239 269 239 272 237 c 1,23,-1
 276 236 l 2,24,25
 331 214 331 214 362 214 c 0,26,27
 387 214 387 214 412.5 225.5 c 128,-1,28
 438 237 438 237 468 260 c 1,0,-1
EndSplineSet
EndChar
StartChar: nounicode-3-1-45
Encoding: 65540 -1 98
Width: 0
Flags: W
Fore
-300 600 m 1,0,-1
 0 600 l 1,1,-1
 0 0 l 1,2,-1
 -300 0 l 1,3,-1
 -300 600 l 1,0,-1
EndSplineSet
EndChar
StartChar: uni0E10.alt1
Encoding: 63232 63232 99
Width: 423
Flags: W
Fore
31 319 m 0,0,1
 57 357 57 357 91 371.5 c 128,-1,2
 125 386 125 386 170 386 c 1,3,-1
 311 358 l 1,4,5
 336 358 336 358 362 364 c 128,-1,6
 388 370 388 370 408 384 c 1,7,-1
 408 305 l 1,8,9
 393 301 393 301 374 301 c 0,10,11
 341 301 341 301 308 306 c 128,-1,12
 275 311 275 311 244 325 c 0,13,14
 225 333 225 333 206.5 343.5 c 128,-1,15
 188 354 188 354 167 354 c 0,16,17
 142 354 142 354 126 339 c 128,-1,18
 110 324 110 324 102 302 c 1,19,-1
 111 302 l 2,20,21
 137 302 137 302 176.5 301 c 128,-1,22
 216 300 216 300 255.5 295 c 128,-1,23
 295 290 295 290 327.5 279 c 128,-1,24
 360 268 360 268 373 247 c 0,25,26
 381 235 381 235 382.5 225 c 128,-1,27
 384 215 384 215 384 201 c 0,28,29
 384 183 384 183 379.5 165 c 128,-1,30
 375 147 375 147 370 130 c 0,31,32
 352 68 352 68 343 1 c 1,33,-1
 240 1 l 1,34,-1
 180 127 l 1,35,36
 169 119 169 119 157 114 c 128,-1,37
 145 109 145 109 131 109 c 0,38,39
 101 109 101 109 79 124 c 128,-1,40
 57 139 57 139 57 172 c 0,41,42
 57 190 57 190 64.5 202.5 c 128,-1,43
 72 215 72 215 84 222.5 c 128,-1,44
 96 230 96 230 111 233 c 128,-1,45
 126 236 126 236 142 236 c 256,46,47
 158 236 158 236 170.5 233 c 128,-1,48
 183 230 183 230 196 220 c 0,49,50
 206 213 206 213 217 194.5 c 128,-1,51
 228 176 228 176 238.5 155 c 128,-1,52
 249 134 249 134 258.5 113.5 c 128,-1,53
 268 93 268 93 274 81 c 1,54,55
 281 111 281 111 287.5 141.5 c 128,-1,56
 294 172 294 172 294 204 c 0,57,58
 294 218 294 218 290.5 228 c 128,-1,59
 287 238 287 238 276 247 c 0,60,61
 270 252 270 252 245.5 256 c 128,-1,62
 221 260 221 260 189 262.5 c 128,-1,63
 157 265 157 265 121.5 266 c 128,-1,64
 86 267 86 267 57 267 c 0,65,66
 41 267 41 267 28.5 267 c 128,-1,67
 16 267 16 267 8 266 c 1,68,69
 14 294 14 294 31 319 c 0,0,1
158 172 m 256,70,71
 158 183 158 183 151.5 196 c 128,-1,72
 145 209 145 209 133 209 c 0,73,74
 119 209 119 209 112.5 198.5 c 128,-1,75
 106 188 106 188 106 176 c 0,76,77
 106 170 106 170 107.5 163 c 128,-1,78
 109 156 109 156 112 149.5 c 128,-1,79
 115 143 115 143 120 138.5 c 128,-1,80
 125 134 125 134 132 134 c 0,81,82
 146 134 146 134 152 147.5 c 128,-1,83
 158 161 158 161 158 172 c 256,70,71
EndSplineSet
EndChar
StartChar: uni0E34.alt1
Encoding: 63233 63233 100
Width: 0
Flags: W
Fore
-487 489 m 1,0,1
 -463 535 -463 535 -429 561.5 c 128,-1,2
 -395 588 -395 588 -341 588 c 0,3,4
 -302 588 -302 588 -272.5 579.5 c 128,-1,5
 -243 571 -243 571 -220 554.5 c 128,-1,6
 -197 538 -197 538 -179 513 c 128,-1,7
 -161 488 -161 488 -145 454 c 1,8,9
 -146 454 -146 454 -159.5 455.5 c 128,-1,10
 -173 457 -173 457 -192.5 460 c 128,-1,11
 -212 463 -212 463 -235 466.5 c 128,-1,12
 -258 470 -258 470 -279 473 c 128,-1,13
 -300 476 -300 476 -315.5 478 c 128,-1,14
 -331 480 -331 480 -336 480 c 2,15,-1
 -487 489 l 1,16,-1
 -487 489 l 1,0,1
-225 495 m 1,17,18
 -246 520 -246 520 -272 540.5 c 128,-1,19
 -298 561 -298 561 -333 561 c 0,20,21
 -357 561 -357 561 -374.5 547.5 c 128,-1,22
 -392 534 -392 534 -407 517 c 1,23,24
 -361 515 -361 515 -315.5 509.5 c 128,-1,25
 -270 504 -270 504 -225 495 c 1,17,18
EndSplineSet
EndChar
StartChar: uni0E35.alt1
Encoding: 63234 63234 101
Width: 0
Flags: W
Fore
-327 487 m 0,0,1
 -350 490 -350 490 -376.5 491.5 c 128,-1,2
 -403 493 -403 493 -426.5 494 c 128,-1,3
 -450 495 -450 495 -465.5 496 c 128,-1,4
 -481 497 -481 497 -482 497 c 1,5,6
 -467 522 -467 522 -452 540 c 128,-1,7
 -437 558 -437 558 -419 570 c 128,-1,8
 -401 582 -401 582 -378.5 587.5 c 128,-1,9
 -356 593 -356 593 -326 593 c 0,10,11
 -272 593 -272 593 -227 566 c 1,12,-1
 -227 607 l 1,13,-1
 -145 607 l 1,14,-1
 -145 455 l 1,15,16
 -178 462 -178 462 -211 468 c 0,17,18
 -239 473 -239 473 -270.5 478.5 c 128,-1,19
 -302 484 -302 484 -327 487 c 0,0,1
-209 498 m 1,20,21
 -232 525 -232 525 -259.5 543.5 c 128,-1,22
 -287 562 -287 562 -324 562 c 0,23,24
 -346 562 -346 562 -365.5 550 c 128,-1,25
 -385 538 -385 538 -399 523 c 1,26,-1
 -375 522 l 2,27,28
 -362 520 -362 520 -349.5 519.5 c 128,-1,29
 -337 519 -337 519 -322 517 c 0,30,31
 -290 513 -290 513 -265.5 509 c 128,-1,32
 -241 505 -241 505 -209 498 c 1,20,21
EndSplineSet
EndChar
StartChar: uni0E36.alt1
Encoding: 63235 63235 102
Width: 0
Flags: W
Fore
-123 562 m 0,0,1
 -123 538 -123 538 -135 527 c 128,-1,2
 -147 516 -147 516 -170 512 c 1,3,4
 -159 498 -159 498 -154 480.5 c 128,-1,5
 -149 463 -149 463 -146 446 c 1,6,7
 -179 446 -179 446 -223 458 c 128,-1,8
 -267 470 -267 470 -314 477 c 0,9,10
 -319 478 -319 478 -322.5 478 c 128,-1,11
 -326 478 -326 478 -330 479 c 2,12,-1
 -350 482 l 2,13,14
 -352 482 -352 482 -353.5 482.5 c 128,-1,15
 -355 483 -355 483 -357 483 c 2,16,-1
 -365 484 l 2,17,18
 -386 486 -386 486 -405.5 488 c 128,-1,19
 -425 490 -425 490 -457 490 c 2,20,-1
 -486 490 l 1,21,22
 -477 511 -477 511 -460.5 529 c 128,-1,23
 -444 547 -444 547 -423 561 c 128,-1,24
 -402 575 -402 575 -378.5 583 c 128,-1,25
 -355 591 -355 591 -332 591 c 0,26,27
 -312 591 -312 591 -294 587 c 128,-1,28
 -276 583 -276 583 -259 576 c 1,29,30
 -257 598 -257 598 -238.5 607.5 c 128,-1,31
 -220 617 -220 617 -201 617 c 0,32,33
 -188 617 -188 617 -174 614.5 c 128,-1,34
 -160 612 -160 612 -148.5 606 c 128,-1,35
 -137 600 -137 600 -130 589.5 c 128,-1,36
 -123 579 -123 579 -123 562 c 0,0,1
-166 566 m 0,37,38
 -166 578 -166 578 -172 588.5 c 128,-1,39
 -178 599 -178 599 -192 599 c 0,40,41
 -203 599 -203 599 -209 585 c 128,-1,42
 -215 571 -215 571 -215 562 c 256,43,44
 -215 553 -215 553 -210.5 543 c 128,-1,45
 -206 533 -206 533 -195 533 c 0,46,47
 -181 533 -181 533 -173.5 542.5 c 128,-1,48
 -166 552 -166 552 -166 566 c 0,37,38
-212 490 m 1,49,50
 -230 519 -230 519 -257.5 537.5 c 128,-1,51
 -285 556 -285 556 -320 556 c 0,52,53
 -337 556 -337 556 -357 543 c 128,-1,54
 -377 530 -377 530 -386 519 c 1,55,56
 -342 514 -342 514 -299 506 c 128,-1,57
 -256 498 -256 498 -212 490 c 1,49,50
EndSplineSet
EndChar
StartChar: uni0E37.alt1
Encoding: 63236 63236 103
Width: 0
Flags: W
Fore
-311 482 m 0,0,1
 -333 485 -333 485 -363.5 488 c 128,-1,2
 -394 491 -394 491 -422 493 c 128,-1,3
 -450 495 -450 495 -469.5 496.5 c 128,-1,4
 -488 498 -488 498 -489 498 c 1,5,6
 -469 540 -469 540 -437 566.5 c 128,-1,7
 -405 593 -405 593 -357 593 c 0,8,9
 -349 593 -349 593 -344 592.5 c 128,-1,10
 -339 592 -339 592 -331 590 c 1,11,-1
 -328 590 l 1,12,-1
 -318 588 l 1,13,-1
 -318 613 l 1,14,-1
 -243 613 l 1,15,-1
 -243 574 l 1,16,-1
 -227 566 l 1,17,-1
 -227 613 l 1,18,-1
 -144 613 l 1,19,-1
 -144 457 l 1,20,21
 -179 463 -179 463 -211 467 c 0,22,23
 -238 471 -238 471 -266.5 475.5 c 128,-1,24
 -295 480 -295 480 -311 482 c 0,0,1
-198 494 m 1,25,26
 -207 509 -207 509 -221.5 521.5 c 128,-1,27
 -236 534 -236 534 -253.5 543 c 128,-1,28
 -271 552 -271 552 -290 557 c 128,-1,29
 -309 562 -309 562 -326 562 c 0,30,31
 -335 562 -335 562 -347 558.5 c 128,-1,32
 -359 555 -359 555 -371 549.5 c 128,-1,33
 -383 544 -383 544 -393 536.5 c 128,-1,34
 -403 529 -403 529 -407 521 c 1,35,-1
 -309 511 l 2,36,37
 -281 508 -281 508 -253.5 503.5 c 128,-1,38
 -226 499 -226 499 -198 494 c 1,25,26
EndSplineSet
EndChar
StartChar: ellipsis
Encoding: 8230 8230 104
Width: 640
Flags: W
Fore
469 51 m 0,0,1
 469 75 469 75 486.5 92.5 c 128,-1,2
 504 110 504 110 529 110 c 0,3,4
 553 110 553 110 570.5 92.5 c 128,-1,5
 588 75 588 75 588 51 c 0,6,7
 588 26 588 26 570.5 8.5 c 128,-1,8
 553 -9 553 -9 529 -9 c 0,9,10
 504 -9 504 -9 486.5 8.5 c 128,-1,11
 469 26 469 26 469 51 c 0,0,1
260 51 m 0,12,13
 260 75 260 75 278 92.5 c 128,-1,14
 296 110 296 110 320 110 c 256,15,16
 344 110 344 110 362 92.5 c 128,-1,17
 380 75 380 75 380 51 c 0,18,19
 380 26 380 26 362 8.5 c 128,-1,20
 344 -9 344 -9 320 -9 c 256,21,22
 296 -9 296 -9 278 8.5 c 128,-1,23
 260 26 260 26 260 51 c 0,12,13
52 51 m 0,24,25
 52 75 52 75 69.5 92.5 c 128,-1,26
 87 110 87 110 111 110 c 0,27,28
 136 110 136 110 153.5 92.5 c 128,-1,29
 171 75 171 75 171 51 c 0,30,31
 171 26 171 26 153.5 8.5 c 128,-1,32
 136 -9 136 -9 111 -9 c 0,33,34
 87 -9 87 -9 69.5 8.5 c 128,-1,35
 52 26 52 26 52 51 c 0,24,25
EndSplineSet
EndChar
StartChar: uni0E48.alt1
Encoding: 63237 63237 105
Width: 0
Flags: W
Fore
-249 604 m 1,0,1
 -227 602 -227 602 -205 602.5 c 128,-1,2
 -183 603 -183 603 -161 603 c 1,3,-1
 -161 458 l 1,4,-1
 -249 458 l 1,5,-1
 -249 604 l 1,0,1
EndSplineSet
Substitution: 0 65534 'L019' uni0E48.alt3
Substitution: 0 65534 'L019' uni0E48.alt3
EndChar
StartChar: uni0E49.alt1
Encoding: 63238 63238 106
Width: 0
Flags: W
Fore
-351 491 m 1,0,-1
 -334 494 l 2,1,2
 -329 495 -329 495 -324 495 c 128,-1,3
 -319 495 -319 495 -314 497.5 c 128,-1,4
 -309 500 -309 500 -305 505 c 128,-1,5
 -301 510 -301 510 -298 520 c 1,6,7
 -311 520 -311 520 -325.5 522.5 c 128,-1,8
 -340 525 -340 525 -352 531.5 c 128,-1,9
 -364 538 -364 538 -372 549 c 128,-1,10
 -380 560 -380 560 -380 576 c 256,11,12
 -380 592 -380 592 -372 602.5 c 128,-1,13
 -364 613 -364 613 -352 619.5 c 128,-1,14
 -340 626 -340 626 -326 628.5 c 128,-1,15
 -312 631 -312 631 -299 631 c 0,16,17
 -267 631 -267 631 -245.5 617.5 c 128,-1,18
 -224 604 -224 604 -224 569 c 0,19,20
 -224 552 -224 552 -230 537 c 128,-1,21
 -236 522 -236 522 -245 509 c 1,22,23
 -209 526 -209 526 -189.5 563.5 c 128,-1,24
 -170 601 -170 601 -168 639 c 1,25,-1
 -70 639 l 1,26,27
 -72 627 -72 627 -76 616 c 128,-1,28
 -80 605 -80 605 -85 594 c 0,29,30
 -91 580 -91 580 -98 567.5 c 128,-1,31
 -105 555 -105 555 -115 544 c 0,32,33
 -130 527 -130 527 -149.5 513 c 128,-1,34
 -169 499 -169 499 -195 488 c 128,-1,35
 -221 477 -221 477 -255.5 469.5 c 128,-1,36
 -290 462 -290 462 -336 458 c 2,37,-1
 -351 457 l 1,38,-1
 -351 491 l 1,0,-1
-275 578 m 256,39,40
 -275 591 -275 591 -281.5 600.5 c 128,-1,41
 -288 610 -288 610 -302 610 c 0,42,43
 -315 610 -315 610 -320.5 599 c 128,-1,44
 -326 588 -326 588 -326 577 c 256,45,46
 -326 566 -326 566 -318.5 555 c 128,-1,47
 -311 544 -311 544 -299 544 c 0,48,49
 -283 544 -283 544 -279 554.5 c 128,-1,50
 -275 565 -275 565 -275 578 c 256,39,40
EndSplineSet
Substitution: 0 65534 'L019' uni0E49.alt3
Substitution: 0 65534 'L019' uni0E49.alt3
EndChar
StartChar: uni0E4A.alt1
Encoding: 63239 63239 107
Width: 0
Flags: W
Fore
-369 542 m 0,0,1
 -369 534 -369 534 -366.5 528 c 128,-1,2
 -364 522 -364 522 -360 515 c 1,3,4
 -359 514 l 1,5,6
 -351 522 -351 522 -341 528.5 c 128,-1,7
 -331 535 -331 535 -320 535 c 0,8,9
 -300 535 -300 535 -291.5 526.5 c 128,-1,10
 -283 518 -283 518 -283 498 c 0,11,12
 -283 476 -283 476 -300 467 c 128,-1,13
 -317 458 -317 458 -336 458 c 0,14,15
 -352 458 -352 458 -367.5 462.5 c 128,-1,16
 -383 467 -383 467 -395.5 476 c 128,-1,17
 -408 485 -408 485 -415.5 498 c 128,-1,18
 -423 511 -423 511 -423 529 c 256,19,20
 -423 547 -423 547 -416 559.5 c 128,-1,21
 -409 572 -409 572 -398 581 c 128,-1,22
 -387 590 -387 590 -373 596.5 c 128,-1,23
 -359 603 -359 603 -344 608 c 1,24,-1
 -321 608 l 1,25,-1
 -289 582 l 1,26,27
 -282 589 -282 589 -271 597.5 c 128,-1,28
 -260 606 -260 606 -250 606 c 0,29,30
 -221 606 -221 606 -211.5 587 c 128,-1,31
 -202 568 -202 568 -202 543 c 0,32,33
 -202 531 -202 531 -207 516 c 1,34,35
 -187 534 -187 534 -183 556.5 c 128,-1,36
 -179 579 -179 579 -179 604 c 0,37,38
 -179 607 -179 607 -179 610.5 c 128,-1,39
 -179 614 -179 614 -180 617 c 1,40,-1
 -104 617 l 1,41,42
 -107 593 -107 593 -110.5 568 c 128,-1,43
 -114 543 -114 543 -128 523 c 0,44,45
 -147 497 -147 497 -174.5 484 c 128,-1,46
 -202 471 -202 471 -229 465 c 0,47,48
 -230 465 -230 465 -239.5 463 c 128,-1,49
 -249 461 -249 461 -254 460 c 256,50,51
 -259 459 -259 459 -262.5 459 c 128,-1,52
 -266 459 -266 459 -267 459 c 1,53,-1
 -267 490 l 1,54,55
 -264 493 -264 493 -256 497 c 1,56,57
 -246 504 -246 504 -243.5 516 c 128,-1,58
 -241 528 -241 528 -241 539 c 0,59,60
 -241 547 -241 547 -243.5 557.5 c 128,-1,61
 -246 568 -246 568 -254 573 c 1,62,63
 -263 566 -263 566 -273 555.5 c 128,-1,64
 -283 545 -283 545 -295 545 c 0,65,66
 -301 545 -301 545 -308.5 550.5 c 128,-1,67
 -316 556 -316 556 -323 563 c 2,68,-1
 -340 580 l 1,69,70
 -349 576 -349 576 -355 570 c 0,71,72
 -360 565 -360 565 -364.5 558 c 128,-1,73
 -369 551 -369 551 -369 542 c 0,0,1
EndSplineSet
Substitution: 0 65534 'L019' uni0E4A.alt3
Substitution: 0 65534 'L019' uni0E4A.alt3
EndChar
StartChar: uni0E4B.alt1
Encoding: 63240 63240 108
Width: 0
Flags: W
Fore
-192 460 m 1,0,-1
 -288 460 l 1,1,-1
 -288 520 l 1,2,-1
 -340 520 l 1,3,-1
 -340 558 l 1,4,-1
 -288 558 l 1,5,-1
 -288 615 l 1,6,-1
 -192 615 l 1,7,-1
 -192 558 l 1,8,-1
 -142 558 l 1,9,-1
 -142 520 l 1,10,-1
 -192 520 l 1,11,-1
 -192 460 l 1,0,-1
EndSplineSet
Substitution: 0 65534 'L019' uni0E4B.alt3
Substitution: 0 65534 'L019' uni0E4B.alt3
EndChar
StartChar: uni0E4C.alt1
Encoding: 63241 63241 109
Width: 0
Flags: W
Fore
-75 654 m 1,0,1
 -78 632 -78 632 -89 613 c 0,2,3
 -98 596 -98 596 -117 579.5 c 128,-1,4
 -136 563 -136 563 -169 555 c 1,5,6
 -157 540 -157 540 -157 519 c 0,7,8
 -157 503 -157 503 -164.5 491 c 128,-1,9
 -172 479 -172 479 -183.5 472 c 128,-1,10
 -195 465 -195 465 -209.5 461.5 c 128,-1,11
 -224 458 -224 458 -238 458 c 256,12,13
 -252 458 -252 458 -266.5 461.5 c 128,-1,14
 -281 465 -281 465 -293 472 c 128,-1,15
 -305 479 -305 479 -312.5 491 c 128,-1,16
 -320 503 -320 503 -320 519 c 0,17,18
 -320 541 -320 541 -304 557 c 0,19,20
 -287 573 -287 573 -263 578 c 128,-1,21
 -239 583 -239 583 -217 589 c 128,-1,22
 -195 595 -195 595 -179.5 608 c 128,-1,23
 -164 621 -164 621 -164 654 c 1,24,-1
 -75 654 l 1,0,1
-210 517 m 0,25,26
 -210 531 -210 531 -215 545 c 128,-1,27
 -220 559 -220 559 -237 559 c 0,28,29
 -251 559 -251 559 -257.5 544.5 c 128,-1,30
 -264 530 -264 530 -264 518 c 0,31,32
 -264 507 -264 507 -257 493.5 c 128,-1,33
 -250 480 -250 480 -236 480 c 0,34,35
 -221 480 -221 480 -215.5 492.5 c 128,-1,36
 -210 505 -210 505 -210 517 c 0,25,26
EndSplineSet
Substitution: 0 65534 'L019' uni0E4C.alt3
Substitution: 0 65534 'L019' uni0E4C.alt3
EndChar
StartChar: uni0E48.alt2
Encoding: 63242 63242 110
Width: 0
Flags: W
Fore
-131 604 m 1,0,-1
 -44 604 l 1,1,-1
 -44 459 l 1,2,-1
 -131 459 l 1,3,-1
 -131 604 l 1,0,-1
EndSplineSet
Substitution: 0 65534 'L021' uni0E48.alt3
Substitution: 0 65534 'L020' uni0E48
Substitution: 0 65534 'L019' uni0E48.alt1
Substitution: 0 65534 'L021' uni0E48.alt3
Substitution: 0 65534 'L020' uni0E48
Substitution: 0 65534 'L019' uni0E48.alt1
EndChar
StartChar: uni0E49.alt2
Encoding: 63243 63243 111
Width: 0
Flags: W
Fore
-278 489 m 1,0,-1
 -261 492 l 2,1,2
 -256 493 -256 493 -251 493 c 128,-1,3
 -246 493 -246 493 -241 495.5 c 128,-1,4
 -236 498 -236 498 -232 503 c 128,-1,5
 -228 508 -228 508 -225 518 c 1,6,7
 -238 518 -238 518 -252.5 520.5 c 128,-1,8
 -267 523 -267 523 -279 529.5 c 128,-1,9
 -291 536 -291 536 -299 547 c 128,-1,10
 -307 558 -307 558 -307 574 c 256,11,12
 -307 590 -307 590 -299 600.5 c 128,-1,13
 -291 611 -291 611 -279 617.5 c 128,-1,14
 -267 624 -267 624 -253 626.5 c 128,-1,15
 -239 629 -239 629 -226 629 c 0,16,17
 -194 629 -194 629 -172.5 615.5 c 128,-1,18
 -151 602 -151 602 -151 567 c 0,19,20
 -151 550 -151 550 -157 535 c 128,-1,21
 -163 520 -163 520 -172 507 c 1,22,23
 -136 524 -136 524 -116.5 561.5 c 128,-1,24
 -97 599 -97 599 -95 637 c 1,25,-1
 3 637 l 1,26,27
 1 625 1 625 -3 614 c 128,-1,28
 -7 603 -7 603 -12 592 c 0,29,30
 -18 578 -18 578 -25 565.5 c 128,-1,31
 -32 553 -32 553 -42 542 c 0,32,33
 -57 525 -57 525 -76.5 511 c 128,-1,34
 -96 497 -96 497 -122 486 c 128,-1,35
 -148 475 -148 475 -182.5 467.5 c 128,-1,36
 -217 460 -217 460 -263 456 c 2,37,-1
 -278 455 l 1,38,-1
 -278 489 l 1,0,-1
-202 576 m 256,39,40
 -202 589 -202 589 -208.5 598.5 c 128,-1,41
 -215 608 -215 608 -229 608 c 0,42,43
 -242 608 -242 608 -247.5 597 c 128,-1,44
 -253 586 -253 586 -253 575 c 256,45,46
 -253 564 -253 564 -245.5 553 c 128,-1,47
 -238 542 -238 542 -226 542 c 0,48,49
 -210 542 -210 542 -206 552.5 c 128,-1,50
 -202 563 -202 563 -202 576 c 256,39,40
EndSplineSet
Substitution: 0 65534 'L021' uni0E49.alt3
Substitution: 0 65534 'L020' uni0E49
Substitution: 0 65534 'L019' uni0E49.alt1
Substitution: 0 65534 'L021' uni0E49.alt3
Substitution: 0 65534 'L020' uni0E49
Substitution: 0 65534 'L019' uni0E49.alt1
EndChar
StartChar: uni0E4A.alt2
Encoding: 63244 63244 112
Width: 0
Flags: W
Fore
-267 542 m 0,0,1
 -267 534 -267 534 -264.5 528 c 128,-1,2
 -262 522 -262 522 -258 515 c 1,3,4
 -257 514 l 1,5,6
 -249 522 -249 522 -239 528.5 c 128,-1,7
 -229 535 -229 535 -218 535 c 0,8,9
 -198 535 -198 535 -189.5 526.5 c 128,-1,10
 -181 518 -181 518 -181 498 c 0,11,12
 -181 476 -181 476 -198 467 c 128,-1,13
 -215 458 -215 458 -234 458 c 0,14,15
 -250 458 -250 458 -265.5 462.5 c 128,-1,16
 -281 467 -281 467 -293.5 476 c 128,-1,17
 -306 485 -306 485 -313.5 498 c 128,-1,18
 -321 511 -321 511 -321 529 c 256,19,20
 -321 547 -321 547 -314 559.5 c 128,-1,21
 -307 572 -307 572 -296 581 c 128,-1,22
 -285 590 -285 590 -271 596.5 c 128,-1,23
 -257 603 -257 603 -242 608 c 1,24,-1
 -219 608 l 1,25,-1
 -187 582 l 1,26,27
 -180 589 -180 589 -169 597.5 c 128,-1,28
 -158 606 -158 606 -148 606 c 0,29,30
 -119 606 -119 606 -109.5 587 c 128,-1,31
 -100 568 -100 568 -100 543 c 0,32,33
 -100 531 -100 531 -105 516 c 1,34,35
 -85 534 -85 534 -81 556.5 c 128,-1,36
 -77 579 -77 579 -77 604 c 0,37,38
 -77 607 -77 607 -77 610.5 c 128,-1,39
 -77 614 -77 614 -78 617 c 1,40,-1
 -2 617 l 1,41,42
 -5 593 -5 593 -8.5 568 c 128,-1,43
 -12 543 -12 543 -26 523 c 0,44,45
 -45 497 -45 497 -72.5 484 c 128,-1,46
 -100 471 -100 471 -127 465 c 0,47,48
 -128 465 -128 465 -137.5 463 c 128,-1,49
 -147 461 -147 461 -152 460 c 256,50,51
 -157 459 -157 459 -160.5 459 c 128,-1,52
 -164 459 -164 459 -165 459 c 1,53,-1
 -165 490 l 1,54,55
 -162 493 -162 493 -154 497 c 1,56,57
 -144 504 -144 504 -141.5 516 c 128,-1,58
 -139 528 -139 528 -139 539 c 0,59,60
 -139 547 -139 547 -141.5 557.5 c 128,-1,61
 -144 568 -144 568 -152 573 c 1,62,63
 -161 566 -161 566 -171 555.5 c 128,-1,64
 -181 545 -181 545 -193 545 c 0,65,66
 -199 545 -199 545 -206.5 550.5 c 128,-1,67
 -214 556 -214 556 -221 563 c 2,68,-1
 -238 580 l 1,69,70
 -247 576 -247 576 -253 570 c 0,71,72
 -258 565 -258 565 -262.5 558 c 128,-1,73
 -267 551 -267 551 -267 542 c 0,0,1
EndSplineSet
Substitution: 0 65534 'L021' uni0E4A.alt3
Substitution: 0 65534 'L020' uni0E4A
Substitution: 0 65534 'L019' uni0E4A.alt1
Substitution: 0 65534 'L021' uni0E4A.alt3
Substitution: 0 65534 'L020' uni0E4A
Substitution: 0 65534 'L019' uni0E4A.alt1
EndChar
StartChar: uni0E4B.alt2
Encoding: 63245 63245 113
Width: 0
Flags: W
Fore
-44 461 m 1,0,-1
 -140 461 l 1,1,-1
 -140 521 l 1,2,-1
 -189 521 l 1,3,-1
 -189 559 l 1,4,-1
 -140 559 l 1,5,-1
 -140 616 l 1,6,-1
 -44 616 l 1,7,-1
 -44 559 l 1,8,-1
 3 559 l 1,9,-1
 3 521 l 1,10,-1
 -44 521 l 1,11,-1
 -44 461 l 1,0,-1
EndSplineSet
Substitution: 0 65534 'L021' uni0E4B.alt3
Substitution: 0 65534 'L020' uni0E4B
Substitution: 0 65534 'L019' uni0E4B.alt1
Substitution: 0 65534 'L021' uni0E4B.alt3
Substitution: 0 65534 'L020' uni0E4B
Substitution: 0 65534 'L019' uni0E4B.alt1
EndChar
StartChar: uni0E4C.alt2
Encoding: 63246 63246 114
Width: 0
Flags: W
Fore
5 654 m 1,0,1
 2 632 2 632 -9 613 c 0,2,3
 -18 596 -18 596 -37 579.5 c 128,-1,4
 -56 563 -56 563 -89 555 c 1,5,6
 -77 540 -77 540 -77 519 c 0,7,8
 -77 503 -77 503 -84.5 491 c 128,-1,9
 -92 479 -92 479 -103.5 472 c 128,-1,10
 -115 465 -115 465 -129.5 461.5 c 128,-1,11
 -144 458 -144 458 -158 458 c 256,12,13
 -172 458 -172 458 -186.5 461.5 c 128,-1,14
 -201 465 -201 465 -213 472 c 128,-1,15
 -225 479 -225 479 -232.5 491 c 128,-1,16
 -240 503 -240 503 -240 519 c 0,17,18
 -240 541 -240 541 -224 557 c 0,19,20
 -207 573 -207 573 -183 578 c 128,-1,21
 -159 583 -159 583 -137 589 c 128,-1,22
 -115 595 -115 595 -99.5 608 c 128,-1,23
 -84 621 -84 621 -84 654 c 1,24,-1
 5 654 l 1,0,1
-130 517 m 0,25,26
 -130 531 -130 531 -135 545 c 128,-1,27
 -140 559 -140 559 -157 559 c 0,28,29
 -171 559 -171 559 -177.5 544.5 c 128,-1,30
 -184 530 -184 530 -184 518 c 0,31,32
 -184 507 -184 507 -177 493.5 c 128,-1,33
 -170 480 -170 480 -156 480 c 0,34,35
 -141 480 -141 480 -135.5 492.5 c 128,-1,36
 -130 505 -130 505 -130 517 c 0,25,26
EndSplineSet
Substitution: 0 65534 'L021' uni0E4C.alt3
Substitution: 0 65534 'L020' uni0E4C
Substitution: 0 65534 'L019' uni0E4C.alt1
Substitution: 0 65534 'L021' uni0E4C.alt3
Substitution: 0 65534 'L020' uni0E4C
Substitution: 0 65534 'L019' uni0E4C.alt1
EndChar
StartChar: uni0E0D.alt1
Encoding: 63247 63247 115
Width: 612
Flags: W
Fore
571 37 m 1,0,1
 571 22 571 22 556.5 11 c 128,-1,2
 542 0 542 0 528 0 c 2,3,-1
 279 0 l 1,4,-1
 279 248 l 2,5,6
 279 270 279 270 275.5 288.5 c 128,-1,7
 272 307 272 307 262.5 320.5 c 128,-1,8
 253 334 253 334 237 341.5 c 128,-1,9
 221 349 221 349 196 349 c 0,10,11
 162 349 162 349 124 336.5 c 128,-1,12
 86 324 86 324 61 301 c 1,13,-1
 182 301 l 1,14,-1
 182 271 l 1,15,16
 158 264 158 264 144.5 250.5 c 128,-1,17
 131 237 131 237 131 211 c 2,18,-1
 131 128 l 1,19,20
 138 132 138 132 146 134.5 c 128,-1,21
 154 137 154 137 162 137 c 0,22,23
 192 137 192 137 208 118 c 128,-1,24
 224 99 224 99 224 70 c 0,25,26
 224 49 224 49 217 34.5 c 128,-1,27
 210 20 210 20 198 12 c 128,-1,28
 186 4 186 4 169.5 0.5 c 128,-1,29
 153 -3 153 -3 134 -3 c 0,30,31
 118 -3 118 -3 100 1.5 c 128,-1,32
 82 6 82 6 67 15.5 c 128,-1,33
 52 25 52 25 42 39 c 128,-1,34
 32 53 32 53 32 72 c 2,35,-1
 32 192 l 2,36,37
 32 215 32 215 47 235.5 c 128,-1,38
 62 256 62 256 81 267 c 1,39,-1
 14 267 l 1,40,-1
 14 318 l 1,41,42
 59 345 59 345 103 366 c 128,-1,43
 147 387 147 387 202 387 c 0,44,45
 236 387 236 387 268 379.5 c 128,-1,46
 300 372 300 372 325 355 c 128,-1,47
 350 338 350 338 365 311 c 128,-1,48
 380 284 380 284 380 245 c 2,49,-1
 380 40 l 1,50,-1
 469 40 l 1,51,-1
 469 347 l 1,52,-1
 519 382 l 1,53,-1
 571 382 l 1,54,-1
 571 37 l 1,55,-1
 571 37 l 1,0,1
179 66 m 256,56,57
 179 81 179 81 170.5 91 c 128,-1,58
 162 101 162 101 146 101 c 0,59,60
 132 101 132 101 127 88 c 128,-1,61
 122 75 122 75 122 64 c 256,62,63
 122 53 122 53 128 38 c 128,-1,64
 134 23 134 23 148 23 c 0,65,66
 166 23 166 23 172.5 37 c 128,-1,67
 179 51 179 51 179 66 c 256,56,57
EndSplineSet
EndChar
StartChar: quoteleft
Encoding: 8216 8216 116
Width: 220
Flags: W
Fore
159 447 m 1,0,-1
 159 433 l 1,1,2
 88 402 88 402 88 339 c 0,3,4
 88 330 88 330 95 328 c 1,5,6
 114 336 114 336 124 335 c 0,7,8
 146 335 146 335 158.5 319 c 128,-1,9
 171 303 171 303 171 286 c 0,10,11
 171 261 171 261 153.5 246.5 c 128,-1,12
 136 232 136 232 116 232 c 0,13,14
 83 232 83 232 66 256.5 c 128,-1,15
 49 281 49 281 49 313 c 0,16,17
 49 413 49 413 159 447 c 1,0,-1
EndSplineSet
EndChar
StartChar: quoteright
Encoding: 8217 8217 117
Width: 220
Flags: W
Fore
61 232 m 1,0,-1
 61 247 l 1,1,2
 132 277 132 277 132 341 c 0,3,4
 132 352 132 352 125 352 c 0,5,6
 121 352 121 352 112.5 348 c 128,-1,7
 104 344 104 344 96 344 c 0,8,9
 76 344 76 344 62.5 359 c 128,-1,10
 49 374 49 374 49 394 c 0,11,12
 49 418 49 418 66.5 432.5 c 128,-1,13
 84 447 84 447 104 447 c 0,14,15
 137 447 137 447 154 422.5 c 128,-1,16
 171 398 171 398 171 367 c 0,17,18
 171 266 171 266 61 232 c 1,0,-1
EndSplineSet
EndChar
StartChar: quotedblleft
Encoding: 8220 8220 118
Width: 330
Flags: W
Fore
292 447 m 1,0,-1
 292 431 l 1,1,2
 260 419 260 419 240.5 393.5 c 128,-1,3
 221 368 221 368 221 338 c 0,4,5
 221 327 221 327 226 327 c 1,6,-1
 236 332 l 2,7,8
 245 337 245 337 257 337 c 0,9,10
 276 337 276 337 289.5 321.5 c 128,-1,11
 303 306 303 306 303 286 c 0,12,13
 303 261 303 261 285.5 246.5 c 128,-1,14
 268 232 268 232 248 232 c 0,15,16
 218 232 218 232 199.5 255.5 c 128,-1,17
 181 279 181 279 181 313 c 0,18,19
 181 407 181 407 292 447 c 1,0,-1
137 447 m 1,20,-1
 137 431 l 1,21,22
 105 419 105 419 85.5 393.5 c 128,-1,23
 66 368 66 368 66 338 c 0,24,25
 66 327 66 327 71 327 c 1,26,-1
 81 332 l 2,27,28
 90 337 90 337 102 337 c 0,29,30
 121 337 121 337 134.5 321.5 c 128,-1,31
 148 306 148 306 148 286 c 0,32,33
 148 264 148 264 131.5 248 c 128,-1,34
 115 232 115 232 93 232 c 0,35,36
 61 232 61 232 43.5 256.5 c 128,-1,37
 26 281 26 281 26 313 c 0,38,39
 26 407 26 407 137 447 c 1,20,-1
EndSplineSet
EndChar
StartChar: quotedblright
Encoding: 8221 8221 119
Width: 330
Flags: W
Fore
38 232 m 1,0,-1
 38 248 l 1,1,2
 66 258 66 258 87.5 282.5 c 128,-1,3
 109 307 109 307 109 341 c 0,4,5
 109 352 109 352 104 352 c 1,6,-1
 94 347 l 2,7,8
 85 342 85 342 73 342 c 0,9,10
 54 342 54 342 40.5 357 c 128,-1,11
 27 372 27 372 27 393 c 0,12,13
 27 416 27 416 43.5 431.5 c 128,-1,14
 60 447 60 447 83 447 c 0,15,16
 114 447 114 447 131.5 422 c 128,-1,17
 149 397 149 397 149 365 c 0,18,19
 149 273 149 273 38 232 c 1,0,-1
193 232 m 1,20,-1
 193 248 l 1,21,22
 224 260 224 260 244 285.5 c 128,-1,23
 264 311 264 311 264 341 c 0,24,25
 264 352 264 352 260 352 c 1,26,-1
 249 347 l 2,27,28
 240 342 240 342 229 342 c 0,29,30
 209 342 209 342 195.5 357 c 128,-1,31
 182 372 182 372 182 393 c 0,32,33
 182 416 182 416 198.5 431.5 c 128,-1,34
 215 447 215 447 238 447 c 0,35,36
 267 447 267 447 285.5 423.5 c 128,-1,37
 304 400 304 400 304 365 c 0,38,39
 304 273 304 273 193 232 c 1,20,-1
EndSplineSet
EndChar
StartChar: bullet
Encoding: 8226 8226 120
Width: 409
Flags: W
Fore
92 238 m 256,0,1
 92 261 92 261 100.5 281.5 c 128,-1,2
 109 302 109 302 125 317 c 0,3,4
 141 333 141 333 161.5 341.5 c 128,-1,5
 182 350 182 350 205 350 c 0,6,7
 227 350 227 350 247.5 341.5 c 128,-1,8
 268 333 268 333 284 317 c 256,9,10
 300 301 300 301 308.5 281 c 128,-1,11
 317 261 317 261 317 238 c 256,12,13
 317 215 317 215 308.5 194.5 c 128,-1,14
 300 174 300 174 284 158 c 256,15,16
 268 142 268 142 247.5 133.5 c 128,-1,17
 227 125 227 125 204 125 c 256,18,19
 181 125 181 125 161 133.5 c 128,-1,20
 141 142 141 142 125 158 c 256,21,22
 109 174 109 174 100.5 194.5 c 128,-1,23
 92 215 92 215 92 238 c 256,0,1
EndSplineSet
EndChar
StartChar: endash
Encoding: 8211 8211 121
Width: 320
Flags: W
Fore
0 207 m 1,0,-1
 320 207 l 1,1,-1
 320 132 l 1,2,-1
 0 132 l 1,3,-1
 0 207 l 1,0,-1
EndSplineSet
EndChar
StartChar: emdash
Encoding: 8212 8212 122
Width: 640
Flags: W
Fore
0 207 m 1,0,-1
 640 207 l 1,1,-1
 640 132 l 1,2,-1
 0 132 l 1,3,-1
 0 207 l 1,0,-1
EndSplineSet
EndChar
StartChar: uni0E31.alt1
Encoding: 63248 63248 123
Width: 0
Flags: W
Fore
-63 597 m 1,0,1
 -101 534 -101 534 -152.5 502 c 128,-1,2
 -204 470 -204 470 -278 470 c 0,3,4
 -297 470 -297 470 -323.5 473 c 128,-1,5
 -350 476 -350 476 -374 485 c 128,-1,6
 -398 494 -398 494 -415 510 c 128,-1,7
 -432 526 -432 526 -432 551 c 0,8,9
 -432 569 -432 569 -424 580 c 128,-1,10
 -416 591 -416 591 -403.5 597 c 128,-1,11
 -391 603 -391 603 -376 605 c 128,-1,12
 -361 607 -361 607 -347 607 c 0,13,14
 -334 607 -334 607 -318.5 605 c 128,-1,15
 -303 603 -303 603 -289.5 597 c 128,-1,16
 -276 591 -276 591 -267 580.5 c 128,-1,17
 -258 570 -258 570 -258 553 c 0,18,19
 -258 520 -258 520 -288 504 c 1,20,-1
 -273 504 l 2,21,22
 -255 504 -255 504 -238 513 c 128,-1,23
 -221 522 -221 522 -206.5 536 c 128,-1,24
 -192 550 -192 550 -180.5 566 c 128,-1,25
 -169 582 -169 582 -161 597 c 1,26,-1
 -63 597 l 1,27,-1
 -63 597 l 1,0,1
-309 550 m 0,28,29
 -309 565 -309 565 -319 573.5 c 128,-1,30
 -329 582 -329 582 -343 582 c 256,31,32
 -357 582 -357 582 -367.5 573 c 128,-1,33
 -378 564 -378 564 -378 550 c 0,34,35
 -378 535 -378 535 -368.5 524 c 128,-1,36
 -359 513 -359 513 -343 513 c 0,37,38
 -309 513 -309 513 -309 550 c 0,28,29
EndSplineSet
EndChar
StartChar: uni0E4D.alt1
Encoding: 63249 63249 124
Width: 0
Flags: W
Fore
-156 503 m 0,0,1
 -156 486 -156 486 -164 472.5 c 128,-1,2
 -172 459 -172 459 -184.5 450 c 128,-1,3
 -197 441 -197 441 -212.5 436.5 c 128,-1,4
 -228 432 -228 432 -243 432 c 0,5,6
 -259 432 -259 432 -275.5 436 c 128,-1,7
 -292 440 -292 440 -305 448 c 128,-1,8
 -318 456 -318 456 -326 469 c 128,-1,9
 -334 482 -334 482 -334 501 c 0,10,11
 -334 518 -334 518 -325.5 531 c 128,-1,12
 -317 544 -317 544 -304 553 c 128,-1,13
 -291 562 -291 562 -275 566.5 c 128,-1,14
 -259 571 -259 571 -244 571 c 256,15,16
 -229 571 -229 571 -213 567 c 128,-1,17
 -197 563 -197 563 -184.5 554.5 c 128,-1,18
 -172 546 -172 546 -164 533.5 c 128,-1,19
 -156 521 -156 521 -156 503 c 0,0,1
-204 500 m 0,20,21
 -204 515 -204 515 -215 532.5 c 128,-1,22
 -226 550 -226 550 -243 550 c 0,23,24
 -252 550 -252 550 -258.5 545 c 128,-1,25
 -265 540 -265 540 -269.5 532.5 c 128,-1,26
 -274 525 -274 525 -276 516 c 128,-1,27
 -278 507 -278 507 -278 500 c 0,28,29
 -278 485 -278 485 -268 469.5 c 128,-1,30
 -258 454 -258 454 -241 454 c 0,31,32
 -222 454 -222 454 -213 468.5 c 128,-1,33
 -204 483 -204 483 -204 500 c 0,20,21
EndSplineSet
EndChar
StartChar: uni0E47.alt1
Encoding: 63250 63250 125
Width: 0
Flags: W
Fore
-131 664 m 1,0,1
 -131 657 -131 657 -133 649 c 0,2,3
 -136 634 -136 634 -142 621 c 0,4,5
 -150 607 -150 607 -159.5 596 c 128,-1,6
 -169 585 -169 585 -185 579 c 256,7,8
 -201 573 -201 573 -219 571 c 128,-1,9
 -237 569 -237 569 -256 569 c 2,10,-1
 -319 569 l 2,11,12
 -329 569 -329 569 -338.5 568.5 c 128,-1,13
 -348 568 -348 568 -355 564.5 c 128,-1,14
 -362 561 -362 561 -366.5 554 c 128,-1,15
 -371 547 -371 547 -371 534 c 256,16,17
 -371 521 -371 521 -363 507 c 1,18,19
 -352 513 -352 513 -340 524 c 128,-1,20
 -328 535 -328 535 -315 535 c 0,21,22
 -297 535 -297 535 -279.5 525.5 c 128,-1,23
 -262 516 -262 516 -248 505 c 1,24,25
 -249 507 -249 507 -250.5 512.5 c 128,-1,26
 -252 518 -252 518 -252 520 c 2,27,-1
 -252 525 l 2,28,29
 -252 541 -252 541 -242 550.5 c 128,-1,30
 -232 560 -232 560 -206 560 c 0,31,32
 -187 560 -187 560 -169 550 c 128,-1,33
 -151 540 -151 540 -151 517 c 0,34,35
 -151 485 -151 485 -173.5 472.5 c 128,-1,36
 -196 460 -196 460 -224 460 c 0,37,38
 -253 460 -253 460 -272 469.5 c 128,-1,39
 -291 479 -291 479 -312 499 c 1,40,41
 -322 482 -322 482 -337 469.5 c 128,-1,42
 -352 457 -352 457 -373 457 c 0,43,44
 -403 457 -403 457 -421.5 478.5 c 128,-1,45
 -440 500 -440 500 -440 529 c 0,46,47
 -440 549 -440 549 -428 565 c 0,48,49
 -418 579 -418 579 -403 587 c 128,-1,50
 -388 595 -388 595 -370.5 599 c 128,-1,51
 -353 603 -353 603 -334.5 604.5 c 128,-1,52
 -316 606 -316 606 -299 606 c 0,53,54
 -285 606 -285 606 -273 605.5 c 128,-1,55
 -261 605 -261 605 -253 605 c 2,56,-1
 -249 605 l 2,57,58
 -241 606 -241 606 -236 615 c 128,-1,59
 -231 624 -231 624 -228 635 c 0,60,61
 -224 648 -224 648 -223 664 c 1,62,-1
 -131 664 l 1,0,1
EndSplineSet
EndChar
StartChar: uni0E48.alt3
Encoding: 63251 63251 126
Width: 0
Flags: W
Fore
-227 762 m 1,0,-1
 -145 762 l 1,1,-1
 -145 647 l 1,2,-1
 -227 647 l 1,3,-1
 -227 762 l 1,0,-1
EndSplineSet
EndChar
StartChar: uni0E49.alt3
Encoding: 63252 63252 127
Width: 0
Flags: W
Fore
-70 793 m 1,0,1
 -72 778 -72 778 -77.5 764.5 c 128,-1,2
 -83 751 -83 751 -91 738 c 0,3,4
 -102 720 -102 720 -113 706.5 c 128,-1,5
 -124 693 -124 693 -141 681 c 0,6,7
 -178 655 -178 655 -223.5 643.5 c 128,-1,8
 -269 632 -269 632 -314 632 c 0,9,10
 -317 632 -317 632 -318 633 c 1,11,-1
 -318 661 l 1,12,13
 -310 664 -310 664 -303 664 c 128,-1,14
 -296 664 -296 664 -290 665 c 128,-1,15
 -284 666 -284 666 -280 670.5 c 128,-1,16
 -276 675 -276 675 -273 687 c 1,17,18
 -285 687 -285 687 -297.5 689.5 c 128,-1,19
 -310 692 -310 692 -320.5 698 c 128,-1,20
 -331 704 -331 704 -338 713.5 c 128,-1,21
 -345 723 -345 723 -345 737 c 256,22,23
 -345 751 -345 751 -338 760 c 128,-1,24
 -331 769 -331 769 -320.5 775 c 128,-1,25
 -310 781 -310 781 -297.5 783.5 c 128,-1,26
 -285 786 -285 786 -274 786 c 0,27,28
 -247 786 -247 786 -226.5 773.5 c 128,-1,29
 -206 761 -206 761 -206 731 c 0,30,31
 -206 717 -206 717 -211.5 703 c 128,-1,32
 -217 689 -217 689 -225 678 c 1,33,34
 -193 693 -193 693 -176 725.5 c 128,-1,35
 -159 758 -159 758 -157 793 c 1,36,-1
 -70 793 l 1,37,-1
 -70 793 l 1,0,1
-251 739 m 256,38,39
 -251 750 -251 750 -257 758.5 c 128,-1,40
 -263 767 -263 767 -275 767 c 0,41,42
 -286 767 -286 767 -291 757.5 c 128,-1,43
 -296 748 -296 748 -296 738 c 256,44,45
 -296 728 -296 728 -290 718.5 c 128,-1,46
 -284 709 -284 709 -273 709 c 0,47,48
 -259 709 -259 709 -255 718.5 c 128,-1,49
 -251 728 -251 728 -251 739 c 256,38,39
EndSplineSet
EndChar
StartChar: uni0E4A.alt3
Encoding: 63253 63253 128
Width: 0
Flags: W
Fore
-266 756 m 1,0,1
 -276 751 -276 751 -284.5 741.5 c 128,-1,2
 -293 732 -293 732 -293 720 c 0,3,4
 -293 705 -293 705 -283 692 c 1,5,6
 -278 703 -278 703 -268.5 708 c 128,-1,7
 -259 713 -259 713 -248 713 c 0,8,9
 -229 713 -229 713 -222 702 c 128,-1,10
 -215 691 -215 691 -215 676 c 256,11,12
 -215 661 -215 661 -230.5 651 c 128,-1,13
 -246 641 -246 641 -263 641 c 0,14,15
 -294 641 -294 641 -317.5 657.5 c 128,-1,16
 -341 674 -341 674 -341 708 c 0,17,18
 -341 723 -341 723 -334 735.5 c 128,-1,19
 -327 748 -327 748 -316.5 757.5 c 128,-1,20
 -306 767 -306 767 -292.5 773.5 c 128,-1,21
 -279 780 -279 780 -266 784 c 1,22,-1
 -249 784 l 1,23,-1
 -220 759 l 1,24,25
 -214 767 -214 767 -204 773.5 c 128,-1,26
 -194 780 -194 780 -185 780 c 0,27,28
 -180 780 -180 780 -174 778 c 128,-1,29
 -168 776 -168 776 -163 774 c 0,30,31
 -148 767 -148 767 -144.5 751 c 128,-1,32
 -141 735 -141 735 -141 721 c 0,33,34
 -141 708 -141 708 -146 695 c 1,35,36
 -131 708 -131 708 -125 730 c 128,-1,37
 -119 752 -119 752 -119 771 c 0,38,39
 -119 776 -119 776 -119.5 780.5 c 128,-1,40
 -120 785 -120 785 -121 790 c 1,41,-1
 -52 790 l 1,42,43
 -54 775 -54 775 -55 759.5 c 128,-1,44
 -56 744 -56 744 -61 730 c 0,45,46
 -75 692 -75 692 -109.5 670 c 128,-1,47
 -144 648 -144 648 -185 643 c 2,48,-1
 -200 643 l 1,49,-1
 -200 671 l 1,50,51
 -198 673 -198 673 -195 674 c 128,-1,52
 -192 675 -192 675 -190 677 c 0,53,54
 -181 684 -181 684 -178.5 694.5 c 128,-1,55
 -176 705 -176 705 -176 716 c 0,56,57
 -176 724 -176 724 -177.5 735 c 128,-1,58
 -179 746 -179 746 -187 749 c 1,59,60
 -196 744 -196 744 -205 733.5 c 128,-1,61
 -214 723 -214 723 -225 723 c 256,62,63
 -236 723 -236 723 -248.5 735 c 128,-1,64
 -261 747 -261 747 -266 756 c 1,0,1
EndSplineSet
EndChar
StartChar: uni0E4B.alt3
Encoding: 63254 63254 129
Width: 0
Flags: W
Fore
-145 649 m 1,0,-1
 -228 649 l 1,1,-1
 -228 695 l 1,2,-1
 -274 695 l 1,3,-1
 -274 729 l 1,4,-1
 -228 729 l 1,5,-1
 -228 772 l 1,6,-1
 -145 772 l 1,7,-1
 -145 729 l 1,8,-1
 -97 729 l 1,9,-1
 -97 695 l 1,10,-1
 -145 695 l 1,11,-1
 -145 649 l 1,0,-1
EndSplineSet
EndChar
StartChar: uni0E4C.alt3
Encoding: 63255 63255 130
Width: 0
Flags: W
Fore
-99 760 m 0,0,1
 -98 763 -98 763 -98 767 c 128,-1,2
 -98 771 -98 771 -97 776 c 256,3,4
 -96 781 -96 781 -96 787 c 1,5,-1
 -12 787 l 1,6,7
 -17 750 -17 750 -40 723 c 128,-1,8
 -63 696 -63 696 -100 688 c 1,9,10
 -95 680 -95 680 -91.5 671 c 128,-1,11
 -88 662 -88 662 -88 652 c 0,12,13
 -88 619 -88 619 -111.5 605 c 128,-1,14
 -135 591 -135 591 -164 591 c 0,15,16
 -192 591 -192 591 -216 606 c 128,-1,17
 -240 621 -240 621 -240 652 c 0,18,19
 -240 657 -240 657 -237.5 666.5 c 128,-1,20
 -235 676 -235 676 -228 685.5 c 128,-1,21
 -221 695 -221 695 -208 703 c 128,-1,22
 -195 711 -195 711 -174 714 c 0,23,24
 -150 717 -150 717 -136 722.5 c 128,-1,25
 -122 728 -122 728 -114.5 734.5 c 128,-1,26
 -107 741 -107 741 -104 747.5 c 128,-1,27
 -101 754 -101 754 -99 760 c 0,0,1
-138 650 m 0,28,29
 -138 662 -138 662 -142.5 677 c 128,-1,30
 -147 692 -147 692 -163 692 c 0,31,32
 -176 692 -176 692 -182 677 c 128,-1,33
 -188 662 -188 662 -188 651 c 0,34,35
 -188 639 -188 639 -181.5 626 c 128,-1,36
 -175 613 -175 613 -161 613 c 256,37,38
 -147 613 -147 613 -142.5 626 c 128,-1,39
 -138 639 -138 639 -138 650 c 0,28,29
EndSplineSet
EndChar
StartChar: uni0E01
Encoding: 3585 3585 132
Width: 457
Flags: W
Fore
415 50 m 1,0,-1
 370 0 l 1,1,-1
 312 0 l 1,2,-1
 312 259 l 2,3,4
 312 302 312 302 284 327.5 c 128,-1,5
 256 353 256 353 214 353 c 0,6,7
 171 353 171 353 134 341 c 128,-1,8
 97 329 97 329 66 299 c 1,9,-1
 182 299 l 1,10,-1
 182 272 l 1,11,12
 159 260 159 260 146.5 247 c 128,-1,13
 134 234 134 234 134 205 c 2,14,-1
 134 0 l 1,15,-1
 33 0 l 1,16,-1
 33 205 l 2,17,18
 33 213 33 213 38.5 221.5 c 128,-1,19
 44 230 44 230 52.5 238 c 128,-1,20
 61 246 61 246 69.5 253 c 128,-1,21
 78 260 78 260 84 264 c 1,22,-1
 6 264 l 1,23,-1
 6 311 l 1,24,25
 44 346 44 346 98.5 367.5 c 128,-1,26
 153 389 153 389 215 389 c 0,27,28
 263 389 263 389 297 380 c 128,-1,29
 331 371 331 371 353 357.5 c 128,-1,30
 375 344 375 344 387.5 327.5 c 128,-1,31
 400 311 400 311 406 296.5 c 128,-1,32
 412 282 412 282 413.5 270.5 c 128,-1,33
 415 259 415 259 415 255 c 2,34,-1
 415 253 l 1,35,-1
 415 50 l 1,0,-1
EndSplineSet
EndChar
StartChar: uni0E02
Encoding: 3586 3586 133
Width: 454
Flags: W
Fore
410 68 m 1,0,1
 410 30 410 30 387.5 15 c 128,-1,2
 365 0 365 0 330 0 c 2,3,-1
 58 0 l 1,4,-1
 58 40 l 1,5,-1
 99 40 l 1,6,-1
 99 130 l 2,7,8
 99 151 99 151 115 169.5 c 128,-1,9
 131 188 131 188 149.5 207 c 128,-1,10
 168 226 168 226 184 247 c 128,-1,11
 200 268 200 268 200 295 c 0,12,13
 200 324 200 324 182.5 342 c 128,-1,14
 165 360 165 360 136 360 c 0,15,16
 117 360 117 360 100.5 353 c 128,-1,17
 84 346 84 346 73 330 c 1,18,19
 86 334 86 334 103 334 c 0,20,21
 127 334 127 334 147 321 c 128,-1,22
 167 308 167 308 167 281 c 0,23,24
 167 245 167 245 143.5 232 c 128,-1,25
 120 219 120 219 88 219 c 0,26,27
 73 219 73 219 58.5 222.5 c 128,-1,28
 44 226 44 226 32 233.5 c 128,-1,29
 20 241 20 241 12.5 253 c 128,-1,30
 5 265 5 265 5 282 c 0,31,32
 5 309 5 309 16.5 328.5 c 128,-1,33
 28 348 28 348 47 361 c 128,-1,34
 66 374 66 374 89 380.5 c 128,-1,35
 112 387 112 387 136 387 c 0,36,37
 158 387 158 387 184 382.5 c 128,-1,38
 210 378 210 378 233 367 c 128,-1,39
 256 356 256 356 271.5 337.5 c 128,-1,40
 287 319 287 319 287 292 c 0,41,42
 287 273 287 273 273.5 255.5 c 128,-1,43
 260 238 260 238 244.5 220 c 128,-1,44
 229 202 229 202 215.5 183 c 128,-1,45
 202 164 202 164 202 142 c 2,46,-1
 202 40 l 1,47,-1
 307 40 l 1,48,-1
 307 336 l 1,49,-1
 355 383 l 1,50,-1
 410 383 l 1,51,-1
 410 68 l 1,52,-1
 410 68 l 1,0,1
116 279 m 256,53,54
 116 290 116 290 108.5 300 c 128,-1,55
 101 310 101 310 89 310 c 0,56,57
 76 310 76 310 68.5 300.5 c 128,-1,58
 61 291 61 291 61 279 c 0,59,60
 61 265 61 265 69 252.5 c 128,-1,61
 77 240 77 240 93 240 c 0,62,63
 107 240 107 240 111.5 254 c 128,-1,64
 116 268 116 268 116 279 c 256,53,54
EndSplineSet
EndChar
StartChar: uni0E03
Encoding: 3587 3587 134
Width: 415
Flags: W
Fore
47 0 m 1,0,-1
 47 40 l 1,1,-1
 89 40 l 1,2,-1
 89 124 l 2,3,4
 89 143 89 143 108 166 c 128,-1,5
 127 189 127 189 149.5 214 c 128,-1,6
 172 239 172 239 190.5 265.5 c 128,-1,7
 209 292 209 292 209 318 c 0,8,9
 209 331 209 331 205 337 c 128,-1,10
 201 343 201 343 192 351 c 1,11,12
 166 325 166 325 127 325 c 0,13,14
 109 325 109 325 94 334.5 c 128,-1,15
 79 344 79 344 64 352 c 1,16,17
 58 344 58 344 56 335 c 128,-1,18
 54 326 54 326 54 316 c 0,19,20
 54 311 54 311 54.5 305 c 128,-1,21
 55 299 55 299 56 294 c 1,22,23
 61 305 61 305 74.5 309 c 128,-1,24
 88 313 88 313 99 313 c 0,25,26
 122 313 122 313 135.5 300.5 c 128,-1,27
 149 288 149 288 149 265 c 0,28,29
 149 235 149 235 130.5 220 c 128,-1,30
 112 205 112 205 83 205 c 0,31,32
 37 205 37 205 20 232.5 c 128,-1,33
 3 260 3 260 3 301 c 0,34,35
 3 316 3 316 6.5 331 c 128,-1,36
 10 346 10 346 17.5 358 c 128,-1,37
 25 370 25 370 37 377.5 c 128,-1,38
 49 385 49 385 67 385 c 256,39,40
 85 385 85 385 100.5 376.5 c 128,-1,41
 116 368 116 368 130 357 c 1,42,43
 144 369 144 369 159 378 c 128,-1,44
 174 387 174 387 193 387 c 0,45,46
 208 387 208 387 222.5 381 c 128,-1,47
 237 375 237 375 248.5 364.5 c 128,-1,48
 260 354 260 354 267 340 c 128,-1,49
 274 326 274 326 274 311 c 0,50,51
 274 283 274 283 261 261 c 128,-1,52
 248 239 248 239 232.5 219 c 128,-1,53
 217 199 217 199 204 180 c 128,-1,54
 191 161 191 161 191 139 c 2,55,-1
 191 40 l 1,56,-1
 289 40 l 1,57,-1
 289 353 l 1,58,-1
 344 383 l 1,59,-1
 390 383 l 1,60,-1
 390 50 l 2,61,62
 390 41 390 41 380.5 32.5 c 128,-1,63
 371 24 371 24 357 16.5 c 128,-1,64
 343 9 343 9 327 4.5 c 128,-1,65
 311 0 311 0 298 0 c 2,66,-1
 47 0 l 1,0,-1
111 262 m 256,67,68
 111 273 111 273 106 281 c 128,-1,69
 101 289 101 289 89 289 c 0,70,71
 78 289 78 289 70.5 280.5 c 128,-1,72
 63 272 63 272 63 261 c 256,73,74
 63 250 63 250 68 238 c 128,-1,75
 73 226 73 226 87 226 c 256,76,77
 101 226 101 226 106 238.5 c 128,-1,78
 111 251 111 251 111 262 c 256,67,68
EndSplineSet
EndChar
StartChar: uni0E04
Encoding: 3588 3588 135
Width: 434
Flags: W
Fore
397 40 m 1,0,1
 386 30 386 30 376 20.5 c 128,-1,2
 366 11 366 11 355 0 c 1,3,-1
 295 0 l 1,4,-1
 295 260 l 2,5,6
 295 305 295 305 269.5 330 c 128,-1,7
 244 355 244 355 199 355 c 0,8,9
 175 355 175 355 150.5 349 c 128,-1,10
 126 343 126 343 106 330.5 c 128,-1,11
 86 318 86 318 73.5 298.5 c 128,-1,12
 61 279 61 279 61 251 c 0,13,14
 61 240 61 240 64 229 c 128,-1,15
 67 218 67 218 72 207 c 1,16,17
 78 236 78 236 99.5 258.5 c 128,-1,18
 121 281 121 281 153 281 c 0,19,20
 182 281 182 281 205 263.5 c 128,-1,21
 228 246 228 246 228 215 c 0,22,23
 228 180 228 180 207.5 161 c 128,-1,24
 187 142 187 142 152 142 c 0,25,26
 147 142 147 142 143 142.5 c 128,-1,27
 139 143 139 143 134 144 c 1,28,-1
 134 1 l 1,29,-1
 50 1 l 1,30,-1
 50 114 l 2,31,32
 50 130 50 130 44 145 c 0,33,34
 35 171 35 171 23 194.5 c 128,-1,35
 11 218 11 218 11 247 c 0,36,37
 11 286 11 286 28 313 c 128,-1,38
 45 340 45 340 72 356 c 128,-1,39
 99 372 99 372 133 379 c 128,-1,40
 167 386 167 386 200 386 c 0,41,42
 230 386 230 386 264.5 379.5 c 128,-1,43
 299 373 299 373 328.5 358 c 128,-1,44
 358 343 358 343 377.5 318.5 c 128,-1,45
 397 294 397 294 397 257 c 2,46,-1
 397 40 l 1,47,-1
 397 40 l 1,0,1
182 214 m 0,48,49
 182 227 182 227 174 239 c 128,-1,50
 166 251 166 251 152 251 c 0,51,52
 135 251 135 251 127.5 237 c 128,-1,53
 120 223 120 223 120 208 c 0,54,55
 120 194 120 194 128.5 182.5 c 128,-1,56
 137 171 137 171 152 171 c 0,57,58
 172 171 172 171 177 184.5 c 128,-1,59
 182 198 182 198 182 214 c 0,48,49
EndSplineSet
EndChar
StartChar: uni0E05
Encoding: 3589 3589 136
Width: 440
Flags: W
Fore
303 1 m 1,0,-1
 303 275 l 2,1,2
 303 281 303 281 302.5 292 c 128,-1,3
 302 303 302 303 300 313.5 c 128,-1,4
 298 324 298 324 293 332 c 128,-1,5
 288 340 288 340 279 340 c 0,6,7
 269 340 269 340 260 335 c 128,-1,8
 251 330 251 330 241.5 323.5 c 128,-1,9
 232 317 232 317 222.5 312 c 128,-1,10
 213 307 213 307 201 307 c 0,11,12
 186 307 186 307 173.5 313.5 c 128,-1,13
 161 320 161 320 150.5 328.5 c 128,-1,14
 140 337 140 337 130 343.5 c 128,-1,15
 120 350 120 350 110 350 c 0,16,17
 95 350 95 350 85 339 c 128,-1,18
 75 328 75 328 69 312.5 c 128,-1,19
 63 297 63 297 60.5 280.5 c 128,-1,20
 58 264 58 264 58 253 c 0,21,22
 58 234 58 234 64 216 c 128,-1,23
 70 198 70 198 78 181 c 1,24,25
 78 218 78 218 99.5 242.5 c 128,-1,26
 121 267 121 267 159 267 c 0,27,28
 191 267 191 267 211.5 248.5 c 128,-1,29
 232 230 232 230 232 198 c 256,30,31
 232 166 232 166 210 147.5 c 128,-1,32
 188 129 188 129 157 129 c 0,33,34
 146 129 146 129 133 134 c 1,35,-1
 133 0 l 1,36,-1
 49 0 l 1,37,-1
 49 104 l 2,38,39
 49 121 49 121 43 137 c 0,40,41
 34 163 34 163 23 187 c 128,-1,42
 12 211 12 211 12 239 c 0,43,44
 12 265 12 265 17 291.5 c 128,-1,45
 22 318 22 318 34 339 c 128,-1,46
 46 360 46 360 66.5 373.5 c 128,-1,47
 87 387 87 387 118 387 c 0,48,49
 133 387 133 387 144.5 380.5 c 128,-1,50
 156 374 156 374 166 365.5 c 128,-1,51
 176 357 176 357 184 350.5 c 128,-1,52
 192 344 192 344 200 344 c 0,53,54
 209 344 209 344 219 351 c 128,-1,55
 229 358 229 358 239.5 366 c 128,-1,56
 250 374 250 374 262 381 c 128,-1,57
 274 388 274 388 287 388 c 0,58,59
 311 388 311 388 332.5 378.5 c 128,-1,60
 354 369 354 369 370 352.5 c 128,-1,61
 386 336 386 336 395.5 314.5 c 128,-1,62
 405 293 405 293 405 269 c 2,63,-1
 405 40 l 1,64,-1
 358 1 l 1,65,-1
 303 1 l 1,0,-1
189 200 m 0,66,67
 189 212 189 212 181.5 224.5 c 128,-1,68
 174 237 174 237 160 237 c 0,69,70
 142 237 142 237 134.5 223.5 c 128,-1,71
 127 210 127 210 127 194 c 0,72,73
 127 180 127 180 135.5 168.5 c 128,-1,74
 144 157 144 157 159 157 c 0,75,76
 179 157 179 157 184 170.5 c 128,-1,77
 189 184 189 184 189 200 c 0,66,67
EndSplineSet
EndChar
StartChar: uni0E06
Encoding: 3590 3590 137
Width: 470
Flags: W
Fore
435 32 m 1,0,1
 435 21 435 21 425 10.5 c 128,-1,2
 415 0 415 0 402 0 c 2,3,-1
 349 0 l 1,4,5
 314 27 314 27 277.5 50.5 c 128,-1,6
 241 74 241 74 204 97 c 1,7,-1
 204 82 l 2,8,9
 204 34 204 34 184.5 16 c 128,-1,10
 165 -2 165 -2 117 -2 c 0,11,12
 79 -2 79 -2 54 16 c 128,-1,13
 29 34 29 34 29 76 c 0,14,15
 29 92 29 92 37 106 c 128,-1,16
 45 120 45 120 57.5 131 c 128,-1,17
 70 142 70 142 85 149.5 c 128,-1,18
 100 157 100 157 114 160 c 1,19,-1
 114 171 l 2,20,21
 114 185 114 185 131 201.5 c 128,-1,22
 148 218 148 218 168 237.5 c 128,-1,23
 188 257 188 257 205 279.5 c 128,-1,24
 222 302 222 302 222 327 c 0,25,26
 222 332 222 332 220.5 341.5 c 128,-1,27
 219 351 219 351 211 351 c 0,28,29
 208 351 208 351 199.5 346.5 c 128,-1,30
 191 342 191 342 180 337 c 128,-1,31
 169 332 169 332 157.5 327.5 c 128,-1,32
 146 323 146 323 135 323 c 0,33,34
 120 323 120 323 102 332 c 128,-1,35
 84 341 84 341 71 349 c 1,36,37
 65 341 65 341 65 332.5 c 128,-1,38
 65 324 65 324 63 314 c 1,39,40
 75 318 75 318 90 318 c 0,41,42
 115 318 115 318 131 305.5 c 128,-1,43
 147 293 147 293 147 267 c 0,44,45
 147 238 147 238 126.5 225 c 128,-1,46
 106 212 106 212 80 212 c 0,47,48
 46 212 46 212 27 231.5 c 128,-1,49
 8 251 8 251 8 285 c 0,50,51
 8 305 8 305 9.5 323 c 128,-1,52
 11 341 11 341 18 355 c 128,-1,53
 25 369 25 369 39 377.5 c 128,-1,54
 53 386 53 386 78 386 c 0,55,56
 83 386 83 386 92 383 c 128,-1,57
 101 380 101 380 110 376 c 128,-1,58
 119 372 119 372 127.5 367.5 c 128,-1,59
 136 363 136 363 140 359 c 1,60,61
 155 370 155 370 172.5 377.5 c 128,-1,62
 190 385 190 385 210 385 c 0,63,64
 246 385 246 385 269 369 c 128,-1,65
 292 353 292 353 292 314 c 0,66,67
 292 295 292 295 280 278 c 128,-1,68
 268 261 268 261 253 246 c 128,-1,69
 238 231 238 231 224.5 216.5 c 128,-1,70
 211 202 211 202 208 188 c 0,71,72
 207 184 207 184 207 176 c 2,73,-1
 207 153 l 1,74,75
 239 133 239 133 270.5 114.5 c 128,-1,76
 302 96 302 96 333 76 c 1,77,-1
 333 348 l 1,78,79
 344 359 344 359 355.5 366.5 c 128,-1,80
 367 374 367 374 379 382 c 1,81,-1
 435 382 l 1,82,-1
 435 32 l 1,83,-1
 435 32 l 1,0,1
109 270 m 256,84,85
 109 281 109 281 104 289 c 128,-1,86
 99 297 99 297 87 297 c 0,87,88
 76 297 76 297 68.5 288.5 c 128,-1,89
 61 280 61 280 61 269 c 256,90,91
 61 258 61 258 66 246 c 128,-1,92
 71 234 71 234 85 234 c 256,93,94
 99 234 99 234 104 246.5 c 128,-1,95
 109 259 109 259 109 270 c 256,84,85
114 122 m 1,96,97
 100 116 100 116 92.5 102 c 128,-1,98
 85 88 85 88 85 73 c 0,99,100
 85 59 85 59 92.5 45 c 128,-1,101
 100 31 100 31 114 26 c 1,102,-1
 114 122 l 1,103,-1
 114 122 l 1,96,97
EndSplineSet
EndChar
StartChar: uni0E07
Encoding: 3591 3591 138
Width: 323
Flags: W
Fore
290 39 m 1,0,1
 290 35 290 35 285.5 28.5 c 128,-1,2
 281 22 281 22 274.5 15.5 c 128,-1,3
 268 9 268 9 261 4.5 c 128,-1,4
 254 0 254 0 250 0 c 2,5,-1
 180 0 l 1,6,-1
 1 198 l 1,7,-1
 76 198 l 1,8,-1
 188 80 l 1,9,-1
 188 240 l 1,10,11
 170 240 170 240 152.5 244 c 128,-1,12
 135 248 135 248 121.5 257 c 128,-1,13
 108 266 108 266 100 280.5 c 128,-1,14
 92 295 92 295 92 316 c 0,15,16
 92 336 92 336 100 350 c 128,-1,17
 108 364 108 364 121 372 c 128,-1,18
 134 380 134 380 150.5 383.5 c 128,-1,19
 167 387 167 387 185 387 c 256,20,21
 203 387 203 387 221.5 383 c 128,-1,22
 240 379 240 379 255 370 c 128,-1,23
 270 361 270 361 280 346.5 c 128,-1,24
 290 332 290 332 290 311 c 2,25,-1
 290 39 l 1,26,-1
 290 39 l 1,0,1
212 317 m 0,27,28
 212 329 212 329 206 345.5 c 128,-1,29
 200 362 200 362 184 362 c 0,30,31
 167 362 167 362 158 347 c 128,-1,32
 149 332 149 332 149 317 c 0,33,34
 149 301 149 301 156.5 284 c 128,-1,35
 164 267 164 267 184 267 c 0,36,37
 192 267 192 267 197.5 272.5 c 128,-1,38
 203 278 203 278 206 286 c 128,-1,39
 209 294 209 294 210.5 302.5 c 128,-1,40
 212 311 212 311 212 317 c 0,27,28
EndSplineSet
EndChar
StartChar: uni0E08
Encoding: 3592 3592 139
Width: 374
Flags: W
Fore
179 0 m 1,0,-1
 146 132 l 1,1,2
 134 128 l 128,-1,3
 128 126 128 126 122 126 c 0,4,5
 89 126 89 126 63 140 c 128,-1,6
 37 154 37 154 37 192 c 0,7,8
 37 226 37 226 60.5 244.5 c 128,-1,9
 84 263 84 263 116 263 c 0,10,11
 145 263 145 263 162.5 254 c 128,-1,12
 180 245 180 245 190.5 230 c 128,-1,13
 201 215 201 215 206.5 194.5 c 128,-1,14
 212 174 212 174 217 150 c 2,15,-1
 239 47 l 1,16,-1
 247 47 l 1,17,-1
 260 245 l 1,18,-1
 260 258 l 2,19,20
 260 308 260 308 239.5 332.5 c 128,-1,21
 219 357 219 357 167 357 c 0,22,23
 144 357 144 357 122.5 346.5 c 128,-1,24
 101 336 101 336 83.5 319.5 c 128,-1,25
 66 303 66 303 52.5 283 c 128,-1,26
 39 263 39 263 31 243 c 1,27,-1
 8 243 l 1,28,-1
 8 328 l 2,29,30
 8 330 8 330 12.5 334 c 128,-1,31
 17 338 17 338 19 340 c 0,32,33
 51 367 51 367 88 377 c 128,-1,34
 125 387 125 387 167 387 c 0,35,36
 192 387 192 387 217.5 385.5 c 128,-1,37
 243 384 243 384 265.5 376.5 c 128,-1,38
 288 369 288 369 306.5 353.5 c 128,-1,39
 325 338 325 338 335 311 c 0,40,41
 348 281 348 281 348 246 c 2,42,-1
 328 0 l 1,43,-1
 179 0 l 1,0,-1
143 195 m 0,44,45
 143 201 143 201 141.5 208 c 128,-1,46
 140 215 140 215 136.5 221.5 c 128,-1,47
 133 228 133 228 128 232.5 c 128,-1,48
 123 237 123 237 116 237 c 0,49,50
 102 237 102 237 95 222 c 128,-1,51
 88 207 88 207 88 195 c 0,52,53
 88 182 88 182 95.5 169 c 128,-1,54
 103 156 103 156 118 156 c 0,55,56
 132 156 132 156 137.5 170 c 128,-1,57
 143 184 143 184 143 195 c 0,44,45
EndSplineSet
EndChar
StartChar: uni0E09
Encoding: 3593 3593 140
Width: 436
Flags: W
Fore
204 386 m 0,0,1
 240 386 240 386 275 382 c 128,-1,2
 310 378 310 378 338 364 c 128,-1,3
 366 350 366 350 383 323.5 c 128,-1,4
 400 297 400 297 400 252 c 2,5,-1
 400 161 l 2,6,7
 400 148 400 148 391 137 c 128,-1,8
 382 126 382 126 373 117 c 2,9,-1
 371 115 l 1,10,11
 392 109 392 109 406 95 c 128,-1,12
 420 81 420 81 420 58 c 0,13,14
 420 38 420 38 413.5 26 c 128,-1,15
 407 14 407 14 396.5 7.5 c 128,-1,16
 386 1 386 1 371.5 -1 c 128,-1,17
 357 -3 357 -3 340 -3 c 0,18,19
 327 -3 327 -3 312.5 -1 c 128,-1,20
 298 1 298 1 286 7 c 128,-1,21
 274 13 274 13 266 23.5 c 128,-1,22
 258 34 258 34 258 51 c 0,23,24
 258 56 258 56 260 60.5 c 128,-1,25
 262 65 262 65 264 70 c 1,26,27
 237 57 237 57 219.5 40 c 128,-1,28
 202 23 202 23 184 0 c 1,29,-1
 100 0 l 1,30,-1
 100 117 l 1,31,32
 95 116 95 116 91.5 115.5 c 128,-1,33
 88 115 88 115 83 115 c 0,34,35
 55 115 55 115 34.5 128.5 c 128,-1,36
 14 142 14 142 14 173 c 0,37,38
 14 212 14 212 40 227.5 c 128,-1,39
 66 243 66 243 101 243 c 0,40,41
 130 243 130 243 148.5 237 c 128,-1,42
 167 231 167 231 177.5 218 c 128,-1,43
 188 205 188 205 192 185.5 c 128,-1,44
 196 166 196 166 196 140 c 2,45,-1
 196 77 l 1,46,47
 218 90 218 90 237 100 c 0,48,49
 259 110 l 128,-1,50
 270 115 270 115 279 122 c 128,-1,51
 288 129 288 129 293.5 138.5 c 128,-1,52
 299 148 299 148 299 162 c 2,53,-1
 299 254 l 2,54,55
 299 302 299 302 279 328.5 c 128,-1,56
 259 355 259 355 208 355 c 0,57,58
 182 355 182 355 156.5 345 c 128,-1,59
 131 335 131 335 108 319.5 c 128,-1,60
 85 304 85 304 65 284.5 c 128,-1,61
 45 265 45 265 30 245 c 1,62,-1
 8 245 l 1,63,-1
 8 325 l 1,64,65
 35 340 35 340 57 351.5 c 128,-1,66
 79 363 79 363 101 370.5 c 128,-1,67
 123 378 123 378 147.5 382 c 128,-1,68
 172 386 172 386 204 386 c 0,0,1
363 63 m 0,69,70
 363 72 363 72 356 83.5 c 128,-1,71
 349 95 349 95 338 95 c 0,72,73
 326 95 326 95 321.5 81.5 c 128,-1,74
 317 68 317 68 317 58 c 0,75,76
 317 49 317 49 322.5 36.5 c 128,-1,77
 328 24 328 24 339 24 c 0,78,79
 355 24 355 24 359 37 c 128,-1,80
 363 50 363 50 363 63 c 0,69,70
119 182 m 256,81,82
 119 193 119 193 115 205 c 128,-1,83
 111 217 111 217 97 217 c 0,84,85
 80 217 80 217 73 205 c 128,-1,86
 66 193 66 193 66 178 c 0,87,88
 66 167 66 167 73.5 155.5 c 128,-1,89
 81 144 81 144 94 144 c 0,90,91
 108 144 108 144 113.5 157.5 c 128,-1,92
 119 171 119 171 119 182 c 256,81,82
EndSplineSet
EndChar
StartChar: uni0E0A
Encoding: 3594 3594 141
Width: 421
Flags: W
Fore
430 399 m 1,0,1
 407 365 407 365 380 337 c 128,-1,2
 353 309 353 309 314 294 c 1,3,4
 327 289 327 289 340.5 281 c 128,-1,5
 354 273 354 273 365 262.5 c 128,-1,6
 376 252 376 252 383 238.5 c 128,-1,7
 390 225 390 225 390 210 c 2,8,-1
 390 54 l 2,9,10
 390 41 390 41 381 30.5 c 128,-1,11
 372 20 372 20 359.5 13.5 c 128,-1,12
 347 7 347 7 332.5 3.5 c 128,-1,13
 318 0 318 0 307 0 c 2,14,-1
 53 0 l 1,15,-1
 53 40 l 1,16,-1
 95 40 l 1,17,-1
 95 123 l 2,18,19
 95 135 95 135 111 154.5 c 128,-1,20
 127 174 127 174 145.5 197.5 c 128,-1,21
 164 221 164 221 180 246.5 c 128,-1,22
 196 272 196 272 196 297 c 0,23,24
 196 323 196 323 178 340.5 c 128,-1,25
 160 358 160 358 134 358 c 0,26,27
 114 358 114 358 96.5 349 c 128,-1,28
 79 340 79 340 70 320 c 1,29,30
 73 322 73 322 80 325 c 128,-1,31
 87 328 87 328 91 328 c 2,32,-1
 97 328 l 2,33,34
 120 328 120 328 139 315 c 128,-1,35
 158 302 158 302 158 270 c 0,36,37
 158 237 158 237 138 223 c 128,-1,38
 118 209 118 209 87 209 c 0,39,40
 50 209 50 209 29 228 c 128,-1,41
 8 247 8 247 8 285 c 0,42,43
 8 311 8 311 18.5 330 c 128,-1,44
 29 349 29 349 46 361 c 128,-1,45
 63 373 63 373 85 379 c 128,-1,46
 107 385 107 385 130 385 c 0,47,48
 149 385 149 385 171 381.5 c 128,-1,49
 193 378 193 378 212.5 369.5 c 128,-1,50
 232 361 232 361 247 346.5 c 128,-1,51
 262 332 262 332 266 310 c 1,52,53
 286 321 286 321 297 335.5 c 128,-1,54
 308 350 308 350 322 371 c 2,55,-1
 337 399 l 1,56,-1
 430 399 l 1,57,-1
 430 399 l 1,0,1
289 210 m 1,58,59
 289 230 289 230 285.5 245.5 c 128,-1,60
 282 261 282 261 263 272 c 1,61,62
 256 253 256 253 244 235 c 128,-1,63
 232 217 232 217 221 199 c 128,-1,64
 210 181 210 181 201.5 162 c 128,-1,65
 193 143 193 143 193 122 c 2,66,-1
 193 40 l 1,67,-1
 289 40 l 1,68,-1
 289 210 l 1,69,-1
 289 210 l 1,58,59
111 266 m 0,70,71
 111 280 111 280 104.5 288 c 128,-1,72
 98 296 98 296 84 296 c 0,73,74
 72 296 72 296 66.5 286.5 c 128,-1,75
 61 277 61 277 61 266 c 0,76,77
 61 256 61 256 67.5 244.5 c 128,-1,78
 74 233 74 233 85 233 c 0,79,80
 99 233 99 233 105 244 c 128,-1,81
 111 255 111 255 111 266 c 0,70,71
EndSplineSet
EndChar
StartChar: uni0E0B
Encoding: 3595 3595 142
Width: 446
Flags: W
Fore
453 400 m 1,0,1
 430 363 430 363 402.5 340.5 c 128,-1,2
 375 318 375 318 337 298 c 1,3,4
 350 292 350 292 363.5 284 c 128,-1,5
 377 276 377 276 387.5 265.5 c 128,-1,6
 398 255 398 255 405 241.5 c 128,-1,7
 412 228 412 228 412 212 c 2,8,-1
 412 51 l 2,9,10
 412 42 412 42 403 32.5 c 128,-1,11
 394 23 394 23 382 16 c 128,-1,12
 370 9 370 9 357.5 4.5 c 128,-1,13
 345 0 345 0 337 0 c 2,14,-1
 66 0 l 1,15,-1
 66 40 l 1,16,-1
 115 40 l 1,17,-1
 115 125 l 2,18,19
 115 141 115 141 131.5 166 c 128,-1,20
 148 191 148 191 167.5 219 c 128,-1,21
 187 247 187 247 203.5 275 c 128,-1,22
 220 303 220 303 220 325 c 0,23,24
 220 337 220 337 210 347 c 1,25,26
 199 338 199 338 182.5 328 c 128,-1,27
 166 318 166 318 151 318 c 0,28,29
 132 318 132 318 113.5 329 c 128,-1,30
 95 340 95 340 81 351 c 1,31,32
 71 345 71 345 69 333 c 128,-1,33
 67 321 67 321 67 310 c 2,34,-1
 67 296 l 1,35,36
 87 311 87 311 111 311 c 0,37,38
 136 311 136 311 150 297.5 c 128,-1,39
 164 284 164 284 164 259 c 0,40,41
 164 230 164 230 143 217 c 128,-1,42
 122 204 122 204 96 204 c 0,43,44
 57 204 57 204 33 231.5 c 128,-1,45
 9 259 9 259 9 297 c 0,46,47
 9 333 9 333 28 358.5 c 128,-1,48
 47 384 47 384 86 384 c 0,49,50
 104 384 104 384 116.5 377 c 128,-1,51
 129 370 129 370 143 360 c 2,52,-1
 149 356 l 1,53,54
 158 362 158 362 164 367.5 c 128,-1,55
 170 373 170 373 176.5 377.5 c 128,-1,56
 183 382 183 382 190.5 384.5 c 128,-1,57
 198 387 198 387 210 387 c 0,58,59
 248 387 248 387 266 367 c 128,-1,60
 284 347 284 347 284 309 c 1,61,62
 307 320 307 320 323 343.5 c 128,-1,63
 339 367 339 367 352 390 c 2,64,-1
 357 400 l 1,65,-1
 453 400 l 1,66,-1
 453 400 l 1,0,1
311 219 m 1,67,68
 311 237 311 237 303.5 254.5 c 128,-1,69
 296 272 296 272 279 281 c 1,70,71
 271 265 271 265 259.5 246.5 c 128,-1,72
 248 228 248 228 238 208.5 c 128,-1,73
 228 189 228 189 221 169.5 c 128,-1,74
 214 150 214 150 214 131 c 2,75,-1
 214 40 l 1,76,-1
 311 40 l 1,77,-1
 311 219 l 1,78,-1
 311 219 l 1,67,68
125 261 m 256,79,80
 125 272 125 272 120 280 c 128,-1,81
 115 288 115 288 103 288 c 0,82,83
 92 288 92 288 84.5 279.5 c 128,-1,84
 77 271 77 271 77 260 c 256,85,86
 77 249 77 249 82 237 c 128,-1,87
 87 225 87 225 101 225 c 256,88,89
 115 225 115 225 120 237.5 c 128,-1,90
 125 250 125 250 125 261 c 256,79,80
EndSplineSet
EndChar
StartChar: uni0E0C
Encoding: 3596 3596 143
Width: 617
Flags: W
Fore
579 35 m 1,0,1
 579 29 579 29 576 23 c 0,2,3
 571 14 571 14 564.5 7 c 128,-1,4
 558 0 558 0 547 0 c 2,5,-1
 493 0 l 1,6,7
 474 24 474 24 451.5 45 c 128,-1,8
 429 66 429 66 404 84 c 1,9,-1
 404 49 l 2,10,11
 404 34 404 34 396.5 24 c 128,-1,12
 389 14 389 14 377 7.5 c 128,-1,13
 365 1 365 1 351.5 -1.5 c 128,-1,14
 338 -4 338 -4 326 -4 c 0,15,16
 291 -4 291 -4 264.5 15.5 c 128,-1,17
 238 35 238 35 238 73 c 0,18,19
 238 100 238 100 258.5 119.5 c 128,-1,20
 279 139 279 139 305 141 c 1,21,-1
 305 267 l 2,22,23
 305 315 305 315 278.5 335.5 c 128,-1,24
 252 356 252 356 207 356 c 0,25,26
 169 356 169 356 132.5 342 c 128,-1,27
 96 328 96 328 69 302 c 1,28,-1
 182 302 l 1,29,-1
 182 275 l 1,30,31
 157 273 157 273 148.5 260 c 128,-1,32
 140 247 140 247 140 224 c 2,33,-1
 140 125 l 1,34,35
 145 129 145 129 151 129.5 c 128,-1,36
 157 130 157 130 164 130 c 0,37,38
 192 130 192 130 208.5 111.5 c 128,-1,39
 225 93 225 93 225 66 c 0,40,41
 225 49 225 49 218 36 c 128,-1,42
 211 23 211 23 199 14 c 128,-1,43
 187 5 187 5 172 0.5 c 128,-1,44
 157 -4 157 -4 142 -4 c 0,45,46
 124 -4 124 -4 106 1.5 c 128,-1,47
 88 7 88 7 73.5 17.5 c 128,-1,48
 59 28 59 28 50.5 44 c 128,-1,49
 42 60 42 60 42 80 c 2,50,-1
 42 210 l 2,51,52
 42 229 42 229 54 244.5 c 128,-1,53
 66 260 66 260 80 271 c 1,54,-1
 10 271 l 1,55,-1
 10 313 l 1,56,57
 55 351 55 351 107 369 c 128,-1,58
 159 387 159 387 217 387 c 0,59,60
 240 387 240 387 272.5 382.5 c 128,-1,61
 305 378 305 378 334 366.5 c 128,-1,62
 363 355 363 355 383.5 335 c 128,-1,63
 404 315 404 315 404 285 c 2,64,-1
 404 136 l 1,65,-1
 478 80 l 1,66,-1
 478 345 l 1,67,-1
 528 382 l 1,68,-1
 579 382 l 1,69,-1
 579 35 l 1,70,-1
 579 35 l 1,0,1
306 106 m 1,71,72
 292 97 292 97 287.5 89 c 128,-1,73
 283 81 283 81 283 64 c 0,74,75
 283 53 283 53 290.5 43 c 128,-1,76
 298 33 298 33 306 25 c 1,77,-1
 306 106 l 1,78,-1
 306 106 l 1,71,72
183 65 m 256,79,80
 183 80 183 80 174.5 90 c 128,-1,81
 166 100 166 100 150 100 c 0,82,83
 136 100 136 100 131 87 c 128,-1,84
 126 74 126 74 126 63 c 256,85,86
 126 52 126 52 132 37 c 128,-1,87
 138 22 138 22 152 22 c 0,88,89
 170 22 170 22 176.5 36 c 128,-1,90
 183 50 183 50 183 65 c 256,79,80
EndSplineSet
EndChar
StartChar: uni0E0D
Encoding: 3597 3597 144
Width: 612
Flags: W
Fore
571 37 m 1,0,1
 571 22 571 22 556.5 11 c 128,-1,2
 542 0 542 0 528 0 c 2,3,-1
 279 0 l 1,4,-1
 279 248 l 2,5,6
 279 270 279 270 275.5 288.5 c 128,-1,7
 272 307 272 307 262.5 320.5 c 128,-1,8
 253 334 253 334 237 341.5 c 128,-1,9
 221 349 221 349 196 349 c 0,10,11
 162 349 162 349 124 336.5 c 128,-1,12
 86 324 86 324 61 301 c 1,13,-1
 182 301 l 1,14,-1
 182 271 l 1,15,16
 158 264 158 264 144.5 250.5 c 128,-1,17
 131 237 131 237 131 211 c 2,18,-1
 131 128 l 1,19,20
 138 132 138 132 146 134.5 c 128,-1,21
 154 137 154 137 162 137 c 0,22,23
 192 137 192 137 208 118 c 128,-1,24
 224 99 224 99 224 70 c 0,25,26
 224 49 224 49 217 34.5 c 128,-1,27
 210 20 210 20 198 12 c 128,-1,28
 186 4 186 4 169.5 0.5 c 128,-1,29
 153 -3 153 -3 134 -3 c 0,30,31
 118 -3 118 -3 100 1.5 c 128,-1,32
 82 6 82 6 67 15.5 c 128,-1,33
 52 25 52 25 42 39 c 128,-1,34
 32 53 32 53 32 72 c 2,35,-1
 32 192 l 2,36,37
 32 215 32 215 47 235.5 c 128,-1,38
 62 256 62 256 81 267 c 1,39,-1
 14 267 l 1,40,-1
 14 318 l 1,41,42
 59 345 59 345 103 366 c 128,-1,43
 147 387 147 387 202 387 c 0,44,45
 236 387 236 387 268 379.5 c 128,-1,46
 300 372 300 372 325 355 c 128,-1,47
 350 338 350 338 365 311 c 128,-1,48
 380 284 380 284 380 245 c 2,49,-1
 380 40 l 1,50,-1
 469 40 l 1,51,-1
 469 347 l 1,52,-1
 519 382 l 1,53,-1
 571 382 l 1,54,-1
 571 37 l 1,55,-1
 571 37 l 1,0,1
566 -59 m 1,56,57
 566 -89 566 -89 546.5 -108 c 128,-1,58
 527 -127 527 -127 499 -138 c 128,-1,59
 471 -149 471 -149 440.5 -153 c 128,-1,60
 410 -157 410 -157 387 -157 c 0,61,62
 372 -157 372 -157 353 -154.5 c 128,-1,63
 334 -152 334 -152 317.5 -144.5 c 128,-1,64
 301 -137 301 -137 290 -124.5 c 128,-1,65
 279 -112 279 -112 279 -92 c 0,66,67
 279 -76 279 -76 286 -64 c 128,-1,68
 293 -52 293 -52 304.5 -44 c 128,-1,69
 316 -36 316 -36 330 -32.5 c 128,-1,70
 344 -29 344 -29 358 -29 c 0,71,72
 371 -29 371 -29 385 -31 c 128,-1,73
 399 -33 399 -33 410.5 -38.5 c 128,-1,74
 422 -44 422 -44 429.5 -54.5 c 128,-1,75
 437 -65 437 -65 437 -81 c 0,76,77
 437 -92 437 -92 434 -104 c 128,-1,78
 431 -116 431 -116 423 -124 c 1,79,80
 443 -122 443 -122 459 -110 c 0,81,82
 476 -96 476 -96 478 -78.5 c 128,-1,83
 480 -61 480 -61 482 -41 c 1,84,-1
 566 -41 l 1,85,-1
 566 -59 l 1,86,-1
 566 -59 l 1,56,57
390 -86 m 0,87,88
 390 -74 390 -74 383.5 -62 c 128,-1,89
 377 -50 377 -50 363 -50 c 0,90,91
 346 -50 346 -50 338 -62 c 128,-1,92
 330 -74 330 -74 330 -90 c 0,93,94
 330 -103 330 -103 336 -114.5 c 128,-1,95
 342 -126 342 -126 357 -126 c 0,96,97
 374 -126 374 -126 382 -113.5 c 128,-1,98
 390 -101 390 -101 390 -86 c 0,87,88
179 66 m 256,99,100
 179 81 179 81 170.5 91 c 128,-1,101
 162 101 162 101 146 101 c 0,102,103
 132 101 132 101 127 88 c 128,-1,104
 122 75 122 75 122 64 c 256,105,106
 122 53 122 53 128 38 c 128,-1,107
 134 23 134 23 148 23 c 0,108,109
 166 23 166 23 172.5 37 c 128,-1,110
 179 51 179 51 179 66 c 256,99,100
EndSplineSet
Substitution: 0 65534 'L019' uni0E0D.alt1
Substitution: 0 65534 'L019' uni0E0D.alt1
EndChar
StartChar: uni0E0E
Encoding: 3598 3598 145
Width: 486
Flags: W
Fore
50 312 m 1,0,1
 71 332 71 332 101 348 c 0,2,3
 127 362 127 362 164 373 c 128,-1,4
 201 384 201 384 251 384 c 0,5,6
 289 384 289 384 325 378.5 c 128,-1,7
 361 373 361 373 388.5 357.5 c 128,-1,8
 416 342 416 342 433 314.5 c 128,-1,9
 450 287 450 287 450 243 c 2,10,-1
 450 -163 l 2,11,12
 450 -165 450 -165 444.5 -165.5 c 128,-1,13
 439 -166 439 -166 437 -166 c 2,14,-1
 362 -166 l 1,15,16
 341 -155 341 -155 320.5 -142 c 128,-1,17
 300 -129 300 -129 280 -116 c 1,18,19
 276 -129 276 -129 265.5 -138.5 c 128,-1,20
 255 -148 255 -148 241.5 -154 c 128,-1,21
 228 -160 228 -160 213.5 -163 c 128,-1,22
 199 -166 199 -166 187 -166 c 256,23,24
 175 -166 175 -166 157.5 -164 c 128,-1,25
 140 -162 140 -162 124 -156.5 c 128,-1,26
 108 -151 108 -151 96.5 -140.5 c 128,-1,27
 85 -130 85 -130 85 -113 c 0,28,29
 85 -94 85 -94 93 -81.5 c 128,-1,30
 101 -69 101 -69 114 -61.5 c 128,-1,31
 127 -54 127 -54 143 -50.5 c 128,-1,32
 159 -47 159 -47 175 -47 c 0,33,34
 184 -47 184 -47 192.5 -49 c 128,-1,35
 201 -51 201 -51 209 -53 c 1,36,-1
 209 -22 l 1,37,-1
 250 0 l 1,38,-1
 304 0 l 1,39,40
 302 -19 302 -19 300.5 -38 c 128,-1,41
 299 -57 299 -57 295 -76 c 1,42,-1
 349 -107 l 1,43,-1
 349 241 l 2,44,45
 349 263 349 263 344 283 c 128,-1,46
 339 303 339 303 327.5 318.5 c 128,-1,47
 316 334 316 334 298.5 343 c 128,-1,48
 281 352 281 352 256 352 c 0,49,50
 218 352 218 352 176.5 340 c 128,-1,51
 135 328 135 328 105 304 c 1,52,-1
 232 304 l 1,53,-1
 232 274 l 1,54,55
 203 269 203 269 196.5 250 c 128,-1,56
 190 231 190 231 190 205 c 2,57,-1
 190 100 l 2,58,59
 190 44 190 44 167 20.5 c 128,-1,60
 144 -3 144 -3 88 -3 c 0,61,62
 72 -3 72 -3 57 0 c 128,-1,63
 42 3 42 3 31 10.5 c 128,-1,64
 20 18 20 18 13 30 c 128,-1,65
 6 42 6 42 6 61 c 0,66,67
 6 91 6 91 24.5 110 c 128,-1,68
 43 129 43 129 73 129 c 0,69,70
 78 129 78 129 88 127 c 1,71,-1
 88 203 l 2,72,73
 88 225 88 225 101 241.5 c 128,-1,74
 114 258 114 258 131 270 c 1,75,-1
 50 270 l 1,76,-1
 50 312 l 1,77,-1
 50 312 l 1,0,1
103 66 m 1,78,79
 103 74 103 74 98 86 c 128,-1,80
 93 98 93 98 84 98 c 0,81,82
 68 98 68 98 62.5 85.5 c 128,-1,83
 57 73 57 73 57 59 c 256,84,85
 57 45 57 45 63 33.5 c 128,-1,86
 69 22 69 22 85 22 c 0,87,88
 96 22 96 22 99.5 34.5 c 128,-1,89
 103 47 103 47 103 55 c 2,90,-1
 103 66 l 1,91,-1
 103 66 l 1,78,79
210 -96 m 0,92,93
 210 -92 210 -92 204.5 -88.5 c 128,-1,94
 199 -85 199 -85 192 -83 c 128,-1,95
 185 -81 185 -81 178 -79.5 c 128,-1,96
 171 -78 171 -78 168 -78 c 0,97,98
 139 -78 139 -78 139 -107 c 0,99,100
 139 -124 139 -124 153 -131.5 c 128,-1,101
 167 -139 167 -139 181 -139 c 0,102,103
 198 -139 198 -139 204 -124.5 c 128,-1,104
 210 -110 210 -110 210 -96 c 0,92,93
EndSplineSet
Substitution: 0 65534 'L019' uni0E0E.alt1
Substitution: 0 65534 'L019' uni0E0E.alt1
EndChar
StartChar: uni0E0F
Encoding: 3599 3599 146
Width: 487
Flags: W
Fore
355 -164 m 1,0,-1
 309 -123 l 1,1,-1
 283 -164 l 1,2,-1
 247 -164 l 1,3,-1
 234 -163 l 1,4,5
 229 -152 229 -152 228 -145 c 128,-1,6
 227 -138 227 -138 217 -128 c 1,7,8
 198 -146 198 -146 174.5 -158.5 c 128,-1,9
 151 -171 151 -171 124 -171 c 0,10,11
 111 -171 111 -171 95 -167.5 c 128,-1,12
 79 -164 79 -164 65.5 -156.5 c 128,-1,13
 52 -149 52 -149 43 -137.5 c 128,-1,14
 34 -126 34 -126 34 -109 c 0,15,16
 34 -93 34 -93 41.5 -82 c 128,-1,17
 49 -71 49 -71 60.5 -64 c 128,-1,18
 72 -57 72 -57 86.5 -53.5 c 128,-1,19
 101 -50 101 -50 114 -50 c 0,20,21
 132 -50 132 -50 147.5 -53.5 c 128,-1,22
 163 -57 163 -57 180 -65 c 1,23,-1
 180 -16 l 1,24,25
 200 -5 200 -5 217 -2.5 c 128,-1,26
 234 0 234 0 259 2 c 2,27,-1
 266 2 l 1,28,29
 264 -24 264 -24 258.5 -49 c 128,-1,30
 253 -74 253 -74 238 -96 c 1,31,-1
 254 -106 l 1,32,33
 265 -95 265 -95 273.5 -82.5 c 128,-1,34
 282 -70 282 -70 292 -58 c 1,35,-1
 311 -58 l 1,36,-1
 349 -92 l 1,37,-1
 349 256 l 2,38,39
 349 302 349 302 322.5 326 c 128,-1,40
 296 350 296 350 251 350 c 0,41,42
 233 350 233 350 212.5 348 c 128,-1,43
 192 346 192 346 172.5 341 c 128,-1,44
 153 336 153 336 135.5 327.5 c 128,-1,45
 118 319 118 319 105 305 c 1,46,-1
 231 305 l 1,47,-1
 231 275 l 1,48,49
 220 273 220 273 210 270 c 128,-1,50
 200 267 200 267 195 256 c 0,51,52
 191 248 191 248 190 236.5 c 128,-1,53
 189 225 189 225 189 216 c 2,54,-1
 189 79 l 2,55,56
 189 36 189 36 159 16.5 c 128,-1,57
 129 -3 129 -3 90 -3 c 0,58,59
 74 -3 74 -3 59 1 c 128,-1,60
 44 5 44 5 32 13.5 c 128,-1,61
 20 22 20 22 13 34.5 c 128,-1,62
 6 47 6 47 6 65 c 0,63,64
 6 94 6 94 23 112 c 128,-1,65
 40 130 40 130 69 130 c 0,66,67
 74 130 74 130 78 130 c 128,-1,68
 82 130 82 130 87 129 c 1,69,-1
 87 209 l 2,70,71
 87 229 87 229 100 243.5 c 128,-1,72
 113 258 113 258 127 269 c 1,73,-1
 47 269 l 1,74,-1
 47 311 l 1,75,76
 58 319 58 319 68 327.5 c 128,-1,77
 78 336 78 336 89 344 c 0,78,79
 124 370 124 370 166.5 379 c 128,-1,80
 209 388 209 388 252 388 c 0,81,82
 273 388 273 388 299.5 384.5 c 128,-1,83
 326 381 326 381 351.5 373 c 128,-1,84
 377 365 377 365 399 352.5 c 128,-1,85
 421 340 421 340 433 321 c 256,86,87
 445 302 445 302 447.5 277.5 c 128,-1,88
 450 253 450 253 450 243 c 2,89,-1
 450 -164 l 1,90,-1
 355 -164 l 1,0,-1
104 66 m 1,91,92
 104 74 104 74 99 86 c 128,-1,93
 94 98 94 98 85 98 c 0,94,95
 69 98 69 98 63.5 85.5 c 128,-1,96
 58 73 58 73 58 59 c 0,97,98
 58 46 58 46 64.5 34 c 128,-1,99
 71 22 71 22 86 22 c 0,100,101
 97 22 97 22 100.5 34.5 c 128,-1,102
 104 47 104 47 104 55 c 2,103,-1
 104 66 l 1,104,-1
 104 66 l 1,91,92
119 -82 m 256,105,106
 107 -82 107 -82 95 -88.5 c 128,-1,107
 83 -95 83 -95 83 -109 c 0,108,109
 83 -126 83 -126 95 -134.5 c 128,-1,110
 107 -143 107 -143 123 -143 c 0,111,112
 141 -143 141 -143 153 -128 c 128,-1,113
 165 -113 165 -113 172 -99 c 1,114,-1
 167 -96 l 1,115,-1
 164 -95 l 2,116,117
 153 -90 153 -90 142 -86 c 128,-1,118
 131 -82 131 -82 119 -82 c 256,105,106
EndSplineSet
Substitution: 0 65534 'L019' uni0E0F.alt1
Substitution: 0 65534 'L019' uni0E0F.alt1
EndChar
StartChar: uni0E10
Encoding: 3600 3600 147
Width: 423
Flags: W
Fore
31 319 m 0,0,1
 57 357 57 357 91 371.5 c 128,-1,2
 125 386 125 386 170 386 c 1,3,-1
 311 358 l 1,4,5
 336 358 336 358 362 364 c 128,-1,6
 388 370 388 370 408 384 c 1,7,-1
 408 305 l 1,8,9
 393 301 393 301 374 301 c 0,10,11
 341 301 341 301 308 306 c 128,-1,12
 275 311 275 311 244 325 c 0,13,14
 225 333 225 333 206.5 343.5 c 128,-1,15
 188 354 188 354 167 354 c 0,16,17
 142 354 142 354 126 339 c 128,-1,18
 110 324 110 324 102 302 c 1,19,-1
 111 302 l 2,20,21
 137 302 137 302 176.5 301 c 128,-1,22
 216 300 216 300 255.5 295 c 128,-1,23
 295 290 295 290 327.5 279 c 128,-1,24
 360 268 360 268 373 247 c 0,25,26
 381 235 381 235 382.5 225 c 128,-1,27
 384 215 384 215 384 201 c 0,28,29
 384 183 384 183 379.5 165 c 128,-1,30
 375 147 375 147 370 130 c 0,31,32
 352 68 352 68 343 1 c 1,33,-1
 240 1 l 1,34,-1
 180 127 l 1,35,36
 169 119 169 119 157 114 c 128,-1,37
 145 109 145 109 131 109 c 0,38,39
 101 109 101 109 79 124 c 128,-1,40
 57 139 57 139 57 172 c 0,41,42
 57 190 57 190 64.5 202.5 c 128,-1,43
 72 215 72 215 84 222.5 c 128,-1,44
 96 230 96 230 111 233 c 128,-1,45
 126 236 126 236 142 236 c 256,46,47
 158 236 158 236 170.5 233 c 128,-1,48
 183 230 183 230 196 220 c 0,49,50
 206 213 206 213 217 194.5 c 128,-1,51
 228 176 228 176 238.5 155 c 128,-1,52
 249 134 249 134 258.5 113.5 c 128,-1,53
 268 93 268 93 274 81 c 1,54,55
 281 111 281 111 287.5 141.5 c 128,-1,56
 294 172 294 172 294 204 c 0,57,58
 294 218 294 218 290.5 228 c 128,-1,59
 287 238 287 238 276 247 c 0,60,61
 270 252 270 252 245.5 256 c 128,-1,62
 221 260 221 260 189 262.5 c 128,-1,63
 157 265 157 265 121.5 266 c 128,-1,64
 86 267 86 267 57 267 c 0,65,66
 41 267 41 267 28.5 267 c 128,-1,67
 16 267 16 267 8 266 c 1,68,69
 14 294 14 294 31 319 c 0,0,1
147 -134 m 1,70,71
 142 -144 142 -144 131 -152 c 0,72,73
 122 -159 122 -159 108.5 -164.5 c 128,-1,74
 95 -170 95 -170 75 -170 c 0,75,76
 45 -170 45 -170 28 -155 c 128,-1,77
 11 -140 11 -140 11 -109 c 0,78,79
 11 -83 11 -83 26.5 -70 c 128,-1,80
 42 -57 42 -57 67 -57 c 0,81,82
 73 -57 73 -57 80.5 -59 c 128,-1,83
 88 -61 88 -61 96 -63 c 0,84,85
 105 -66 105 -66 113 -69 c 1,86,-1
 113 -24 l 1,87,-1
 198 -24 l 1,88,89
 198 -36 198 -36 194 -48 c 0,90,91
 191 -59 191 -59 185.5 -72 c 128,-1,92
 180 -85 180 -85 169 -99 c 1,93,-1
 183 -113 l 1,94,-1
 202 -85 l 1,95,-1
 214 -85 l 1,96,-1
 260 -140 l 1,97,-1
 287 -140 l 1,98,-1
 292 -115 l 1,99,100
 268 -115 268 -115 251 -107.5 c 128,-1,101
 234 -100 234 -100 234 -71 c 0,102,103
 234 -45 234 -45 249 -35 c 128,-1,104
 264 -25 264 -25 287 -25 c 0,105,106
 296 -25 296 -25 309 -27 c 128,-1,107
 322 -29 322 -29 333 -33.5 c 128,-1,108
 344 -38 344 -38 352 -46.5 c 128,-1,109
 360 -55 360 -55 360 -67 c 2,110,-1
 360 -94 l 2,111,112
 360 -129 360 -129 346.5 -147.5 c 128,-1,113
 333 -166 333 -166 295 -166 c 2,114,-1
 237 -166 l 1,115,-1
 210 -133 l 1,116,-1
 188 -166 l 1,117,-1
 168 -166 l 1,118,-1
 147 -134 l 1,119,-1
 147 -134 l 1,70,71
158 172 m 256,120,121
 158 183 158 183 151.5 196 c 128,-1,122
 145 209 145 209 133 209 c 0,123,124
 119 209 119 209 112.5 198.5 c 128,-1,125
 106 188 106 188 106 176 c 0,126,127
 106 170 106 170 107.5 163 c 128,-1,128
 109 156 109 156 112 149.5 c 128,-1,129
 115 143 115 143 120 138.5 c 128,-1,130
 125 134 125 134 132 134 c 0,131,132
 146 134 146 134 152 147.5 c 128,-1,133
 158 161 158 161 158 172 c 256,120,121
311 -68 m 0,134,135
 311 -47 311 -47 290 -47 c 0,136,137
 282 -47 282 -47 277.5 -53.5 c 128,-1,138
 273 -60 273 -60 273 -68 c 0,139,140
 273 -77 273 -77 276.5 -85.5 c 128,-1,141
 280 -94 280 -94 291 -94 c 256,142,143
 302 -94 302 -94 306.5 -85.5 c 128,-1,144
 311 -77 311 -77 311 -68 c 0,134,135
108 -111 m 0,145,146
 108 -101 108 -101 94.5 -94 c 128,-1,147
 81 -87 81 -87 73 -87 c 0,148,149
 66 -87 66 -87 62 -96.5 c 128,-1,150
 58 -106 58 -106 58 -112 c 0,151,152
 58 -123 58 -123 62 -133 c 128,-1,153
 66 -143 66 -143 80 -143 c 256,154,155
 94 -143 94 -143 101 -133.5 c 128,-1,156
 108 -124 108 -124 108 -111 c 0,145,146
EndSplineSet
Substitution: 0 65534 'L019' uni0E10.alt1
Substitution: 0 65534 'L019' uni0E10.alt1
EndChar
StartChar: uni0E11
Encoding: 3601 3601 148
Width: 540
Flags: W
Fore
403 0 m 1,0,-1
 403 317 l 2,1,2
 403 324 403 324 400.5 335 c 128,-1,3
 398 346 398 346 389 346 c 0,4,5
 381 346 381 346 375 336.5 c 128,-1,6
 369 327 369 327 366 320 c 0,7,8
 357 301 357 301 351 283 c 0,9,10
 339 249 339 249 325 216.5 c 128,-1,11
 311 184 311 184 297 152 c 2,12,-1
 229 0 l 1,13,-1
 129 0 l 1,14,-1
 129 147 l 2,15,16
 129 169 129 169 144 189 c 128,-1,17
 159 209 159 209 176.5 229.5 c 128,-1,18
 194 250 194 250 209 272.5 c 128,-1,19
 224 295 224 295 224 320 c 0,20,21
 224 328 224 328 220 337 c 128,-1,22
 216 346 216 346 206 346 c 0,23,24
 200 346 200 346 192.5 342 c 128,-1,25
 185 338 185 338 176 332.5 c 128,-1,26
 167 327 167 327 156.5 323 c 128,-1,27
 146 319 146 319 134 319 c 0,28,29
 114 319 114 319 97 329 c 128,-1,30
 80 339 80 339 66 352 c 1,31,32
 62 344 62 344 60.5 334.5 c 128,-1,33
 59 325 59 325 59 316 c 0,34,35
 59 308 59 308 60 301 c 128,-1,36
 61 294 61 294 65 287 c 1,37,38
 70 296 70 296 81 300.5 c 128,-1,39
 92 305 92 305 103 305 c 0,40,41
 125 305 125 305 141.5 293.5 c 128,-1,42
 158 282 158 282 158 258 c 0,43,44
 158 231 158 231 142.5 215.5 c 128,-1,45
 127 200 127 200 100 200 c 0,46,47
 76 200 76 200 58.5 209 c 128,-1,48
 41 218 41 218 29.5 233.5 c 128,-1,49
 18 249 18 249 12 269 c 128,-1,50
 6 289 6 289 6 311 c 0,51,52
 6 346 6 346 23.5 366 c 128,-1,53
 41 386 41 386 77 386 c 0,54,55
 95 386 95 386 108.5 373 c 128,-1,56
 122 360 122 360 133 349 c 1,57,-1
 135 351 l 2,58,59
 148 364 148 364 163.5 375.5 c 128,-1,60
 179 387 179 387 199 387 c 0,61,62
 234 387 234 387 259 369 c 128,-1,63
 284 351 284 351 284 313 c 0,64,65
 284 296 284 296 274 275.5 c 128,-1,66
 264 255 264 255 251.5 231.5 c 128,-1,67
 239 208 239 208 229 180.5 c 128,-1,68
 219 153 219 153 219 123 c 2,69,-1
 219 83 l 1,70,71
 230 109 230 109 242 134.5 c 128,-1,72
 254 160 254 160 265 186 c 0,73,74
 276 210 276 210 285.5 234 c 128,-1,75
 295 258 295 258 305 282 c 0,76,77
 313 300 313 300 319 318 c 128,-1,78
 325 336 325 336 336 353 c 0,79,80
 345 367 345 367 356.5 376 c 128,-1,81
 368 385 368 385 385 385 c 0,82,83
 403 385 403 385 424 383 c 128,-1,84
 445 381 445 381 463 374 c 128,-1,85
 481 367 481 367 492.5 353 c 128,-1,86
 504 339 504 339 504 315 c 2,87,-1
 504 36 l 1,88,-1
 464 0 l 1,89,-1
 403 0 l 1,0,-1
122 255 m 256,90,91
 122 266 122 266 117 273.5 c 128,-1,92
 112 281 112 281 100 281 c 0,93,94
 89 281 89 281 81.5 273 c 128,-1,95
 74 265 74 265 74 254 c 256,96,97
 74 243 74 243 79 231.5 c 128,-1,98
 84 220 84 220 98 220 c 256,99,100
 112 220 112 220 117 232 c 128,-1,101
 122 244 122 244 122 255 c 256,90,91
EndSplineSet
EndChar
StartChar: uni0E12
Encoding: 3602 3602 149
Width: 596
Flags: W
Fore
559 34 m 1,0,1
 559 22 559 22 549.5 13.5 c 128,-1,2
 540 5 540 5 530 0 c 1,3,-1
 479 0 l 1,4,-1
 398 67 l 1,5,6
 398 27 398 27 373 12 c 128,-1,7
 348 -3 348 -3 310 -3 c 0,8,9
 278 -3 278 -3 255 14.5 c 128,-1,10
 232 32 232 32 232 67 c 0,11,12
 232 99 232 99 254 118 c 128,-1,13
 276 137 276 137 307 139 c 1,14,-1
 307 283 l 2,15,16
 307 292 307 292 306 301.5 c 128,-1,17
 305 311 305 311 302 319.5 c 128,-1,18
 299 328 299 328 293 334.5 c 128,-1,19
 287 341 287 341 276 343 c 1,20,21
 259 332 259 332 242.5 317.5 c 128,-1,22
 226 303 226 303 204 303 c 0,23,24
 191 303 191 303 178.5 311 c 128,-1,25
 166 319 166 319 155 328.5 c 128,-1,26
 144 338 144 338 134.5 346 c 128,-1,27
 125 354 125 354 117 354 c 0,28,29
 101 354 101 354 89.5 345.5 c 128,-1,30
 78 337 78 337 70.5 324.5 c 128,-1,31
 63 312 63 312 59.5 297 c 128,-1,32
 56 282 56 282 56 268 c 0,33,34
 56 246 56 246 66 228.5 c 128,-1,35
 76 211 76 211 88.5 193.5 c 128,-1,36
 101 176 101 176 111 157.5 c 128,-1,37
 121 139 121 139 121 115 c 1,38,39
 144 136 144 136 158 159 c 1,40,41
 135 161 135 161 119 180 c 128,-1,42
 103 199 103 199 103 222 c 0,43,44
 103 249 103 249 126 264.5 c 128,-1,45
 149 280 149 280 176 280 c 0,46,47
 205 280 205 280 221.5 265.5 c 128,-1,48
 238 251 238 251 238 222 c 0,49,50
 238 196 238 196 222 170 c 128,-1,51
 206 144 206 144 187.5 120 c 128,-1,52
 169 96 169 96 153 75 c 128,-1,53
 137 54 137 54 137 38 c 2,54,-1
 137 0 l 1,55,-1
 50 0 l 1,56,-1
 50 119 l 2,57,58
 50 133 50 133 43.5 149.5 c 128,-1,59
 37 166 37 166 29.5 184 c 128,-1,60
 22 202 22 202 15.5 220.5 c 128,-1,61
 9 239 9 239 9 257 c 0,62,63
 9 312 9 312 40.5 348.5 c 128,-1,64
 72 385 72 385 129 385 c 0,65,66
 151 385 151 385 169.5 373 c 128,-1,67
 188 361 188 361 203 347 c 1,68,69
 218 354 218 354 230.5 365.5 c 128,-1,70
 243 377 243 377 257 385 c 1,71,72
 283 385 283 385 309.5 378 c 128,-1,73
 336 371 336 371 357 356.5 c 128,-1,74
 378 342 378 342 391.5 320.5 c 128,-1,75
 405 299 405 299 405 269 c 2,76,-1
 405 121 l 1,77,-1
 457 81 l 1,78,-1
 457 346 l 1,79,-1
 525 382 l 1,80,-1
 559 382 l 1,81,-1
 559 34 l 1,82,-1
 559 34 l 1,0,1
197 223 m 0,83,84
 197 236 197 236 190.5 245.5 c 128,-1,85
 184 255 184 255 170 255 c 0,86,87
 157 255 157 255 150 243.5 c 128,-1,88
 143 232 143 232 143 221 c 0,89,90
 143 209 143 209 150 196 c 128,-1,91
 157 183 157 183 171 183 c 256,92,93
 185 183 185 183 191 197.5 c 128,-1,94
 197 212 197 212 197 223 c 0,83,84
321 58 m 0,95,96
 321 63 321 63 320.5 70 c 128,-1,97
 320 77 320 77 318 84.5 c 128,-1,98
 316 92 316 92 312.5 97 c 128,-1,99
 309 102 309 102 302 102 c 0,100,101
 287 102 287 102 281.5 87.5 c 128,-1,102
 276 73 276 73 276 61 c 0,103,104
 276 48 276 48 284 36 c 128,-1,105
 292 24 292 24 306 24 c 0,106,107
 316 24 316 24 318.5 37 c 128,-1,108
 321 50 321 50 321 58 c 0,95,96
EndSplineSet
EndChar
StartChar: uni0E13
Encoding: 3603 3603 150
Width: 600
Flags: W
Fore
582 57 m 0,0,1
 582 23 582 23 559.5 9.5 c 128,-1,2
 537 -4 537 -4 507 -4 c 0,3,4
 492 -4 492 -4 478 -0.5 c 128,-1,5
 464 3 464 3 453 11 c 128,-1,6
 442 19 442 19 435.5 31 c 128,-1,7
 429 43 429 43 429 59 c 1,8,9
 391 36 391 36 360 0 c 1,10,-1
 275 0 l 1,11,-1
 275 246 l 2,12,13
 275 268 275 268 271 287 c 128,-1,14
 267 306 267 306 257.5 320.5 c 128,-1,15
 248 335 248 335 231.5 343.5 c 128,-1,16
 215 352 215 352 190 352 c 0,17,18
 152 352 152 352 120 339 c 128,-1,19
 88 326 88 326 59 303 c 1,20,-1
 172 303 l 1,21,-1
 172 275 l 1,22,23
 149 270 149 270 136.5 250 c 128,-1,24
 124 230 124 230 124 209 c 2,25,-1
 124 122 l 1,26,27
 135 129 135 129 151 129 c 0,28,29
 182 129 182 129 199 113 c 128,-1,30
 216 97 216 97 216 66 c 0,31,32
 216 28 216 28 191 12 c 128,-1,33
 166 -4 166 -4 132 -4 c 0,34,35
 120 -4 120 -4 101.5 0.5 c 128,-1,36
 83 5 83 5 66 13.5 c 128,-1,37
 49 22 49 22 37 34.5 c 128,-1,38
 25 47 25 47 25 62 c 2,39,-1
 25 186 l 2,40,41
 25 214 25 214 43 234.5 c 128,-1,42
 61 255 61 255 82 270 c 1,43,-1
 13 270 l 1,44,-1
 13 322 l 1,45,46
 39 338 39 338 60.5 350 c 128,-1,47
 82 362 82 362 104 370 c 128,-1,48
 126 378 126 378 150.5 382 c 128,-1,49
 175 386 175 386 206 386 c 0,50,51
 235 386 235 386 265 380 c 128,-1,52
 295 374 295 374 320 360 c 128,-1,53
 345 346 345 346 360.5 323 c 128,-1,54
 376 300 376 300 376 265 c 2,55,-1
 376 76 l 1,56,57
 380 78 380 78 392.5 84.5 c 128,-1,58
 405 91 405 91 418.5 98.5 c 128,-1,59
 432 106 432 106 443.5 113 c 128,-1,60
 455 120 455 120 456 121 c 0,61,62
 461 128 461 128 461.5 134 c 128,-1,63
 462 140 462 140 462 148 c 2,64,-1
 462 349 l 1,65,-1
 521 382 l 1,66,-1
 564 382 l 1,67,-1
 564 147 l 2,68,69
 564 136 564 136 553.5 127 c 128,-1,70
 543 118 543 118 535 112 c 1,71,72
 555 105 555 105 568.5 92.5 c 128,-1,73
 582 80 582 80 582 57 c 0,0,1
538 55 m 0,74,75
 538 67 538 67 529.5 78.5 c 128,-1,76
 521 90 521 90 507 90 c 0,77,78
 491 90 491 90 483.5 78.5 c 128,-1,79
 476 67 476 67 476 53 c 0,80,81
 476 40 476 40 484 30.5 c 128,-1,82
 492 21 492 21 506 21 c 256,83,84
 520 21 520 21 529 31 c 128,-1,85
 538 41 538 41 538 55 c 0,74,75
172 64 m 256,86,87
 172 79 172 79 163.5 89 c 128,-1,88
 155 99 155 99 139 99 c 0,89,90
 125 99 125 99 120 86 c 128,-1,91
 115 73 115 73 115 62 c 256,92,93
 115 51 115 51 121 36 c 128,-1,94
 127 21 127 21 141 21 c 0,95,96
 159 21 159 21 165.5 35 c 128,-1,97
 172 49 172 49 172 64 c 256,86,87
EndSplineSet
EndChar
StartChar: uni0E14
Encoding: 3604 3604 151
Width: 422
Flags: W
Fore
284 0 m 1,0,-1
 284 260 l 2,1,2
 284 287 284 287 275.5 304.5 c 128,-1,3
 267 322 267 322 252 332.5 c 128,-1,4
 237 343 237 343 216.5 347 c 128,-1,5
 196 351 196 351 172 351 c 0,6,7
 151 351 151 351 129 345.5 c 128,-1,8
 107 340 107 340 90 328.5 c 128,-1,9
 73 317 73 317 62 299 c 128,-1,10
 51 281 51 281 51 257 c 256,11,12
 51 233 51 233 60.5 215 c 128,-1,13
 70 197 70 197 82 182 c 128,-1,14
 94 167 94 167 103.5 151.5 c 128,-1,15
 113 136 113 136 113 116 c 1,16,17
 122 127 122 127 131.5 137.5 c 128,-1,18
 141 148 141 148 149 160 c 1,19,20
 126 162 126 162 110.5 179.5 c 128,-1,21
 95 197 95 197 95 220 c 0,22,23
 95 249 95 249 115.5 265 c 128,-1,24
 136 281 136 281 163 281 c 0,25,26
 191 281 191 281 209.5 266 c 128,-1,27
 228 251 228 251 228 222 c 0,28,29
 228 196 228 196 212.5 170.5 c 128,-1,30
 197 145 197 145 178.5 122 c 128,-1,31
 160 99 160 99 144.5 79 c 128,-1,32
 129 59 129 59 129 42 c 2,33,-1
 129 0 l 1,34,-1
 42 0 l 1,35,-1
 42 119 l 2,36,37
 42 132 42 132 37 147 c 0,38,39
 29 173 29 173 19 197.5 c 128,-1,40
 9 222 9 222 9 249 c 0,41,42
 9 282 9 282 24.5 307 c 128,-1,43
 40 332 40 332 64.5 349.5 c 128,-1,44
 89 367 89 367 119 376 c 128,-1,45
 149 385 149 385 178 385 c 0,46,47
 210 385 210 385 246.5 381 c 128,-1,48
 283 377 283 377 314 363.5 c 128,-1,49
 345 350 345 350 365.5 325 c 128,-1,50
 386 300 386 300 386 258 c 2,51,-1
 386 33 l 1,52,-1
 337 0 l 1,53,-1
 284 0 l 1,0,-1
188 223 m 0,54,55
 188 236 188 236 181.5 245.5 c 128,-1,56
 175 255 175 255 161 255 c 0,57,58
 148 255 148 255 141 243.5 c 128,-1,59
 134 232 134 232 134 221 c 0,60,61
 134 209 134 209 141 196 c 128,-1,62
 148 183 148 183 162 183 c 256,63,64
 176 183 176 183 182 197.5 c 128,-1,65
 188 212 188 212 188 223 c 0,54,55
EndSplineSet
EndChar
StartChar: uni0E15
Encoding: 3605 3605 152
Width: 434
Flags: W
Fore
296 0 m 1,0,-1
 296 305 l 2,1,2
 296 316 296 316 292.5 326.5 c 128,-1,3
 289 337 289 337 276 339 c 1,4,5
 258 328 258 328 239.5 316 c 128,-1,6
 221 304 221 304 198 304 c 0,7,8
 185 304 185 304 172 311.5 c 128,-1,9
 159 319 159 319 148 327.5 c 128,-1,10
 137 336 137 336 128 343.5 c 128,-1,11
 119 351 119 351 112 351 c 0,12,13
 99 351 99 351 88.5 344.5 c 128,-1,14
 78 338 78 338 70.5 328.5 c 128,-1,15
 63 319 63 319 59 307 c 128,-1,16
 55 295 55 295 55 283 c 0,17,18
 55 249 55 249 65.5 227 c 128,-1,19
 76 205 76 205 89 187 c 128,-1,20
 102 169 102 169 113 152.5 c 128,-1,21
 124 136 124 136 125 113 c 1,22,23
 133 125 133 125 142 136.5 c 128,-1,24
 151 148 151 148 159 160 c 1,25,26
 136 161 136 161 118.5 179 c 128,-1,27
 101 197 101 197 101 220 c 0,28,29
 101 247 101 247 123.5 263.5 c 128,-1,30
 146 280 146 280 171 280 c 0,31,32
 197 280 197 280 218.5 265.5 c 128,-1,33
 240 251 240 251 240 222 c 0,34,35
 240 195 240 195 224 168 c 128,-1,36
 208 141 208 141 188.5 115.5 c 128,-1,37
 169 90 169 90 153 69 c 128,-1,38
 137 48 137 48 137 33 c 2,39,-1
 137 0 l 1,40,-1
 49 0 l 1,41,-1
 49 118 l 2,42,43
 49 137 49 137 43.5 154.5 c 128,-1,44
 38 172 38 172 31 189 c 128,-1,45
 24 206 24 206 18.5 224 c 128,-1,46
 13 242 13 242 13 261 c 0,47,48
 13 283 13 283 18.5 305 c 128,-1,49
 24 327 24 327 36 344.5 c 128,-1,50
 48 362 48 362 66.5 373 c 128,-1,51
 85 384 85 384 110 384 c 0,52,53
 124 384 124 384 137 378 c 128,-1,54
 150 372 150 372 161 364.5 c 128,-1,55
 172 357 172 357 181 351 c 128,-1,56
 190 345 190 345 195 345 c 0,57,58
 204 345 204 345 214 351.5 c 128,-1,59
 224 358 224 358 234.5 365.5 c 128,-1,60
 245 373 245 373 256 379 c 128,-1,61
 267 385 267 385 280 385 c 0,62,63
 295 385 295 385 311.5 381 c 128,-1,64
 328 377 328 377 343 369 c 128,-1,65
 358 361 358 361 370.5 350 c 128,-1,66
 383 339 383 339 389 324 c 0,67,68
 394 312 394 312 396.5 297 c 128,-1,69
 399 282 399 282 399 268 c 2,70,-1
 399 35 l 1,71,-1
 351 0 l 1,72,-1
 296 0 l 1,0,-1
197 223 m 0,73,74
 197 236 197 236 190.5 245.5 c 128,-1,75
 184 255 184 255 170 255 c 0,76,77
 157 255 157 255 150 243.5 c 128,-1,78
 143 232 143 232 143 221 c 0,79,80
 143 209 143 209 150 196 c 128,-1,81
 157 183 157 183 171 183 c 256,82,83
 185 183 185 183 191 197.5 c 128,-1,84
 197 212 197 212 197 223 c 0,73,74
EndSplineSet
EndChar
StartChar: uni0E16
Encoding: 3606 3606 153
Width: 457
Flags: W
Fore
316 0 m 1,0,-1
 316 258 l 2,1,2
 316 303 316 303 287 327 c 128,-1,3
 258 351 258 351 215 351 c 0,4,5
 196 351 196 351 174.5 348.5 c 128,-1,6
 153 346 153 346 132.5 340 c 128,-1,7
 112 334 112 334 93.5 324 c 128,-1,8
 75 314 75 314 62 299 c 1,9,-1
 182 299 l 1,10,-1
 182 270 l 1,11,12
 156 262 156 262 144.5 250 c 128,-1,13
 133 238 133 238 133 209 c 2,14,-1
 133 128 l 1,15,16
 141 133 141 133 151 133 c 0,17,18
 185 133 185 133 206 117.5 c 128,-1,19
 227 102 227 102 227 66 c 0,20,21
 227 24 227 24 201 10.5 c 128,-1,22
 175 -3 175 -3 139 -3 c 0,23,24
 124 -3 124 -3 106 2 c 128,-1,25
 88 7 88 7 72.5 16.5 c 128,-1,26
 57 26 57 26 46.5 40 c 128,-1,27
 36 54 36 54 36 72 c 2,28,-1
 36 202 l 2,29,30
 36 211 36 211 41 220 c 128,-1,31
 46 229 46 229 53.5 237.5 c 128,-1,32
 61 246 61 246 69.5 252.5 c 128,-1,33
 78 259 78 259 85 264 c 1,34,-1
 15 264 l 1,35,-1
 15 318 l 1,36,37
 32 329 32 329 48 340.5 c 128,-1,38
 64 352 64 352 82 360 c 0,39,40
 112 374 112 374 146.5 380.5 c 128,-1,41
 181 387 181 387 214 387 c 0,42,43
 245 387 245 387 280.5 383.5 c 128,-1,44
 316 380 316 380 346.5 367.5 c 128,-1,45
 377 355 377 355 397.5 331.5 c 128,-1,46
 418 308 418 308 418 267 c 2,47,-1
 418 37 l 1,48,-1
 380 0 l 1,49,-1
 316 0 l 1,0,-1
180 66 m 256,50,51
 180 81 180 81 171.5 91 c 128,-1,52
 163 101 163 101 147 101 c 0,53,54
 133 101 133 101 128 88 c 128,-1,55
 123 75 123 75 123 64 c 256,56,57
 123 53 123 53 129 38 c 128,-1,58
 135 23 135 23 149 23 c 0,59,60
 167 23 167 23 173.5 37 c 128,-1,61
 180 51 180 51 180 66 c 256,50,51
EndSplineSet
EndChar
StartChar: uni0E17
Encoding: 3607 3607 154
Width: 500
Flags: W
Fore
350 385 m 0,0,1
 367 385 367 385 387.5 382 c 128,-1,2
 408 379 408 379 425 370.5 c 128,-1,3
 442 362 442 362 453.5 348 c 128,-1,4
 465 334 465 334 465 312 c 2,5,-1
 465 45 l 1,6,-1
 422 0 l 1,7,-1
 363 0 l 1,8,-1
 363 310 l 2,9,10
 363 321 363 321 360.5 334 c 128,-1,11
 358 347 358 347 344 347 c 1,12,13
 323 305 323 305 305 263 c 128,-1,14
 269 179 l 0,15,16
 249 134 249 134 229 89.5 c 128,-1,17
 209 45 209 45 190 0 c 1,18,-1
 95 0 l 1,19,-1
 95 249 l 1,20,21
 79 249 79 249 63 252 c 128,-1,22
 47 255 47 255 34 262.5 c 128,-1,23
 21 270 21 270 13.5 283 c 128,-1,24
 6 296 6 296 6 315 c 0,25,26
 6 336 6 336 14 349.5 c 128,-1,27
 22 363 22 363 35.5 371.5 c 128,-1,28
 49 380 49 380 66 383 c 128,-1,29
 83 386 83 386 101 386 c 0,30,31
 155 386 155 386 173 356.5 c 128,-1,32
 191 327 191 327 191 278 c 2,33,-1
 191 120 l 1,34,35
 211 167 211 167 232 213 c 128,-1,36
 274 305 l 2,37,-1
 279 317 l 2,38,39
 288 337 288 337 294.5 350 c 128,-1,40
 301 363 301 363 308.5 371 c 128,-1,41
 316 379 316 379 325.5 382 c 128,-1,42
 335 385 335 385 350 385 c 0,0,1
120 321 m 0,43,44
 120 332 120 332 114.5 345.5 c 128,-1,45
 109 359 109 359 95 359 c 0,46,47
 79 359 79 359 71 346 c 128,-1,48
 63 333 63 333 63 319 c 0,49,50
 63 306 63 306 72.5 292.5 c 128,-1,51
 82 279 82 279 96 279 c 0,52,53
 104 279 104 279 109 283.5 c 128,-1,54
 114 288 114 288 116.5 294 c 128,-1,55
 119 300 119 300 119.5 307.5 c 128,-1,56
 120 315 120 315 120 321 c 0,43,44
EndSplineSet
EndChar
StartChar: uni0E18
Encoding: 3608 3608 155
Width: 406
Flags: W
Fore
394 300 m 1,0,1
 378 296 l 128,-1,2
 370 294 370 294 362 294 c 0,3,4
 330 294 330 294 297.5 302 c 128,-1,5
 265 310 265 310 236 323 c 0,6,7
 219 331 219 331 202.5 340.5 c 128,-1,8
 186 350 186 350 167 350 c 0,9,10
 141 350 141 350 124 332.5 c 128,-1,11
 107 315 107 315 99 292 c 1,12,13
 119 292 119 292 152 290.5 c 128,-1,14
 185 289 185 289 220 285 c 128,-1,15
 255 281 255 281 285.5 273.5 c 128,-1,16
 316 266 316 266 332 255 c 0,17,18
 369 229 369 229 369 185 c 2,19,-1
 369 46 l 1,20,21
 358 25 358 25 335.5 12.5 c 128,-1,22
 313 0 313 0 289 0 c 2,23,-1
 30 0 l 1,24,-1
 30 183 l 1,25,-1
 86 219 l 1,26,-1
 129 219 l 1,27,-1
 129 40 l 1,28,-1
 267 40 l 1,29,-1
 267 186 l 2,30,31
 267 200 267 200 265.5 209.5 c 128,-1,32
 264 219 264 219 254 230 c 0,33,34
 245 240 245 240 217 245.5 c 128,-1,35
 189 251 189 251 153.5 253.5 c 128,-1,36
 118 256 118 256 83 256.5 c 128,-1,37
 48 257 48 257 25 257 c 2,38,-1
 8 257 l 1,39,40
 14 326 14 326 52 356 c 128,-1,41
 90 386 90 386 156 386 c 1,42,-1
 313 355 l 1,43,44
 320 355 320 355 331 358.5 c 128,-1,45
 342 362 342 362 353.5 366.5 c 128,-1,46
 365 371 365 371 376 376 c 128,-1,47
 387 381 387 381 394 384 c 1,48,-1
 394 300 l 1,49,-1
 394 300 l 1,0,1
EndSplineSet
EndChar
StartChar: uni0E19
Encoding: 3609 3609 156
Width: 502
Flags: W
Fore
476 64 m 0,0,1
 476 27 476 27 454.5 12 c 128,-1,2
 433 -3 433 -3 399 -3 c 0,3,4
 361 -3 361 -3 337 14.5 c 128,-1,5
 313 32 313 32 313 74 c 1,6,7
 281 58 281 58 250.5 39.5 c 128,-1,8
 220 21 220 21 191 0 c 1,9,-1
 102 0 l 1,10,-1
 102 252 l 1,11,12
 96 250 96 250 92 250 c 0,13,14
 57 250 57 250 33 263.5 c 128,-1,15
 9 277 9 277 9 317 c 0,16,17
 9 336 9 336 17 349 c 128,-1,18
 25 362 25 362 37.5 370 c 128,-1,19
 50 378 50 378 66 381.5 c 128,-1,20
 82 385 82 385 98 385 c 0,21,22
 119 385 119 385 138 382 c 128,-1,23
 157 379 157 379 171 370.5 c 128,-1,24
 185 362 185 362 193.5 346.5 c 128,-1,25
 202 331 202 331 202 306 c 2,26,-1
 202 71 l 1,27,28
 211 76 211 76 233 87 c 128,-1,29
 255 98 255 98 279 110 c 128,-1,30
 303 122 303 122 322.5 133 c 128,-1,31
 342 144 342 144 346 150 c 0,32,33
 354 162 354 162 355 173.5 c 128,-1,34
 356 185 356 185 356 198 c 2,35,-1
 356 351 l 1,36,-1
 423 382 l 1,37,-1
 458 382 l 1,38,-1
 458 195 l 2,39,40
 458 176 458 176 444.5 162.5 c 128,-1,41
 431 149 431 149 420 137 c 1,42,43
 446 131 446 131 461 110.5 c 128,-1,44
 476 90 476 90 476 64 c 0,0,1
420 64 m 0,45,46
 420 80 420 80 415 96 c 128,-1,47
 410 112 410 112 390 112 c 0,48,49
 383 112 383 112 378 106.5 c 128,-1,50
 373 101 373 101 370.5 93 c 128,-1,51
 368 85 368 85 367 77 c 128,-1,52
 366 69 366 69 366 63 c 0,53,54
 366 53 366 53 372.5 38.5 c 128,-1,55
 379 24 379 24 391 24 c 0,56,57
 406 24 406 24 413 37.5 c 128,-1,58
 420 51 420 51 420 64 c 0,45,46
122 321 m 0,59,60
 122 332 122 332 116.5 345.5 c 128,-1,61
 111 359 111 359 97 359 c 0,62,63
 81 359 81 359 73 346 c 128,-1,64
 65 333 65 333 65 319 c 0,65,66
 65 306 65 306 74.5 292.5 c 128,-1,67
 84 279 84 279 98 279 c 0,68,69
 106 279 106 279 111 283.5 c 128,-1,70
 116 288 116 288 118.5 294 c 128,-1,71
 121 300 121 300 121.5 307.5 c 128,-1,72
 122 315 122 315 122 321 c 0,59,60
EndSplineSet
EndChar
StartChar: uni0E1A
Encoding: 3610 3610 157
Width: 497
Flags: W
Fore
461 50 m 1,0,1
 460 49 l 1,2,3
 450 30 450 30 426.5 15 c 128,-1,4
 403 0 403 0 379 0 c 2,5,-1
 63 0 l 1,6,-1
 63 40 l 1,7,-1
 102 40 l 1,8,-1
 102 253 l 1,9,10
 95 250 95 250 86 250 c 0,11,12
 53 250 53 250 31 267 c 128,-1,13
 9 284 9 284 9 319 c 0,14,15
 9 337 9 337 17.5 349.5 c 128,-1,16
 26 362 26 362 38.5 370 c 128,-1,17
 51 378 51 378 67 381.5 c 128,-1,18
 83 385 83 385 98 385 c 0,19,20
 116 385 116 385 134.5 381 c 128,-1,21
 153 377 153 377 168 368 c 128,-1,22
 183 359 183 359 193 344.5 c 128,-1,23
 203 330 203 330 203 309 c 2,24,-1
 203 40 l 1,25,-1
 358 40 l 1,26,-1
 358 347 l 1,27,-1
 422 381 l 1,28,-1
 461 381 l 1,29,-1
 461 50 l 1,30,-1
 461 50 l 1,0,1
122 321 m 0,31,32
 122 332 122 332 116.5 345.5 c 128,-1,33
 111 359 111 359 97 359 c 0,34,35
 81 359 81 359 73 346 c 128,-1,36
 65 333 65 333 65 319 c 0,37,38
 65 306 65 306 74.5 292.5 c 128,-1,39
 84 279 84 279 98 279 c 0,40,41
 106 279 106 279 111 283.5 c 128,-1,42
 116 288 116 288 118.5 294 c 128,-1,43
 121 300 121 300 121.5 307.5 c 128,-1,44
 122 315 122 315 122 321 c 0,31,32
EndSplineSet
EndChar
StartChar: uni0E1B
Encoding: 3611 3611 158
Width: 497
Flags: W
Fore
461 50 m 1,0,1
 460 49 l 1,2,3
 450 30 450 30 426.5 15 c 128,-1,4
 403 0 403 0 379 0 c 2,5,-1
 63 0 l 1,6,-1
 63 40 l 1,7,-1
 102 40 l 1,8,-1
 102 253 l 1,9,10
 95 250 95 250 86 250 c 0,11,12
 53 250 53 250 31 267 c 128,-1,13
 9 284 9 284 9 319 c 0,14,15
 9 337 9 337 17.5 349.5 c 128,-1,16
 26 362 26 362 38.5 370 c 128,-1,17
 51 378 51 378 67 381.5 c 128,-1,18
 83 385 83 385 98 385 c 0,19,20
 116 385 116 385 134.5 381 c 128,-1,21
 153 377 153 377 168 368 c 128,-1,22
 183 359 183 359 193 344.5 c 128,-1,23
 203 330 203 330 203 309 c 2,24,-1
 203 40 l 1,25,-1
 358 40 l 1,26,-1
 358 500 l 1,27,-1
 422 534 l 1,28,-1
 461 534 l 1,29,-1
 461 50 l 1,30,-1
 461 50 l 1,0,1
122 321 m 0,31,32
 122 332 122 332 116.5 345.5 c 128,-1,33
 111 359 111 359 97 359 c 0,34,35
 81 359 81 359 73 346 c 128,-1,36
 65 333 65 333 65 319 c 0,37,38
 65 306 65 306 74.5 292.5 c 128,-1,39
 84 279 84 279 98 279 c 0,40,41
 106 279 106 279 111 283.5 c 128,-1,42
 116 288 116 288 118.5 294 c 128,-1,43
 121 300 121 300 121.5 307.5 c 128,-1,44
 122 315 122 315 122 321 c 0,31,32
EndSplineSet
EndChar
StartChar: uni0E1C
Encoding: 3612 3612 159
Width: 458
Flags: W
Fore
423 43 m 1,0,1
 423 26 423 26 411.5 16 c 128,-1,2
 400 6 400 6 386 0 c 1,3,-1
 299 0 l 1,4,-1
 214 140 l 1,5,6
 191 105 191 105 168.5 70 c 128,-1,7
 146 35 146 35 123 0 c 1,8,-1
 13 0 l 1,9,-1
 13 316 l 2,10,11
 13 335 13 335 24.5 348 c 128,-1,12
 36 361 36 361 53.5 369.5 c 128,-1,13
 71 378 71 378 90 381.5 c 128,-1,14
 109 385 109 385 124 385 c 0,15,16
 141 385 141 385 157 382 c 128,-1,17
 173 379 173 379 185.5 371 c 128,-1,18
 198 363 198 363 205.5 350 c 128,-1,19
 213 337 213 337 213 317 c 0,20,21
 213 298 213 298 203.5 285 c 128,-1,22
 194 272 194 272 179.5 265 c 128,-1,23
 165 258 165 258 147.5 255 c 128,-1,24
 130 252 130 252 114 252 c 1,25,-1
 114 76 l 1,26,27
 137 105 137 105 157.5 136 c 128,-1,28
 178 167 178 167 198 198 c 1,29,-1
 248 198 l 1,30,-1
 322 83 l 1,31,-1
 322 349 l 1,32,-1
 378 382 l 1,33,-1
 423 382 l 1,34,-1
 423 43 l 1,35,-1
 423 43 l 1,0,1
158 321 m 0,36,37
 158 332 158 332 152.5 345.5 c 128,-1,38
 147 359 147 359 133 359 c 0,39,40
 117 359 117 359 109 346 c 128,-1,41
 101 333 101 333 101 319 c 0,42,43
 101 306 101 306 110.5 292.5 c 128,-1,44
 120 279 120 279 134 279 c 0,45,46
 142 279 142 279 147 283.5 c 128,-1,47
 152 288 152 288 154.5 294 c 128,-1,48
 157 300 157 300 157.5 307.5 c 128,-1,49
 158 315 158 315 158 321 c 0,36,37
EndSplineSet
EndChar
StartChar: uni0E1D
Encoding: 3613 3613 160
Width: 458
Flags: W
Fore
423 43 m 1,0,1
 423 26 423 26 411.5 16 c 128,-1,2
 400 6 400 6 386 0 c 1,3,-1
 299 0 l 1,4,-1
 214 140 l 1,5,6
 191 105 191 105 168.5 70 c 128,-1,7
 146 35 146 35 123 0 c 1,8,-1
 13 0 l 1,9,-1
 13 316 l 2,10,11
 13 335 13 335 24.5 348 c 128,-1,12
 36 361 36 361 53.5 369.5 c 128,-1,13
 71 378 71 378 90 381.5 c 128,-1,14
 109 385 109 385 124 385 c 0,15,16
 141 385 141 385 157 382 c 128,-1,17
 173 379 173 379 185.5 371 c 128,-1,18
 198 363 198 363 205.5 350 c 128,-1,19
 213 337 213 337 213 317 c 0,20,21
 213 298 213 298 203.5 285 c 128,-1,22
 194 272 194 272 179.5 265 c 128,-1,23
 165 258 165 258 147.5 255 c 128,-1,24
 130 252 130 252 114 252 c 1,25,-1
 114 76 l 1,26,27
 137 105 137 105 157.5 136 c 128,-1,28
 178 167 178 167 198 198 c 1,29,-1
 248 198 l 1,30,-1
 322 83 l 1,31,-1
 322 501 l 1,32,-1
 378 534 l 1,33,-1
 423 534 l 1,34,-1
 423 43 l 1,35,-1
 423 43 l 1,0,1
158 321 m 0,36,37
 158 332 158 332 152.5 345.5 c 128,-1,38
 147 359 147 359 133 359 c 0,39,40
 117 359 117 359 109 346 c 128,-1,41
 101 333 101 333 101 319 c 0,42,43
 101 306 101 306 110.5 292.5 c 128,-1,44
 120 279 120 279 134 279 c 0,45,46
 142 279 142 279 147 283.5 c 128,-1,47
 152 288 152 288 154.5 294 c 128,-1,48
 157 300 157 300 157.5 307.5 c 128,-1,49
 158 315 158 315 158 321 c 0,36,37
EndSplineSet
EndChar
StartChar: uni0E1E
Encoding: 3614 3614 161
Width: 555
Flags: W
Fore
518 38 m 1,0,1
 513 25 513 25 502.5 16 c 128,-1,2
 492 7 492 7 481 0 c 1,3,-1
 389 0 l 1,4,-1
 295 285 l 1,5,6
 270 213 270 213 247.5 142.5 c 128,-1,7
 225 72 225 72 201 0 c 1,8,-1
 100 0 l 1,9,-1
 100 253 l 1,10,11
 96 252 96 252 89 252 c 0,12,13
 54 252 54 252 31 265.5 c 128,-1,14
 8 279 8 279 8 319 c 0,15,16
 8 338 8 338 17 351 c 128,-1,17
 26 364 26 364 40 371.5 c 128,-1,18
 54 379 54 379 70.5 382.5 c 128,-1,19
 87 386 87 386 103 386 c 0,20,21
 122 386 122 386 140 381 c 128,-1,22
 158 376 158 376 171.5 366 c 128,-1,23
 185 356 185 356 193 340.5 c 128,-1,24
 201 325 201 325 201 304 c 2,25,-1
 201 136 l 1,26,-1
 278 366 l 1,27,-1
 335 366 l 1,28,-1
 417 118 l 1,29,-1
 417 348 l 1,30,-1
 477 382 l 1,31,-1
 518 382 l 1,32,-1
 518 38 l 1,33,-1
 518 38 l 1,0,1
122 321 m 0,34,35
 122 332 122 332 116.5 345.5 c 128,-1,36
 111 359 111 359 97 359 c 0,37,38
 81 359 81 359 73 346 c 128,-1,39
 65 333 65 333 65 319 c 0,40,41
 65 306 65 306 74.5 292.5 c 128,-1,42
 84 279 84 279 98 279 c 0,43,44
 106 279 106 279 111 283.5 c 128,-1,45
 116 288 116 288 118.5 294 c 128,-1,46
 121 300 121 300 121.5 307.5 c 128,-1,47
 122 315 122 315 122 321 c 0,34,35
EndSplineSet
EndChar
StartChar: uni0E1F
Encoding: 3615 3615 162
Width: 555
Flags: W
Fore
518 38 m 1,0,1
 513 25 513 25 502.5 16 c 128,-1,2
 492 7 492 7 481 0 c 1,3,-1
 389 0 l 1,4,-1
 295 285 l 1,5,6
 270 213 270 213 247.5 142.5 c 128,-1,7
 225 72 225 72 201 0 c 1,8,-1
 100 0 l 1,9,-1
 100 253 l 1,10,11
 96 252 96 252 89 252 c 0,12,13
 54 252 54 252 31 265.5 c 128,-1,14
 8 279 8 279 8 319 c 0,15,16
 8 338 8 338 17 351 c 128,-1,17
 26 364 26 364 40 371.5 c 128,-1,18
 54 379 54 379 70.5 382.5 c 128,-1,19
 87 386 87 386 103 386 c 0,20,21
 122 386 122 386 140 381 c 128,-1,22
 158 376 158 376 171.5 366 c 128,-1,23
 185 356 185 356 193 340.5 c 128,-1,24
 201 325 201 325 201 304 c 2,25,-1
 201 136 l 1,26,-1
 278 366 l 1,27,-1
 335 366 l 1,28,-1
 417 118 l 1,29,-1
 417 503 l 1,30,-1
 477 537 l 1,31,-1
 518 537 l 1,32,-1
 518 38 l 1,33,-1
 518 38 l 1,0,1
122 321 m 0,34,35
 122 332 122 332 116.5 345.5 c 128,-1,36
 111 359 111 359 97 359 c 0,37,38
 81 359 81 359 73 346 c 128,-1,39
 65 333 65 333 65 319 c 0,40,41
 65 306 65 306 74.5 292.5 c 128,-1,42
 84 279 84 279 98 279 c 0,43,44
 106 279 106 279 111 283.5 c 128,-1,45
 116 288 116 288 118.5 294 c 128,-1,46
 121 300 121 300 121.5 307.5 c 128,-1,47
 122 315 122 315 122 321 c 0,34,35
EndSplineSet
EndChar
StartChar: uni0E20
Encoding: 3616 3616 163
Width: 502
Flags: W
Fore
362 0 m 1,0,-1
 362 250 l 2,1,2
 362 268 362 268 361 283.5 c 128,-1,3
 360 299 360 299 355 311.5 c 128,-1,4
 350 324 350 324 339 333 c 128,-1,5
 328 342 328 342 308 348 c 0,6,7
 297 352 297 352 285 353 c 128,-1,8
 273 354 273 354 262 354 c 0,9,10
 243 354 243 354 222 351.5 c 128,-1,11
 201 349 201 349 180.5 343.5 c 128,-1,12
 160 338 160 338 141.5 328.5 c 128,-1,13
 123 319 123 319 110 305 c 1,14,-1
 237 305 l 1,15,-1
 237 278 l 1,16,17
 214 270 214 270 204 251 c 128,-1,18
 194 232 194 232 194 209 c 2,19,-1
 194 73 l 2,20,21
 194 53 194 53 185 38.5 c 128,-1,22
 176 24 176 24 162 15 c 128,-1,23
 148 6 148 6 130.5 1.5 c 128,-1,24
 113 -3 113 -3 96 -3 c 256,25,26
 79 -3 79 -3 63 0.5 c 128,-1,27
 47 4 47 4 35 12.5 c 128,-1,28
 23 21 23 21 15.5 34.5 c 128,-1,29
 8 48 8 48 8 67 c 0,30,31
 8 75 8 75 10 86.5 c 128,-1,32
 12 98 12 98 19 106 c 0,33,34
 33 122 33 122 51 127 c 128,-1,35
 69 132 69 132 86 132 c 2,36,-1
 93 132 l 1,37,-1
 93 208 l 2,38,39
 93 230 93 230 109.5 244.5 c 128,-1,40
 126 259 126 259 140 272 c 1,41,-1
 49 272 l 1,42,-1
 49 309 l 1,43,44
 97 350 97 350 149.5 368.5 c 128,-1,45
 202 387 202 387 265 387 c 0,46,47
 288 387 288 387 311.5 385 c 128,-1,48
 335 383 335 383 358 377 c 0,49,50
 415 363 415 363 440 333 c 128,-1,51
 465 303 465 303 465 244 c 2,52,-1
 465 36 l 1,53,-1
 426 0 l 1,54,-1
 362 0 l 1,0,-1
109 62 m 0,55,56
 109 70 109 70 103.5 84 c 128,-1,57
 98 98 98 98 87 98 c 0,58,59
 71 98 71 98 66 85.5 c 128,-1,60
 61 73 61 73 61 59 c 0,61,62
 61 46 61 46 69 34 c 128,-1,63
 77 22 77 22 90 22 c 0,64,65
 96 22 96 22 100 26.5 c 128,-1,66
 104 31 104 31 106 37.5 c 128,-1,67
 108 44 108 44 108.5 51 c 128,-1,68
 109 58 109 58 109 62 c 0,55,56
EndSplineSet
EndChar
StartChar: uni0E21
Encoding: 3617 3617 164
Width: 462
Flags: W
Fore
425 36 m 1,0,1
 425 25 425 25 414.5 15 c 128,-1,2
 404 5 404 5 395 0 c 1,3,-1
 343 0 l 1,4,5
 308 27 308 27 273 54.5 c 128,-1,6
 238 82 238 82 202 108 c 1,7,-1
 202 78 l 2,8,9
 202 30 202 30 178 13 c 128,-1,10
 154 -4 154 -4 108 -4 c 0,11,12
 68 -4 68 -4 44.5 15.5 c 128,-1,13
 21 35 21 35 21 77 c 0,14,15
 21 113 21 113 46.5 138 c 128,-1,16
 72 163 72 163 106 169 c 1,17,-1
 106 252 l 1,18,19
 102 251 102 251 95 251 c 0,20,21
 79 251 79 251 63.5 253.5 c 128,-1,22
 48 256 48 256 35.5 263 c 128,-1,23
 23 270 23 270 15.5 282.5 c 128,-1,24
 8 295 8 295 8 314 c 0,25,26
 8 334 8 334 17 348 c 128,-1,27
 26 362 26 362 40.5 370.5 c 128,-1,28
 55 379 55 379 72.5 382.5 c 128,-1,29
 90 386 90 386 107 386 c 0,30,31
 126 386 126 386 143.5 382.5 c 128,-1,32
 161 379 161 379 174.5 370.5 c 128,-1,33
 188 362 188 362 196.5 347.5 c 128,-1,34
 205 333 205 333 205 311 c 2,35,-1
 205 161 l 1,36,37
 235 141 235 141 264 120.5 c 128,-1,38
 293 100 293 100 322 78 c 1,39,-1
 322 350 l 1,40,-1
 370 382 l 1,41,-1
 425 382 l 1,42,-1
 425 36 l 1,43,-1
 425 36 l 1,0,1
122 321 m 0,44,45
 122 332 122 332 116.5 345.5 c 128,-1,46
 111 359 111 359 97 359 c 0,47,48
 81 359 81 359 73 346 c 128,-1,49
 65 333 65 333 65 319 c 0,50,51
 65 306 65 306 74.5 292.5 c 128,-1,52
 84 279 84 279 98 279 c 0,53,54
 106 279 106 279 111 283.5 c 128,-1,55
 116 288 116 288 118.5 294 c 128,-1,56
 121 300 121 300 121.5 307.5 c 128,-1,57
 122 315 122 315 122 321 c 0,44,45
106 128 m 1,58,59
 89 123 89 123 78.5 111 c 128,-1,60
 68 99 68 99 68 80 c 0,61,62
 68 63 68 63 77 46 c 128,-1,63
 86 29 86 29 106 29 c 1,64,-1
 106 128 l 1,65,-1
 106 128 l 1,58,59
EndSplineSet
EndChar
StartChar: uni0E22
Encoding: 3618 3618 165
Width: 441
Flags: W
Fore
404 51 m 1,0,1
 404 47 404 47 399.5 41 c 128,-1,2
 395 35 395 35 389 29.5 c 128,-1,3
 383 24 383 24 376.5 19 c 128,-1,4
 370 14 370 14 367 12 c 0,5,6
 358 7 358 7 348.5 3.5 c 128,-1,7
 339 0 339 0 328 0 c 2,8,-1
 31 0 l 1,9,-1
 31 109 l 2,10,11
 31 140 31 140 50.5 160.5 c 128,-1,12
 70 181 70 181 96 194 c 1,13,14
 80 197 80 197 64.5 204.5 c 128,-1,15
 49 212 49 212 36.5 223.5 c 128,-1,16
 24 235 24 235 16.5 249.5 c 128,-1,17
 9 264 9 264 9 281 c 0,18,19
 9 311 9 311 22.5 331 c 128,-1,20
 36 351 36 351 57 363 c 128,-1,21
 78 375 78 375 104 380.5 c 128,-1,22
 130 386 130 386 155 386 c 0,23,24
 171 386 171 386 189.5 384 c 128,-1,25
 208 382 208 382 224 375 c 128,-1,26
 240 368 240 368 250.5 355.5 c 128,-1,27
 261 343 261 343 261 322 c 0,28,29
 261 286 261 286 237 270 c 128,-1,30
 213 254 213 254 181 254 c 256,31,32
 149 254 149 254 126 271.5 c 128,-1,33
 103 289 103 289 98 321 c 1,34,35
 91 313 91 313 88.5 302.5 c 128,-1,36
 86 292 86 292 86 281 c 0,37,38
 86 261 86 261 94.5 249 c 128,-1,39
 103 237 103 237 116.5 230.5 c 128,-1,40
 130 224 130 224 146.5 222 c 128,-1,41
 163 220 163 220 179 220 c 2,42,-1
 256 220 l 1,43,-1
 256 180 l 1,44,-1
 180 180 l 2,45,46
 151 180 151 180 141 158 c 128,-1,47
 131 136 131 136 131 112 c 2,48,-1
 131 40 l 1,49,-1
 302 40 l 1,50,-1
 302 350 l 1,51,-1
 353 382 l 1,52,-1
 404 382 l 1,53,-1
 404 51 l 1,54,-1
 404 51 l 1,0,1
209 322 m 0,55,56
 209 333 209 333 203.5 346.5 c 128,-1,57
 198 360 198 360 184 360 c 0,58,59
 168 360 168 360 160 347 c 128,-1,60
 152 334 152 334 152 320 c 0,61,62
 152 307 152 307 161.5 293.5 c 128,-1,63
 171 280 171 280 185 280 c 0,64,65
 193 280 193 280 198 284.5 c 128,-1,66
 203 289 203 289 205.5 295 c 128,-1,67
 208 301 208 301 208.5 308.5 c 128,-1,68
 209 316 209 316 209 322 c 0,55,56
EndSplineSet
EndChar
StartChar: uni0E23
Encoding: 3619 3619 166
Width: 377
Flags: W
Fore
366 305 m 1,0,1
 355 302 355 302 343.5 300 c 128,-1,2
 332 298 332 298 320 298 c 0,3,4
 287 298 287 298 255.5 308.5 c 128,-1,5
 224 319 224 319 195 333 c 0,6,7
 184 338 184 338 172.5 343 c 128,-1,8
 161 348 161 348 148 348 c 0,9,10
 128 348 128 348 114.5 334 c 128,-1,11
 101 320 101 320 95 303 c 1,12,13
 112 303 112 303 142.5 298.5 c 128,-1,14
 173 294 173 294 206 286.5 c 128,-1,15
 239 279 239 279 267.5 269.5 c 128,-1,16
 296 260 296 260 308 250 c 0,17,18
 322 238 322 238 332 221.5 c 128,-1,19
 342 205 342 205 342 186 c 2,20,-1
 342 69 l 2,21,22
 342 51 342 51 331.5 37 c 128,-1,23
 321 23 321 23 305.5 14 c 128,-1,24
 290 5 290 5 272 0.5 c 128,-1,25
 254 -4 254 -4 239 -4 c 0,26,27
 223 -4 223 -4 206 -0.5 c 128,-1,28
 189 3 189 3 175 10.5 c 128,-1,29
 161 18 161 18 152 31 c 128,-1,30
 143 44 143 44 143 63 c 0,31,32
 143 97 143 97 167.5 113 c 128,-1,33
 192 129 192 129 223 129 c 0,34,35
 228 129 228 129 231.5 128.5 c 128,-1,36
 235 128 235 128 240 127 c 1,37,-1
 240 189 l 2,38,39
 240 207 240 207 226.5 220 c 128,-1,40
 213 233 213 233 191 242 c 128,-1,41
 169 251 169 251 142.5 256.5 c 128,-1,42
 116 262 116 262 90 264.5 c 128,-1,43
 64 267 64 267 42 268 c 128,-1,44
 20 269 20 269 7 269 c 1,45,46
 16 387 16 387 136 387 c 0,47,48
 176 387 176 387 213 375 c 1,49,-1
 212 375 l 1,50,51
 226 371 226 371 240.5 368 c 128,-1,52
 255 365 255 365 270 365 c 0,53,54
 280 365 280 365 293.5 366.5 c 128,-1,55
 307 368 307 368 320.5 370.5 c 128,-1,56
 334 373 334 373 346.5 377.5 c 128,-1,57
 359 382 359 382 366 388 c 1,58,-1
 366 305 l 1,59,-1
 366 305 l 1,0,1
259 62 m 0,60,61
 259 73 259 73 253 87 c 128,-1,62
 247 101 247 101 233 101 c 0,63,64
 217 101 217 101 209 88 c 128,-1,65
 201 75 201 75 201 61 c 0,66,67
 201 48 201 48 210.5 34.5 c 128,-1,68
 220 21 220 21 234 21 c 0,69,70
 251 21 251 21 255 35.5 c 128,-1,71
 259 50 259 50 259 62 c 0,60,61
EndSplineSet
EndChar
StartChar: uni0E24
Encoding: 3620 3620 167
Width: 457
Flags: W
Fore
316 -141 m 1,0,-1
 316 258 l 2,1,2
 316 303 316 303 287 327 c 128,-1,3
 258 351 258 351 215 351 c 0,4,5
 196 351 196 351 174.5 348.5 c 128,-1,6
 153 346 153 346 132.5 340 c 128,-1,7
 112 334 112 334 93.5 324 c 128,-1,8
 75 314 75 314 62 299 c 1,9,-1
 182 299 l 1,10,-1
 182 270 l 1,11,12
 156 262 156 262 144.5 250 c 128,-1,13
 133 238 133 238 133 209 c 2,14,-1
 133 128 l 1,15,16
 141 133 141 133 151 133 c 0,17,18
 185 133 185 133 206 117.5 c 128,-1,19
 227 102 227 102 227 66 c 0,20,21
 227 45 227 45 220 31.5 c 128,-1,22
 213 18 213 18 200.5 10.5 c 128,-1,23
 188 3 188 3 172 0 c 128,-1,24
 156 -3 156 -3 138 -3 c 0,25,26
 123 -3 123 -3 105 2 c 128,-1,27
 87 7 87 7 71.5 16.5 c 128,-1,28
 56 26 56 26 46 40 c 128,-1,29
 36 54 36 54 36 72 c 2,30,-1
 36 202 l 2,31,32
 36 211 36 211 41 220 c 128,-1,33
 46 229 46 229 53.5 237.5 c 128,-1,34
 61 246 61 246 69.5 252.5 c 128,-1,35
 78 259 78 259 85 264 c 1,36,-1
 15 264 l 1,37,-1
 15 318 l 1,38,39
 32 329 32 329 48 340.5 c 128,-1,40
 64 352 64 352 82 360 c 0,41,42
 112 374 112 374 146.5 380.5 c 128,-1,43
 181 387 181 387 214 387 c 0,44,45
 245 387 245 387 280.5 383.5 c 128,-1,46
 316 380 316 380 346.5 367.5 c 128,-1,47
 377 355 377 355 397.5 331.5 c 128,-1,48
 418 308 418 308 418 267 c 2,49,-1
 418 -104 l 1,50,-1
 380 -141 l 1,51,-1
 316 -141 l 1,0,-1
180 66 m 256,52,53
 180 81 180 81 171.5 91 c 128,-1,54
 163 101 163 101 147 101 c 0,55,56
 133 101 133 101 128 88 c 128,-1,57
 123 75 123 75 123 64 c 256,58,59
 123 53 123 53 129 38 c 128,-1,60
 135 23 135 23 149 23 c 0,61,62
 167 23 167 23 173.5 37 c 128,-1,63
 180 51 180 51 180 66 c 256,52,53
EndSplineSet
EndChar
StartChar: uni0E25
Encoding: 3621 3621 168
Width: 441
Flags: W
Fore
403 28 m 1,0,1
 386 11 386 11 362 0 c 1,2,-1
 303 0 l 1,3,-1
 303 70 l 2,4,5
 303 95 303 95 293 121.5 c 128,-1,6
 283 148 283 148 265.5 170.5 c 128,-1,7
 248 193 248 193 224.5 207.5 c 128,-1,8
 201 222 201 222 174 222 c 0,9,10
 145 222 145 222 134 205 c 128,-1,11
 123 188 123 188 123 162 c 2,12,-1
 123 121 l 1,13,14
 132 125 132 125 145 125 c 0,15,16
 177 125 177 125 197.5 110.5 c 128,-1,17
 218 96 218 96 218 61 c 256,18,19
 218 26 218 26 195.5 11.5 c 128,-1,20
 173 -3 173 -3 141 -3 c 0,21,22
 125 -3 125 -3 105 -0.5 c 128,-1,23
 85 2 85 2 67 9.5 c 128,-1,24
 49 17 49 17 37 29.5 c 128,-1,25
 25 42 25 42 25 63 c 2,26,-1
 25 148 l 2,27,28
 25 181 25 181 37.5 204.5 c 128,-1,29
 50 228 50 228 71 242.5 c 128,-1,30
 92 257 92 257 119 263.5 c 128,-1,31
 146 270 146 270 176 270 c 0,32,33
 211 270 211 270 243 257.5 c 128,-1,34
 275 245 275 245 302 224 c 1,35,-1
 302 256 l 2,36,37
 302 310 302 310 276 331 c 128,-1,38
 250 352 250 352 199 352 c 0,39,40
 173 352 173 352 153 348.5 c 128,-1,41
 133 345 133 345 116.5 336.5 c 128,-1,42
 100 328 100 328 85.5 314.5 c 128,-1,43
 71 301 71 301 54 281 c 0,44,45
 46 271 46 271 40 260 c 1,46,-1
 8 260 l 1,47,-1
 8 328 l 1,48,49
 36 347 36 347 57.5 358.5 c 128,-1,50
 79 370 79 370 100.5 376 c 128,-1,51
 122 382 122 382 146.5 384 c 128,-1,52
 171 386 171 386 204 386 c 0,53,54
 231 386 231 386 265.5 381.5 c 128,-1,55
 300 377 300 377 330.5 364.5 c 128,-1,56
 361 352 361 352 382 330 c 128,-1,57
 403 308 403 308 403 272 c 2,58,-1
 403 28 l 1,59,-1
 403 28 l 1,0,1
172 62 m 0,60,61
 172 77 172 77 165 86 c 128,-1,62
 158 95 158 95 142 95 c 256,63,64
 126 95 126 95 119 83.5 c 128,-1,65
 112 72 112 72 112 58 c 0,66,67
 112 45 112 45 120.5 34.5 c 128,-1,68
 129 24 129 24 143 24 c 256,69,70
 157 24 157 24 164.5 37 c 128,-1,71
 172 50 172 50 172 62 c 0,60,61
EndSplineSet
EndChar
StartChar: uni0E26
Encoding: 3622 3622 169
Width: 502
Flags: W
Fore
362 -137 m 1,0,-1
 362 250 l 2,1,2
 362 268 362 268 361 283.5 c 128,-1,3
 360 299 360 299 355 311.5 c 128,-1,4
 350 324 350 324 339 333 c 128,-1,5
 328 342 328 342 308 348 c 0,6,7
 297 352 297 352 285 353 c 128,-1,8
 273 354 273 354 262 354 c 0,9,10
 243 354 243 354 222 351.5 c 128,-1,11
 201 349 201 349 180.5 343.5 c 128,-1,12
 160 338 160 338 141.5 328.5 c 128,-1,13
 123 319 123 319 110 305 c 1,14,-1
 237 305 l 1,15,-1
 237 278 l 1,16,17
 214 270 214 270 204 251 c 128,-1,18
 194 232 194 232 194 209 c 2,19,-1
 194 73 l 2,20,21
 194 53 194 53 185 38.5 c 128,-1,22
 176 24 176 24 162 15 c 128,-1,23
 148 6 148 6 130.5 1.5 c 128,-1,24
 113 -3 113 -3 96 -3 c 256,25,26
 79 -3 79 -3 63 0.5 c 128,-1,27
 47 4 47 4 35 12.5 c 128,-1,28
 23 21 23 21 15.5 34.5 c 128,-1,29
 8 48 8 48 8 67 c 0,30,31
 8 75 8 75 9 81.5 c 128,-1,32
 10 88 10 88 13 96 c 0,33,34
 21 115 21 115 41.5 124 c 128,-1,35
 62 133 62 133 82 133 c 0,36,37
 90 133 90 133 93 132 c 1,38,-1
 93 208 l 2,39,40
 93 230 93 230 109.5 244.5 c 128,-1,41
 126 259 126 259 140 272 c 1,42,-1
 49 272 l 1,43,-1
 49 309 l 1,44,45
 97 350 97 350 149.5 368.5 c 128,-1,46
 202 387 202 387 265 387 c 0,47,48
 288 387 288 387 311.5 385 c 128,-1,49
 335 383 335 383 358 377 c 0,50,51
 415 363 415 363 440 333 c 128,-1,52
 465 303 465 303 465 244 c 2,53,-1
 465 -101 l 1,54,-1
 426 -137 l 1,55,-1
 362 -137 l 1,0,-1
109 62 m 0,56,57
 109 76 109 76 102.5 87 c 128,-1,58
 96 98 96 98 87 98 c 0,59,60
 71 98 71 98 66 85.5 c 128,-1,61
 61 73 61 73 61 59 c 256,62,63
 61 45 61 45 68.5 33.5 c 128,-1,64
 76 22 76 22 89 22 c 0,65,66
 95 22 95 22 99 26.5 c 128,-1,67
 103 31 103 31 105.5 37 c 128,-1,68
 108 43 108 43 108.5 50 c 128,-1,69
 109 57 109 57 109 62 c 0,56,57
EndSplineSet
EndChar
StartChar: uni0E27
Encoding: 3623 3623 170
Width: 370
Flags: W
Fore
36 343 m 2,0,1
 70 366 70 366 98.5 375.5 c 128,-1,2
 127 385 127 385 167 385 c 0,3,4
 193 385 193 385 222 381 c 128,-1,5
 251 377 251 377 275.5 365.5 c 128,-1,6
 300 354 300 354 316 333 c 128,-1,7
 332 312 332 312 332 279 c 2,8,-1
 332 71 l 2,9,10
 332 53 332 53 323.5 39 c 128,-1,11
 315 25 315 25 301.5 16 c 128,-1,12
 288 7 288 7 271.5 2 c 128,-1,13
 255 -3 255 -3 239 -3 c 0,14,15
 224 -3 224 -3 206.5 0 c 128,-1,16
 189 3 189 3 174 10 c 128,-1,17
 159 17 159 17 149 29.5 c 128,-1,18
 139 42 139 42 139 61 c 0,19,20
 139 82 139 82 146.5 95.5 c 128,-1,21
 154 109 154 109 166.5 117 c 128,-1,22
 179 125 179 125 195.5 128 c 128,-1,23
 212 131 212 131 230 131 c 1,24,-1
 230 272 l 2,25,26
 230 307 230 307 219 330.5 c 128,-1,27
 208 354 208 354 167 354 c 0,28,29
 146 354 146 354 126.5 345.5 c 128,-1,30
 107 337 107 337 90.5 323.5 c 128,-1,31
 74 310 74 310 60.5 292.5 c 128,-1,32
 47 275 47 275 38 257 c 1,33,-1
 9 257 l 1,34,-1
 9 322 l 1,35,-1
 36 343 l 2,0,1
251 64 m 0,36,37
 251 79 251 79 244 88 c 128,-1,38
 237 97 237 97 221 97 c 256,39,40
 205 97 205 97 198.5 85.5 c 128,-1,41
 192 74 192 74 192 60 c 256,42,43
 192 46 192 46 200.5 36 c 128,-1,44
 209 26 209 26 223 26 c 256,45,46
 237 26 237 26 244 39 c 128,-1,47
 251 52 251 52 251 64 c 0,36,37
EndSplineSet
EndChar
StartChar: uni0E28
Encoding: 3624 3624 171
Width: 436
Flags: W
Fore
304 0 m 1,0,-1
 304 317 l 1,1,-1
 228 240 l 1,2,3
 233 225 233 225 233 211 c 0,4,5
 233 181 233 181 211.5 161 c 128,-1,6
 190 141 190 141 161 141 c 0,7,8
 156 141 156 141 149 141.5 c 128,-1,9
 142 142 142 142 137 143 c 1,10,-1
 137 0 l 1,11,-1
 50 0 l 1,12,-1
 50 112 l 2,13,14
 50 129 50 129 44 144 c 0,15,16
 33 170 33 170 21 194 c 128,-1,17
 9 218 9 218 9 247 c 0,18,19
 9 287 9 287 26 313.5 c 128,-1,20
 43 340 43 340 70 356 c 128,-1,21
 97 372 97 372 131 378.5 c 128,-1,22
 165 385 165 385 198 385 c 0,23,24
 223 385 223 385 247.5 381 c 128,-1,25
 272 377 272 377 295 367 c 1,26,27
 303 377 303 377 310 386.5 c 128,-1,28
 317 396 317 396 325 405 c 1,29,30
 327 406 327 406 330 406 c 2,31,-1
 402 406 l 1,32,33
 388 392 388 392 373.5 377.5 c 128,-1,34
 359 363 359 363 344 349 c 1,35,36
 354 345 354 345 365 338 c 128,-1,37
 376 331 376 331 385 322 c 128,-1,38
 394 313 394 313 400 302.5 c 128,-1,39
 406 292 406 292 406 280 c 2,40,-1
 406 28 l 1,41,-1
 356 0 l 1,42,-1
 304 0 l 1,0,-1
276 343 m 1,43,44
 258 350 258 350 241.5 352.5 c 128,-1,45
 225 355 225 355 205 355 c 0,46,47
 182 355 182 355 157 349 c 128,-1,48
 132 343 132 343 111 330.5 c 128,-1,49
 90 318 90 318 76.5 298 c 128,-1,50
 63 278 63 278 63 251 c 0,51,52
 63 238 63 238 67.5 226 c 128,-1,53
 72 214 72 214 77 203 c 1,54,55
 89 281 89 281 167 281 c 0,56,57
 177 281 177 281 186 279.5 c 128,-1,58
 195 278 195 278 203 271 c 1,59,60
 221 290 221 290 239.5 307.5 c 128,-1,61
 258 325 258 325 276 343 c 1,43,44
188 214 m 0,62,63
 188 226 188 226 181 239 c 128,-1,64
 174 252 174 252 160 252 c 256,65,66
 146 252 146 252 139 237.5 c 128,-1,67
 132 223 132 223 132 212 c 0,68,69
 132 206 132 206 134 199 c 128,-1,70
 136 192 136 192 140 185.5 c 128,-1,71
 144 179 144 179 149.5 174.5 c 128,-1,72
 155 170 155 170 161 170 c 0,73,74
 168 170 168 170 173 175 c 128,-1,75
 178 180 178 180 181.5 186.5 c 128,-1,76
 185 193 185 193 186.5 200.5 c 128,-1,77
 188 208 188 208 188 214 c 0,62,63
EndSplineSet
EndChar
StartChar: uni0E29
Encoding: 3625 3625 172
Width: 504
Flags: W
Fore
53 0 m 1,0,-1
 53 40 l 1,1,-1
 98 40 l 1,2,-1
 98 247 l 1,3,4
 81 247 81 247 64.5 250 c 128,-1,5
 48 253 48 253 35.5 260.5 c 128,-1,6
 23 268 23 268 15.5 281.5 c 128,-1,7
 8 295 8 295 8 315 c 0,8,9
 8 334 8 334 16.5 347.5 c 128,-1,10
 25 361 25 361 39 370 c 128,-1,11
 53 379 53 379 70 383 c 128,-1,12
 87 387 87 387 103 387 c 0,13,14
 149 387 149 387 175 365.5 c 128,-1,15
 201 344 201 344 201 296 c 2,16,-1
 201 40 l 1,17,-1
 360 40 l 1,18,-1
 360 112 l 1,19,20
 340 113 340 113 315 117 c 128,-1,21
 290 121 290 121 268 130.5 c 128,-1,22
 246 140 246 140 231 156.5 c 128,-1,23
 216 173 216 173 216 199 c 0,24,25
 216 228 216 228 235 240.5 c 128,-1,26
 254 253 254 253 280 253 c 0,27,28
 308 253 308 253 325.5 241.5 c 128,-1,29
 343 230 343 230 343 199 c 0,30,31
 343 187 343 187 339 174.5 c 128,-1,32
 335 162 335 162 327 154 c 1,33,34
 335 156 335 156 343.5 158.5 c 128,-1,35
 352 161 352 161 360 164 c 1,36,-1
 360 353 l 1,37,-1
 422 382 l 1,38,-1
 463 382 l 1,39,-1
 463 196 l 1,40,41
 476 205 476 205 489 216 c 1,42,-1
 489 136 l 1,43,44
 482 132 482 132 475.5 128 c 128,-1,45
 469 124 469 124 462 119 c 1,46,-1
 462 42 l 1,47,48
 452 28 452 28 440 19.5 c 128,-1,49
 428 11 428 11 416.5 6.5 c 128,-1,50
 405 2 405 2 396.5 1 c 128,-1,51
 388 0 388 0 384 0 c 2,52,-1
 53 0 l 1,0,-1
303 198 m 0,53,54
 303 209 303 209 299 219 c 128,-1,55
 295 229 295 229 281 229 c 0,56,57
 269 229 269 229 265.5 217 c 128,-1,58
 262 205 262 205 262 196 c 0,59,60
 262 186 262 186 265.5 173 c 128,-1,61
 269 160 269 160 282 160 c 0,62,63
 294 160 294 160 298.5 174.5 c 128,-1,64
 303 189 303 189 303 198 c 0,53,54
123 321 m 0,65,66
 123 332 123 332 116.5 345 c 128,-1,67
 110 358 110 358 96 358 c 0,68,69
 80 358 80 358 72 345 c 128,-1,70
 64 332 64 332 64 318 c 0,71,72
 64 305 64 305 73.5 291.5 c 128,-1,73
 83 278 83 278 97 278 c 0,74,75
 105 278 105 278 110 282.5 c 128,-1,76
 115 287 115 287 118 293.5 c 128,-1,77
 121 300 121 300 122 307.5 c 128,-1,78
 123 315 123 315 123 321 c 0,65,66
EndSplineSet
EndChar
StartChar: uni0E2A
Encoding: 3626 3626 173
Width: 427
Flags: W
Fore
426 408 m 1,0,1
 409 391 409 391 386.5 372.5 c 128,-1,2
 364 354 364 354 347 343 c 1,3,4
 352 340 352 340 359.5 335 c 128,-1,5
 367 330 367 330 373.5 322 c 128,-1,6
 380 314 380 314 385 303.5 c 128,-1,7
 390 293 390 293 390 281 c 2,8,-1
 390 26 l 1,9,-1
 350 0 l 1,10,-1
 288 0 l 1,11,-1
 288 87 l 2,12,13
 288 112 288 112 279 136 c 128,-1,14
 270 160 270 160 254.5 179 c 128,-1,15
 239 198 239 198 217 209.5 c 128,-1,16
 195 221 195 221 168 221 c 0,17,18
 152 221 152 221 142 215 c 128,-1,19
 132 209 132 209 127.5 199 c 128,-1,20
 123 189 123 189 121.5 176 c 128,-1,21
 120 163 120 163 120 150 c 2,22,-1
 120 127 l 1,23,24
 122 128 122 128 127 129 c 128,-1,25
 132 130 132 130 135 130 c 0,26,27
 168 130 168 130 186.5 116 c 128,-1,28
 205 102 205 102 205 65 c 0,29,30
 205 45 205 45 197.5 32 c 128,-1,31
 190 19 190 19 177.5 11 c 128,-1,32
 165 3 165 3 149 0 c 128,-1,33
 133 -3 133 -3 116 -3 c 0,34,35
 101 -3 101 -3 83.5 1 c 128,-1,36
 66 5 66 5 52 13 c 128,-1,37
 38 21 38 21 28.5 34.5 c 128,-1,38
 19 48 19 48 19 66 c 2,39,-1
 19 150 l 2,40,41
 19 180 19 180 34.5 203 c 128,-1,42
 50 226 50 226 73.5 242 c 128,-1,43
 97 258 97 258 125.5 266 c 128,-1,44
 154 274 154 274 180 274 c 1,45,46
 199 291 199 291 219 306 c 128,-1,47
 239 321 239 321 259 337 c 1,48,49
 246 344 246 344 232.5 346.5 c 128,-1,50
 219 349 219 349 205 349 c 0,51,52
 151 349 151 349 108 328 c 128,-1,53
 65 307 65 307 39 259 c 1,54,-1
 11 259 l 1,55,-1
 11 328 l 1,56,57
 16 334 16 334 22 338.5 c 128,-1,58
 28 343 28 343 35 348 c 0,59,60
 70 372 70 372 107 378.5 c 128,-1,61
 144 385 144 385 186 385 c 0,62,63
 213 385 213 385 240 381 c 128,-1,64
 267 377 267 377 293 366 c 1,65,66
 303 377 303 377 313 386.5 c 128,-1,67
 323 396 323 396 332 407 c 1,68,69
 334 408 334 408 337 408 c 2,70,-1
 426 408 l 1,71,-1
 426 408 l 1,0,1
237 262 m 1,72,73
 264 249 264 249 288 227 c 1,74,-1
 288 305 l 1,75,-1
 237 262 l 1,72,73
168 63 m 0,76,77
 168 78 168 78 161 87 c 128,-1,78
 154 96 154 96 138 96 c 256,79,80
 122 96 122 96 115 84.5 c 128,-1,81
 108 73 108 73 108 59 c 0,82,83
 108 46 108 46 116.5 35.5 c 128,-1,84
 125 25 125 25 139 25 c 256,85,86
 153 25 153 25 160.5 38 c 128,-1,87
 168 51 168 51 168 63 c 0,76,77
EndSplineSet
EndChar
StartChar: uni0E2B
Encoding: 3627 3627 174
Width: 497
Flags: W
Fore
461 30 m 1,0,1
 445 14 445 14 425 0 c 1,2,-1
 359 0 l 1,3,-1
 359 257 l 1,4,5
 311 195 311 195 269 130.5 c 128,-1,6
 227 66 227 66 185 0 c 1,7,-1
 185 1 l 1,8,-1
 184 0 l 1,9,-1
 90 0 l 1,10,-1
 90 255 l 1,11,-1
 79 254 l 2,12,13
 50 254 50 254 29 269.5 c 128,-1,14
 8 285 8 285 8 317 c 0,15,16
 8 335 8 335 15.5 348.5 c 128,-1,17
 23 362 23 362 35.5 370 c 128,-1,18
 48 378 48 378 63.5 382 c 128,-1,19
 79 386 79 386 95 386 c 0,20,21
 115 386 115 386 132 383 c 128,-1,22
 149 380 149 380 162 371.5 c 128,-1,23
 175 363 175 363 182.5 349 c 128,-1,24
 190 335 190 335 190 312 c 2,25,-1
 190 74 l 1,26,27
 229 124 229 124 265 176 c 128,-1,28
 301 228 301 228 337 279 c 1,29,30
 331 282 331 282 322 288 c 128,-1,31
 313 294 313 294 305 301.5 c 128,-1,32
 297 309 297 309 291.5 317.5 c 128,-1,33
 286 326 286 326 286 333 c 0,34,35
 286 351 286 351 293 361.5 c 128,-1,36
 300 372 300 372 311.5 378 c 128,-1,37
 323 384 323 384 337.5 386 c 128,-1,38
 352 388 352 388 366 388 c 0,39,40
 378 388 378 388 391.5 387 c 128,-1,41
 405 386 405 386 416.5 381.5 c 128,-1,42
 428 377 428 377 435.5 368.5 c 128,-1,43
 443 360 443 360 443 344 c 0,44,45
 443 326 443 326 430 312.5 c 128,-1,46
 417 299 417 299 406 287 c 1,47,48
 424 275 424 275 442.5 261 c 128,-1,49
 461 247 461 247 461 222 c 2,50,-1
 461 30 l 1,51,-1
 461 30 l 1,0,1
389 340 m 0,52,53
 389 366 389 366 362 366 c 0,54,55
 351 366 351 366 344.5 358 c 128,-1,56
 338 350 338 350 338 339 c 0,57,58
 338 327 338 327 345.5 316.5 c 128,-1,59
 353 306 353 306 366 306 c 0,60,61
 369 306 369 306 373 310 c 128,-1,62
 377 314 377 314 380.5 320 c 128,-1,63
 384 326 384 326 386.5 331.5 c 128,-1,64
 389 337 389 337 389 340 c 0,52,53
122 321 m 0,65,66
 122 332 122 332 116 345.5 c 128,-1,67
 110 359 110 359 96 359 c 0,68,69
 80 359 80 359 72 346 c 128,-1,70
 64 333 64 333 64 319 c 0,71,72
 64 306 64 306 73.5 292.5 c 128,-1,73
 83 279 83 279 97 279 c 0,74,75
 105 279 105 279 110 283.5 c 128,-1,76
 115 288 115 288 117.5 294 c 128,-1,77
 120 300 120 300 121 307.5 c 128,-1,78
 122 315 122 315 122 321 c 0,65,66
EndSplineSet
EndChar
StartChar: uni0E2C
Encoding: 3628 3628 175
Width: 554
Flags: W
Fore
556 391 m 1,0,1
 555 383 555 383 550 372.5 c 128,-1,2
 545 362 545 362 539 351.5 c 128,-1,3
 533 341 533 341 525.5 332.5 c 128,-1,4
 518 324 518 324 511 320 c 1,5,-1
 511 34 l 2,6,7
 511 30 511 30 507.5 24 c 128,-1,8
 504 18 504 18 499.5 13 c 128,-1,9
 495 8 495 8 489.5 4 c 128,-1,10
 484 0 484 0 479 0 c 2,11,-1
 393 0 l 1,12,13
 392 8 392 8 378 33.5 c 128,-1,14
 364 59 364 59 347 89 c 128,-1,15
 330 119 330 119 313.5 147 c 128,-1,16
 297 175 297 175 291 187 c 1,17,18
 265 141 265 141 240.5 94.5 c 128,-1,19
 216 48 216 48 193 0 c 1,20,-1
 92 0 l 1,21,-1
 92 255 l 1,22,23
 87 254 87 254 83 254 c 128,-1,24
 79 254 79 254 74 254 c 0,25,26
 46 254 46 254 27 271 c 128,-1,27
 8 288 8 288 8 317 c 0,28,29
 8 335 8 335 16 348.5 c 128,-1,30
 24 362 24 362 37 370 c 128,-1,31
 50 378 50 378 66 382 c 128,-1,32
 82 386 82 386 98 386 c 256,33,34
 114 386 114 386 131 382 c 128,-1,35
 148 378 148 378 162 369.5 c 128,-1,36
 176 361 176 361 185 347.5 c 128,-1,37
 194 334 194 334 194 316 c 2,38,-1
 194 100 l 1,39,40
 212 137 212 137 232 172.5 c 128,-1,41
 252 208 252 208 272 244 c 1,42,-1
 319 244 l 1,43,-1
 318 245 l 1,44,45
 327 234 327 234 333 221.5 c 128,-1,46
 339 209 339 209 347 197 c 0,47,48
 363 171 363 171 378.5 145.5 c 128,-1,49
 394 120 394 120 409 94 c 1,50,-1
 409 286 l 1,51,52
 401 285 401 285 392.5 284.5 c 128,-1,53
 384 284 384 284 376 284 c 0,54,55
 363 284 363 284 347.5 286 c 128,-1,56
 332 288 332 288 318.5 294 c 128,-1,57
 305 300 305 300 296 310.5 c 128,-1,58
 287 321 287 321 287 338 c 0,59,60
 287 353 287 353 296 362.5 c 128,-1,61
 305 372 305 372 318.5 378 c 128,-1,62
 332 384 332 384 346.5 386 c 128,-1,63
 361 388 361 388 373 388 c 0,64,65
 394 388 394 388 418 381 c 128,-1,66
 442 374 442 374 458 360 c 1,67,-1
 462 391 l 1,68,-1
 556 391 l 1,0,1
379 361 m 0,69,70
 366 361 366 361 350 357 c 128,-1,71
 334 353 334 353 334 336 c 0,72,73
 334 321 334 321 348 317 c 128,-1,74
 362 313 362 313 373 313 c 2,75,-1
 384 313 l 2,76,77
 407 313 407 313 419 331 c 1,78,79
 411 344 411 344 403.5 352.5 c 128,-1,80
 396 361 396 361 379 361 c 0,69,70
122 321 m 0,81,82
 122 332 122 332 116.5 345.5 c 128,-1,83
 111 359 111 359 97 359 c 0,84,85
 81 359 81 359 73 346 c 128,-1,86
 65 333 65 333 65 319 c 0,87,88
 65 306 65 306 74.5 292.5 c 128,-1,89
 84 279 84 279 98 279 c 0,90,91
 106 279 106 279 111 283.5 c 128,-1,92
 116 288 116 288 118.5 294 c 128,-1,93
 121 300 121 300 121.5 307.5 c 128,-1,94
 122 315 122 315 122 321 c 0,81,82
EndSplineSet
Substitution: 0 65534 'L019' uni0E2C.alt1
Substitution: 0 65534 'L019' uni0E2C.alt1
EndChar
StartChar: uni0E2D
Encoding: 3629 3629 176
Width: 425
Flags: W
Fore
8 331 m 1,0,1
 13 334 13 334 17 337 c 0,2,3
 21 339 21 339 24.5 342 c 128,-1,4
 28 345 28 345 31 347 c 0,5,6
 72 373 72 373 112 380 c 128,-1,7
 152 387 152 387 199 387 c 0,8,9
 231 387 231 387 264.5 381 c 128,-1,10
 298 375 298 375 325 360 c 128,-1,11
 352 345 352 345 369.5 319 c 128,-1,12
 387 293 387 293 387 254 c 2,13,-1
 387 49 l 1,14,15
 376 26 376 26 354 13 c 128,-1,16
 332 0 332 0 307 0 c 2,17,-1
 31 0 l 1,18,-1
 31 196 l 2,19,20
 31 214 31 214 41.5 226.5 c 128,-1,21
 52 239 52 239 67.5 247 c 128,-1,22
 83 255 83 255 101 259 c 128,-1,23
 119 263 119 263 133 263 c 0,24,25
 148 263 148 263 163 260 c 128,-1,26
 178 257 178 257 190 249.5 c 128,-1,27
 202 242 202 242 209.5 230 c 128,-1,28
 217 218 217 218 217 200 c 256,29,30
 217 182 217 182 208.5 170 c 128,-1,31
 200 158 200 158 187 151.5 c 128,-1,32
 174 145 174 145 158.5 142 c 128,-1,33
 143 139 143 139 128 139 c 1,34,-1
 128 40 l 1,35,-1
 284 40 l 1,36,-1
 284 248 l 2,37,38
 284 353 284 353 181 353 c 0,39,40
 160 353 160 353 139.5 345 c 128,-1,41
 119 337 119 337 100 324 c 128,-1,42
 81 311 81 311 65 295 c 128,-1,43
 49 279 49 279 38 262 c 1,44,-1
 8 262 l 1,45,-1
 8 331 l 1,46,-1
 8 331 l 1,0,1
167 204 m 0,47,48
 167 215 167 215 161.5 228.5 c 128,-1,49
 156 242 156 242 142 242 c 0,50,51
 126 242 126 242 118 229 c 128,-1,52
 110 216 110 216 110 202 c 0,53,54
 110 189 110 189 119.5 175.5 c 128,-1,55
 129 162 129 162 143 162 c 0,56,57
 151 162 151 162 156 166.5 c 128,-1,58
 161 171 161 171 163.5 177 c 128,-1,59
 166 183 166 183 166.5 190.5 c 128,-1,60
 167 198 167 198 167 204 c 0,47,48
EndSplineSet
EndChar
StartChar: uni0E2E
Encoding: 3630 3630 177
Width: 404
Flags: W
Fore
408 391 m 1,0,1
 396 371 396 371 383 353 c 128,-1,2
 370 335 370 335 352 321 c 1,3,4
 369 304 369 304 369 280 c 2,5,-1
 369 47 l 1,6,7
 357 30 357 30 334 15 c 128,-1,8
 311 0 311 0 289 0 c 2,9,-1
 9 0 l 1,10,-1
 9 160 l 2,11,12
 9 179 9 179 18.5 193 c 128,-1,13
 28 207 28 207 42.5 216.5 c 128,-1,14
 57 226 57 226 75 230.5 c 128,-1,15
 93 235 93 235 109 235 c 256,16,17
 125 235 125 235 139.5 232.5 c 128,-1,18
 154 230 154 230 164.5 223.5 c 128,-1,19
 175 217 175 217 181.5 205 c 128,-1,20
 188 193 188 193 188 174 c 0,21,22
 188 134 188 134 166 122 c 128,-1,23
 144 110 144 110 109 110 c 1,24,-1
 109 40 l 1,25,-1
 267 40 l 1,26,-1
 267 273 l 1,27,28
 238 259 238 259 206 255 c 128,-1,29
 174 251 174 251 142 251 c 0,30,31
 126 251 126 251 104.5 253 c 128,-1,32
 83 255 83 255 63 262 c 128,-1,33
 43 269 43 269 29 281.5 c 128,-1,34
 15 294 15 294 15 316 c 0,35,36
 15 340 15 340 32 354.5 c 128,-1,37
 49 369 49 369 73 376 c 128,-1,38
 97 383 97 383 122.5 385 c 128,-1,39
 148 387 148 387 166 387 c 0,40,41
 199 387 199 387 232.5 381.5 c 128,-1,42
 266 376 266 376 295 359 c 1,43,44
 301 367 301 367 306 375 c 128,-1,45
 316 391 l 1,46,-1
 408 391 l 1,47,-1
 408 391 l 1,0,1
253 322 m 1,48,49
 232 339 232 339 210.5 347.5 c 128,-1,50
 189 356 189 356 162 356 c 0,51,52
 154 356 154 356 140.5 354 c 128,-1,53
 127 352 127 352 114.5 347.5 c 128,-1,54
 102 343 102 343 92.5 336 c 128,-1,55
 83 329 83 329 83 318 c 0,56,57
 83 309 83 309 89 303 c 128,-1,58
 95 297 95 297 103 293.5 c 128,-1,59
 111 290 111 290 120 288 c 128,-1,60
 129 286 129 286 136 286 c 0,61,62
 150 286 150 286 166 288 c 128,-1,63
 182 290 182 290 198 294 c 128,-1,64
 214 298 214 298 228.5 305 c 128,-1,65
 243 312 243 312 253 322 c 1,48,49
145 173 m 0,66,67
 145 184 145 184 139.5 197.5 c 128,-1,68
 134 211 134 211 120 211 c 0,69,70
 104 211 104 211 96 198 c 128,-1,71
 88 185 88 185 88 171 c 0,72,73
 88 158 88 158 97.5 144.5 c 128,-1,74
 107 131 107 131 121 131 c 0,75,76
 129 131 129 131 134 135.5 c 128,-1,77
 139 140 139 140 141.5 146 c 128,-1,78
 144 152 144 152 144.5 159.5 c 128,-1,79
 145 167 145 167 145 173 c 0,66,67
EndSplineSet
EndChar
StartChar: uni0E2F
Encoding: 3631 3631 178
Width: 386
Flags: W
Fore
352 28 m 1,0,-1
 309 0 l 1,1,-1
 250 0 l 1,2,-1
 250 306 l 1,3,4
 231 294 231 294 213.5 284.5 c 128,-1,5
 196 275 196 275 178 268.5 c 128,-1,6
 160 262 160 262 140.5 258.5 c 128,-1,7
 121 255 121 255 98 255 c 0,8,9
 83 255 83 255 67 260 c 128,-1,10
 51 265 51 265 38.5 275 c 128,-1,11
 26 285 26 285 17.5 298.5 c 128,-1,12
 9 312 9 312 9 328 c 0,13,14
 9 345 9 345 16 356 c 128,-1,15
 23 367 23 367 34 373.5 c 128,-1,16
 45 380 45 380 59 383 c 128,-1,17
 73 386 73 386 87 386 c 256,18,19
 101 386 101 386 117 383.5 c 128,-1,20
 133 381 133 381 146 374 c 128,-1,21
 159 367 159 367 167.5 356 c 128,-1,22
 176 345 176 345 176 327 c 0,23,24
 176 320 176 320 174 314 c 128,-1,25
 170 302 l 1,26,27
 184 309 184 309 201 321.5 c 128,-1,28
 218 334 218 334 232 348 c 0,29,30
 249 364 249 364 266 381 c 1,31,-1
 352 381 l 1,32,-1
 352 28 l 1,0,-1
117 327 m 0,33,34
 117 338 117 338 110.5 350.5 c 128,-1,35
 104 363 104 363 90 363 c 0,36,37
 75 363 75 363 67.5 349.5 c 128,-1,38
 60 336 60 336 60 323 c 0,39,40
 60 309 60 309 68 299.5 c 128,-1,41
 76 290 76 290 90 290 c 0,42,43
 107 290 107 290 112 301.5 c 128,-1,44
 117 313 117 313 117 327 c 0,33,34
EndSplineSet
EndChar
StartChar: uni0E30
Encoding: 3632 3632 179
Width: 374
Flags: W
Fore
357 321 m 1,0,1
 351 293 351 293 331 271 c 128,-1,2
 311 249 311 249 284.5 233.5 c 128,-1,3
 258 218 258 218 228 210 c 128,-1,4
 198 202 198 202 172 202 c 0,5,6
 153 202 153 202 125 205.5 c 128,-1,7
 97 209 97 209 71 219 c 128,-1,8
 45 229 45 229 26.5 245.5 c 128,-1,9
 8 262 8 262 8 287 c 0,10,11
 8 305 8 305 16 316 c 128,-1,12
 24 327 24 327 36.5 333.5 c 128,-1,13
 49 340 49 340 64.5 342.5 c 128,-1,14
 80 345 80 345 94 345 c 0,15,16
 107 345 107 345 122.5 342.5 c 128,-1,17
 138 340 138 340 151.5 333.5 c 128,-1,18
 165 327 165 327 174 316.5 c 128,-1,19
 183 306 183 306 183 290 c 0,20,21
 183 257 183 257 154 238 c 1,22,23
 156 237 156 237 162.5 237 c 128,-1,24
 169 237 169 237 171 237 c 0,25,26
 195 240 195 240 211.5 253.5 c 128,-1,27
 228 267 228 267 239 282 c 0,28,29
 251 300 251 300 259 321 c 1,30,-1
 357 321 l 1,31,-1
 357 321 l 1,0,1
128 289 m 0,32,33
 128 302 128 302 118.5 312 c 128,-1,34
 109 322 109 322 96 322 c 0,35,36
 81 322 81 322 73.5 311.5 c 128,-1,37
 66 301 66 301 66 287 c 0,38,39
 66 272 66 272 74.5 258.5 c 128,-1,40
 83 245 83 245 100 245 c 0,41,42
 114 245 114 245 121 261 c 128,-1,43
 128 277 128 277 128 289 c 0,32,33
128 94 m 0,44,45
 128 107 128 107 118.5 117 c 128,-1,46
 109 127 109 127 96 127 c 0,47,48
 81 127 81 127 73.5 116.5 c 128,-1,49
 66 106 66 106 66 92 c 0,50,51
 66 77 66 77 74.5 63.5 c 128,-1,52
 83 50 83 50 100 50 c 0,53,54
 114 50 114 50 121 66 c 128,-1,55
 128 82 128 82 128 94 c 0,44,45
357 126 m 1,56,57
 351 98 351 98 331 76 c 128,-1,58
 311 54 311 54 284.5 38.5 c 128,-1,59
 258 23 258 23 228 15 c 128,-1,60
 198 7 198 7 172 7 c 0,61,62
 153 7 153 7 125 10.5 c 128,-1,63
 97 14 97 14 71 24 c 128,-1,64
 45 34 45 34 26.5 50.5 c 128,-1,65
 8 67 8 67 8 92 c 0,66,67
 8 110 8 110 16 121 c 128,-1,68
 24 132 24 132 36.5 138.5 c 128,-1,69
 49 145 49 145 64.5 147.5 c 128,-1,70
 80 150 80 150 94 150 c 0,71,72
 107 150 107 150 122.5 147.5 c 128,-1,73
 138 145 138 145 151.5 138.5 c 128,-1,74
 165 132 165 132 174 121.5 c 128,-1,75
 183 111 183 111 183 95 c 0,76,77
 183 62 183 62 154 43 c 1,78,79
 156 42 156 42 162.5 42 c 128,-1,80
 169 42 169 42 171 42 c 0,81,82
 195 45 195 45 211.5 58.5 c 128,-1,83
 228 72 228 72 239 87 c 0,84,85
 251 105 251 105 259 126 c 1,86,-1
 357 126 l 1,87,-1
 357 126 l 1,56,57
EndSplineSet
EndChar
StartChar: uni0E31
Encoding: 3633 3633 180
Width: 0
Flags: W
Fore
83 592 m 1,0,1
 45 529 45 529 -6.5 497 c 128,-1,2
 -58 465 -58 465 -132 465 c 0,3,4
 -151 465 -151 465 -177.5 468 c 128,-1,5
 -204 471 -204 471 -228 480 c 128,-1,6
 -252 489 -252 489 -269 505 c 128,-1,7
 -286 521 -286 521 -286 546 c 0,8,9
 -286 564 -286 564 -278 575 c 128,-1,10
 -270 586 -270 586 -257.5 592 c 128,-1,11
 -245 598 -245 598 -230 600 c 128,-1,12
 -215 602 -215 602 -201 602 c 0,13,14
 -188 602 -188 602 -172.5 600 c 128,-1,15
 -157 598 -157 598 -143.5 592 c 128,-1,16
 -130 586 -130 586 -121 575.5 c 128,-1,17
 -112 565 -112 565 -112 548 c 0,18,19
 -112 515 -112 515 -142 499 c 1,20,-1
 -127 499 l 2,21,22
 -109 499 -109 499 -92 508 c 128,-1,23
 -75 517 -75 517 -60.5 531 c 128,-1,24
 -46 545 -46 545 -34.5 561 c 128,-1,25
 -23 577 -23 577 -15 592 c 1,26,-1
 83 592 l 1,27,-1
 83 592 l 1,0,1
-163 545 m 0,28,29
 -163 560 -163 560 -173 568.5 c 128,-1,30
 -183 577 -183 577 -197 577 c 256,31,32
 -211 577 -211 577 -221.5 568 c 128,-1,33
 -232 559 -232 559 -232 545 c 0,34,35
 -232 530 -232 530 -222.5 519 c 128,-1,36
 -213 508 -213 508 -197 508 c 0,37,38
 -163 508 -163 508 -163 545 c 0,28,29
EndSplineSet
Substitution: 0 65534 'L019' uni0E31.alt1
Substitution: 0 65534 'L019' uni0E31.alt1
EndChar
StartChar: uni0E32
Encoding: 3634 3634 181
Width: 369
Flags: W
Fore
229 0 m 1,0,-1
 229 272 l 2,1,2
 229 313 229 313 215.5 332 c 128,-1,3
 202 351 202 351 158 351 c 0,4,5
 140 351 140 351 122 341.5 c 128,-1,6
 104 332 104 332 87.5 317.5 c 128,-1,7
 71 303 71 303 57 286.5 c 128,-1,8
 43 270 43 270 34 256 c 1,9,-1
 7 256 l 1,10,-1
 7 326 l 1,11,12
 42 358 42 358 77.5 372 c 128,-1,13
 113 386 113 386 161 386 c 0,14,15
 184 386 184 386 213.5 382.5 c 128,-1,16
 243 379 243 379 269 368.5 c 128,-1,17
 295 358 295 358 313 339 c 128,-1,18
 331 320 331 320 331 290 c 2,19,-1
 331 30 l 1,20,-1
 289 0 l 1,21,-1
 229 0 l 1,0,-1
EndSplineSet
EndChar
StartChar: uni0E33
Encoding: 3635 3635 182
Width: 366
Flags: W
Fore
-14 500 m 0,0,1
 -14 483 -14 483 -22 469.5 c 128,-1,2
 -30 456 -30 456 -42.5 447 c 128,-1,3
 -55 438 -55 438 -71 433.5 c 128,-1,4
 -87 429 -87 429 -102 429 c 0,5,6
 -118 429 -118 429 -134 433 c 128,-1,7
 -150 437 -150 437 -163 445 c 128,-1,8
 -176 453 -176 453 -184.5 466.5 c 128,-1,9
 -193 480 -193 480 -193 498 c 0,10,11
 -193 515 -193 515 -184.5 528 c 128,-1,12
 -176 541 -176 541 -163 550 c 128,-1,13
 -150 559 -150 559 -134 563.5 c 128,-1,14
 -118 568 -118 568 -103 568 c 256,15,16
 -88 568 -88 568 -72 564 c 128,-1,17
 -56 560 -56 560 -43 551.5 c 128,-1,18
 -30 543 -30 543 -22 530.5 c 128,-1,19
 -14 518 -14 518 -14 500 c 0,0,1
229 0 m 1,20,-1
 229 272 l 2,21,22
 229 313 229 313 215.5 332 c 128,-1,23
 202 351 202 351 158 351 c 0,24,25
 140 351 140 351 122 341.5 c 128,-1,26
 104 332 104 332 87.5 317.5 c 128,-1,27
 71 303 71 303 57 286.5 c 128,-1,28
 43 270 43 270 34 256 c 1,29,-1
 7 256 l 1,30,-1
 7 326 l 1,31,32
 42 358 42 358 77.5 372 c 128,-1,33
 113 386 113 386 161 386 c 0,34,35
 184 386 184 386 213.5 382.5 c 128,-1,36
 243 379 243 379 269 368.5 c 128,-1,37
 295 358 295 358 313 339 c 128,-1,38
 331 320 331 320 331 290 c 2,39,-1
 331 30 l 1,40,-1
 289 0 l 1,41,-1
 229 0 l 1,20,-1
-63 497 m 0,42,43
 -63 512 -63 512 -74 529.5 c 128,-1,44
 -85 547 -85 547 -102 547 c 0,45,46
 -111 547 -111 547 -117.5 542 c 128,-1,47
 -124 537 -124 537 -128.5 529.5 c 128,-1,48
 -133 522 -133 522 -135 513 c 128,-1,49
 -137 504 -137 504 -137 497 c 0,50,51
 -137 482 -137 482 -127 466.5 c 128,-1,52
 -117 451 -117 451 -100 451 c 0,53,54
 -81 451 -81 451 -72 465.5 c 128,-1,55
 -63 480 -63 480 -63 497 c 0,42,43
EndSplineSet
Substitution: 0 65534 'L019' uni0E33.alt1
Substitution: 0 65534 'L019' uni0E33.alt1
EndChar
StartChar: uni0E34
Encoding: 3636 3636 183
Width: 0
Flags: W
Fore
-386 484 m 1,0,1
 -362 530 -362 530 -328 556.5 c 128,-1,2
 -294 583 -294 583 -240 583 c 0,3,4
 -201 583 -201 583 -171.5 574.5 c 128,-1,5
 -142 566 -142 566 -119 549.5 c 128,-1,6
 -96 533 -96 533 -78 508 c 128,-1,7
 -60 483 -60 483 -44 449 c 1,8,9
 -45 449 -45 449 -58.5 450.5 c 128,-1,10
 -72 452 -72 452 -91.5 455 c 128,-1,11
 -111 458 -111 458 -134 461.5 c 128,-1,12
 -157 465 -157 465 -178 468 c 128,-1,13
 -199 471 -199 471 -214.5 473 c 128,-1,14
 -230 475 -230 475 -235 475 c 2,15,-1
 -386 484 l 1,16,-1
 -386 484 l 1,0,1
-124 490 m 1,17,18
 -145 515 -145 515 -171 535.5 c 128,-1,19
 -197 556 -197 556 -232 556 c 0,20,21
 -256 556 -256 556 -273.5 542.5 c 128,-1,22
 -291 529 -291 529 -306 512 c 1,23,24
 -260 510 -260 510 -214.5 504.5 c 128,-1,25
 -169 499 -169 499 -124 490 c 1,17,18
EndSplineSet
Substitution: 0 65534 'L019' uni0E34.alt1
Substitution: 0 65534 'L019' uni0E34.alt1
EndChar
StartChar: uni0E35
Encoding: 3637 3637 184
Width: 0
Flags: W
Fore
-216 483 m 0,0,1
 -239 486 -239 486 -265.5 487.5 c 128,-1,2
 -292 489 -292 489 -315.5 490 c 128,-1,3
 -339 491 -339 491 -354.5 492 c 128,-1,4
 -370 493 -370 493 -371 493 c 1,5,6
 -356 518 -356 518 -341 536 c 128,-1,7
 -326 554 -326 554 -308 566 c 128,-1,8
 -290 578 -290 578 -267.5 583.5 c 128,-1,9
 -245 589 -245 589 -215 589 c 0,10,11
 -161 589 -161 589 -116 562 c 1,12,-1
 -116 603 l 1,13,-1
 -34 603 l 1,14,-1
 -34 451 l 1,15,16
 -67 458 -67 458 -100 464 c 0,17,18
 -128 469 -128 469 -159.5 474.5 c 128,-1,19
 -191 480 -191 480 -216 483 c 0,0,1
-98 494 m 1,20,21
 -121 521 -121 521 -148.5 539.5 c 128,-1,22
 -176 558 -176 558 -213 558 c 0,23,24
 -235 558 -235 558 -254.5 546 c 128,-1,25
 -274 534 -274 534 -288 519 c 1,26,-1
 -264 518 l 2,27,28
 -251 516 -251 516 -238.5 515.5 c 128,-1,29
 -226 515 -226 515 -211 513 c 0,30,31
 -179 509 -179 509 -154.5 505 c 128,-1,32
 -130 501 -130 501 -98 494 c 1,20,21
EndSplineSet
Substitution: 0 65534 'L019' uni0E35.alt1
Substitution: 0 65534 'L019' uni0E35.alt1
EndChar
StartChar: uni0E36
Encoding: 3638 3638 185
Width: 0
Flags: W
Fore
-15 562 m 0,0,1
 -15 538 -15 538 -27 527 c 128,-1,2
 -39 516 -39 516 -62 512 c 1,3,4
 -51 498 -51 498 -46 480.5 c 128,-1,5
 -41 463 -41 463 -38 446 c 1,6,7
 -71 446 -71 446 -115.5 459 c 128,-1,8
 -160 472 -160 472 -206 479 c 0,9,10
 -234 483 -234 483 -254 485 c 128,-1,11
 -274 487 -274 487 -293 487.5 c 128,-1,12
 -312 488 -312 488 -331.5 488.5 c 128,-1,13
 -351 489 -351 489 -378 490 c 1,14,15
 -369 511 -369 511 -352.5 529 c 128,-1,16
 -336 547 -336 547 -315 561 c 128,-1,17
 -294 575 -294 575 -270.5 583 c 128,-1,18
 -247 591 -247 591 -224 591 c 0,19,20
 -204 591 -204 591 -186 587 c 128,-1,21
 -168 583 -168 583 -151 576 c 1,22,23
 -149 598 -149 598 -130.5 607.5 c 128,-1,24
 -112 617 -112 617 -93 617 c 0,25,26
 -80 617 -80 617 -66 614.5 c 128,-1,27
 -52 612 -52 612 -40.5 606 c 128,-1,28
 -29 600 -29 600 -22 589.5 c 128,-1,29
 -15 579 -15 579 -15 562 c 0,0,1
-58 566 m 0,30,31
 -58 578 -58 578 -64 588.5 c 128,-1,32
 -70 599 -70 599 -84 599 c 0,33,34
 -95 599 -95 599 -101 585 c 128,-1,35
 -107 571 -107 571 -107 562 c 256,36,37
 -107 553 -107 553 -102.5 543 c 128,-1,38
 -98 533 -98 533 -87 533 c 0,39,40
 -73 533 -73 533 -65.5 542.5 c 128,-1,41
 -58 552 -58 552 -58 566 c 0,30,31
-104 490 m 1,42,43
 -122 519 -122 519 -149.5 537.5 c 128,-1,44
 -177 556 -177 556 -212 556 c 0,45,46
 -229 556 -229 556 -249 543 c 128,-1,47
 -269 530 -269 530 -278 519 c 1,48,49
 -234 514 -234 514 -191 506 c 128,-1,50
 -148 498 -148 498 -104 490 c 1,42,43
EndSplineSet
Substitution: 0 65534 'L019' uni0E36.alt1
Substitution: 0 65534 'L019' uni0E36.alt1
EndChar
